<?xml version="1.0" standalone="no"?><!DOCTYPE svg PUBLIC "-//W3C//DTD SVG 1.1//EN" "http://www.w3.org/Graphics/SVG/1.1/DTD/svg11.dtd"><svg height="400" node-id="1" sillyvg="true" template-height="400" template-width="600" version="1.1" viewBox="0 0 600 400" width="600" xmlns="http://www.w3.org/2000/svg" xmlns:xlink="http://www.w3.org/1999/xlink"><defs node-id="101"></defs><path d="M 0.00 0.00 L 600.00 0.00 L 600.00 400.00 L 0.00 400.00 Z" fill="#ffffff" fill-rule="evenodd" node-id="104" stroke="none" target-height="400" target-width="600" target-x="0" target-y="0"></path><g node-id="106"><path d="M 125.09 313.05 L 127.85 312.78 L 130.39 312.06 L 132.75 310.91 L 134.94 309.41 L 136.93 307.66 L 138.74 305.64 L 141.05 302.35 L 142.82 299.00 L 144.11 295.59 L 144.77 292.73 L 144.92 290.84 L 144.76 289.50 L 144.39 288.57 L 143.75 287.94 L 143.02 287.66 L 142.15 287.70 L 140.75 288.19 L 139.10 289.13 L 135.85 291.40 L 134.27 292.42 L 133.01 293.03 L 132.21 293.18 L 131.63 293.02 L 131.17 292.56 L 131.06 291.86 L 131.32 290.82 L 132.19 289.23 L 133.85 286.91 L 136.14 284.05 L 140.93 278.19 L 143.07 275.25 L 144.49 272.82 L 145.09 271.18 L 145.12 269.99 L 144.74 269.09 L 143.77 268.31 L 142.77 268.01 L 141.68 268.14 L 140.00 268.85 L 138.24 270.01 L 135.19 272.30 L 134.27 272.81 L 133.68 272.87 L 133.27 272.65 L 133.20 272.23 L 133.43 271.43 L 134.26 269.98 L 137.77 265.09 L 141.98 259.30 L 143.84 256.36 L 145.06 253.91 L 145.55 252.27 L 145.54 251.10 L 145.17 250.23 L 144.45 249.59 L 143.80 249.33 L 143.16 249.36 L 142.18 249.79 L 141.12 250.65 L 139.11 252.80 L 138.09 253.81 L 137.17 254.49 L 136.24 254.76 L 135.35 254.42 L 135.05 253.96 L 134.97 253.17 L 135.20 251.88 L 135.87 249.86 L 136.95 247.19 L 139.48 241.33 L 140.70 238.22 L 141.67 235.25 L 142.31 232.35 L 142.42 229.94 L 142.15 228.46 L 141.55 227.28 L 140.61 226.35 L 139.47 225.94 L 138.29 226.15 L 136.92 227.10 L 135.06 229.27 L 132.93 232.72 L 130.95 236.59 L 128.92 241.01 L 125.15 249.80 L 121.90 256.88 L 120.80 258.76 L 120.00 259.71 L 119.43 260.08 L 118.79 260.06 L 118.00 259.71 L 116.98 258.87 L 115.55 257.31 L 113.84 255.12 L 110.33 250.26 L 106.76 245.69 L 104.97 243.88 L 103.47 242.84 L 102.45 242.50 L 101.58 242.59 L 100.76 243.11 L 100.25 243.98 L 100.07 245.24 L 100.32 247.07 L 101.19 249.89 L 102.71 253.46 L 106.58 261.00 L 110.55 268.38 L 112.21 271.76 L 113.26 274.30 L 113.68 275.95 L 113.65 276.92 L 113.34 277.47 L 112.62 277.77 L 111.68 277.76 L 110.39 277.32 L 108.44 276.30 L 106.10 274.82 L 101.32 271.78 L 98.92 270.60 L 96.88 270.03 L 95.61 270.04 L 94.55 270.48 L 93.62 271.39 L 93.13 272.62 L 93.08 273.99 L 93.52 275.60 L 94.77 277.97 L 96.70 280.60 L 101.18 285.53 L 105.00 289.52 L 106.15 291.09 L 106.21 291.72 L 105.62 291.98 L 104.19 291.92 L 100.40 291.10 L 96.02 290.16 L 93.88 289.93 L 92.18 290.00 L 91.18 290.29 L 90.50 290.79 L 90.06 291.51 L 89.97 292.42 L 90.23 293.68 L 91.02 295.44 L 92.70 297.96 L 95.41 300.99 L 98.66 303.86 L 102.82 306.74 L 105.83 308.42 L 109.16 309.92 L 112.85 311.24 L 116.63 312.20 L 120.70 312.82 L 125.09 313.05 Z" fill="#f3f9ff" fill-rule="nonzero" group-id="1" id="Path" node-id="7" stroke="none" target-height="87.11507" target-width="55.583862" target-x="89.96561" target-y="225.93828"></path><path d="M 118.29 321.22 L 117.82 321.05 L 117.54 320.62 L 116.55 315.10 L 116.02 309.70 L 115.94 304.41 L 116.22 299.12 L 116.77 294.14 L 117.57 289.46 L 119.14 282.68 L 120.80 277.08 L 122.59 272.01 L 123.97 268.61 L 125.45 265.38 L 125.90 265.01 L 126.49 265.06 L 126.87 265.50 L 126.82 266.09 L 125.36 269.26 L 124.01 272.59 L 122.24 277.57 L 120.61 283.07 L 119.07 289.72 L 118.29 294.32 L 117.75 299.20 L 117.47 304.39 L 117.54 309.58 L 118.06 314.87 L 119.03 320.28 L 118.94 320.86 L 118.46 321.20 L 118.29 321.22 Z" fill="#d0e7fe" fill-rule="nonzero" group-id="1" id="Path" node-id="8" stroke="none" target-height="56.2099" target-width="10.928047" target-x="115.937126" target-y="265.00638"></path><path d="M 100.26 288.62 L 100.07 286.71 L 99.61 285.01 L 98.89 283.48 L 97.41 281.38 L 95.62 279.49 L 91.72 276.13 L 89.89 274.49 L 88.45 272.89 L 87.70 271.73 L 87.25 270.52 L 87.08 269.24 L 87.30 267.99 L 87.88 266.75 L 88.90 265.50 L 90.79 263.79 L 93.24 261.94 L 98.41 258.01 L 100.80 255.71 L 102.75 253.13 L 103.72 251.23 L 104.33 249.12 L 104.57 246.75 L 104.32 244.40 L 103.70 242.47 L 102.75 240.89 L 100.80 238.85 L 98.41 237.17 L 93.24 234.40 L 90.81 232.96 L 88.90 231.37 L 87.93 230.12 L 87.32 228.65 L 87.08 226.89 L 87.34 224.26 L 87.99 222.24 L 88.97 220.44 L 90.16 218.84 L 92.75 215.67 L 93.91 213.91 L 94.91 211.75 L 95.56 209.32 L 95.82 206.07 L 95.64 204.14 L 95.10 201.80 L 94.10 198.96 L 92.19 194.76 L 89.58 190.05 L 86.60 185.37 L 83.25 180.70 L 79.66 176.26 L 76.07 172.32 L 72.35 168.81 L 69.04 166.28 L 66.71 164.93 L 64.77 164.20 L 63.12 163.95 L 61.21 164.30 L 59.25 165.28 L 57.17 167.02 L 55.34 169.09 L 53.52 171.62 L 51.69 174.67 L 49.30 179.48 L 47.19 184.63 L 45.41 189.85 L 44.13 194.58 L 43.26 199.08 L 43.00 202.24 L 43.23 204.09 L 43.81 205.80 L 44.77 207.43 L 46.64 209.65 L 48.99 211.78 L 54.02 215.75 L 56.38 217.77 L 58.24 219.76 L 59.21 221.21 L 59.79 222.70 L 60.01 224.26 L 59.78 225.79 L 59.20 227.14 L 58.24 228.34 L 56.38 229.89 L 54.02 231.32 L 48.99 233.93 L 46.63 235.35 L 44.77 236.88 L 43.81 238.07 L 43.23 239.39 L 43.00 240.90 L 43.26 242.43 L 43.94 243.98 L 45.14 245.60 L 47.39 247.82 L 50.25 250.10 L 56.35 254.35 L 59.24 256.46 L 61.46 258.35 L 62.69 259.73 L 63.36 260.95 L 63.60 262.06 L 63.42 263.19 L 62.92 264.31 L 62.06 265.46 L 60.45 267.05 L 58.37 268.80 L 53.98 272.56 L 51.96 274.74 L 50.29 277.18 L 49.47 278.96 L 48.95 280.92 L 48.75 283.12 L 48.92 285.39 L 49.42 287.99 L 50.30 290.95 L 52.01 295.31 L 54.26 299.86 L 56.84 304.24 L 59.60 308.22 L 62.57 311.81 L 65.29 314.43 L 67.26 315.85 L 68.91 316.61 L 70.31 316.86 L 71.77 316.66 L 73.69 316.05 L 76.20 314.87 L 79.84 312.70 L 83.97 309.75 L 87.98 306.43 L 91.79 302.80 L 95.22 298.96 L 97.83 295.33 L 99.22 292.78 L 99.99 290.56 L 100.26 288.62 Z" fill="#e7f4fe" fill-rule="nonzero" group-id="1" id="Path" node-id="9" stroke="none" target-height="152.90738" target-width="61.567894" target-x="43" target-y="163.95444"></path><path d="M 69.35 326.00 L 69.22 325.99 L 68.72 325.68 L 68.60 325.10 L 70.89 310.74 L 72.58 297.89 L 73.73 286.43 L 74.55 274.92 L 74.97 264.90 L 75.06 256.22 L 74.74 243.75 L 74.07 234.38 L 72.99 225.26 L 71.87 218.58 L 70.61 212.73 L 69.67 209.24 L 68.64 206.12 L 68.65 205.53 L 69.07 205.12 L 69.65 205.13 L 70.06 205.54 L 71.16 208.85 L 72.12 212.40 L 73.39 218.29 L 74.51 225.02 L 75.60 234.23 L 76.27 243.65 L 76.60 256.19 L 76.51 264.91 L 76.08 274.98 L 75.26 286.54 L 74.11 298.04 L 72.41 310.95 L 70.11 325.37 L 69.84 325.83 L 69.35 326.00 Z" fill="#d0e7fe" fill-rule="nonzero" group-id="1" id="Path" node-id="10" stroke="none" target-height="120.88165" target-width="7.9993134" target-x="68.59738" target-y="205.12085"></path></g><g node-id="107"><path d="M 244.85 58.97 L 244.14 57.72 L 243.24 56.72 L 242.11 55.94 L 240.84 55.44 L 239.50 55.24 L 238.07 55.34 L 229.10 57.11 L 227.51 57.22 L 225.98 56.91 L 224.57 56.23 L 223.37 55.18 L 221.03 52.70 L 218.57 50.37 L 217.53 49.17 L 216.85 47.77 L 216.54 46.25 L 216.65 44.66 L 218.42 35.72 L 218.53 34.28 L 218.32 32.95 L 217.82 31.68 L 217.04 30.55 L 216.04 29.64 L 214.79 28.94 L 201.55 23.46 L 200.16 23.07 L 198.81 23.01 L 197.46 23.26 L 196.21 23.80 L 195.12 24.60 L 194.18 25.69 L 189.10 33.26 L 188.05 34.45 L 186.75 35.32 L 185.28 35.83 L 183.70 35.94 L 180.31 35.85 L 176.89 35.96 L 175.30 35.84 L 173.83 35.33 L 172.53 34.47 L 171.48 33.27 L 166.39 25.69 L 165.45 24.60 L 164.36 23.79 L 163.10 23.26 L 161.76 23.01 L 160.41 23.07 L 159.02 23.46 L 145.78 28.94 L 144.53 29.64 L 143.53 30.55 L 142.75 31.68 L 142.24 32.95 L 142.04 34.28 L 142.15 35.72 L 143.92 44.67 L 144.02 46.26 L 143.72 47.79 L 143.04 49.19 L 141.99 50.40 L 139.50 52.73 L 137.17 55.19 L 135.97 56.23 L 134.57 56.91 L 133.04 57.21 L 131.45 57.11 L 122.50 55.34 L 121.06 55.23 L 119.73 55.44 L 118.46 55.94 L 117.33 56.72 L 116.42 57.72 L 115.71 58.97 L 110.23 72.19 L 109.84 73.58 L 109.78 74.93 L 110.03 76.27 L 110.57 77.53 L 111.37 78.61 L 112.46 79.55 L 120.04 84.63 L 121.24 85.68 L 122.10 86.97 L 122.61 88.44 L 122.73 90.02 L 122.63 93.41 L 122.74 96.82 L 122.63 98.41 L 122.12 99.88 L 121.25 101.18 L 120.06 102.23 L 112.46 107.31 L 111.37 108.25 L 110.57 109.34 L 110.03 110.59 L 109.78 111.94 L 109.84 113.28 L 110.23 114.67 L 115.71 127.90 L 116.42 129.15 L 117.33 130.15 L 118.46 130.92 L 119.73 131.43 L 121.06 131.63 L 122.50 131.52 L 131.47 129.75 L 133.06 129.65 L 134.59 129.96 L 135.99 130.64 L 137.20 131.68 L 139.54 134.17 L 142.00 136.50 L 143.04 137.70 L 143.72 139.10 L 144.02 140.62 L 143.92 142.21 L 142.15 151.15 L 142.04 152.59 L 142.24 153.92 L 142.75 155.19 L 143.53 156.31 L 144.53 157.22 L 145.78 157.93 L 159.02 163.41 L 160.41 163.79 L 161.76 163.86 L 163.10 163.61 L 164.36 163.07 L 165.45 162.27 L 166.39 161.18 L 171.47 153.61 L 172.52 152.41 L 173.81 151.55 L 175.28 151.04 L 176.87 150.92 L 180.26 151.02 L 183.67 150.91 L 185.26 151.02 L 186.74 151.53 L 188.04 152.40 L 189.09 153.59 L 194.18 161.18 L 195.12 162.27 L 196.20 163.07 L 197.46 163.61 L 198.81 163.86 L 200.16 163.80 L 201.54 163.41 L 214.78 157.93 L 216.04 157.22 L 217.04 156.32 L 217.81 155.19 L 218.32 153.92 L 218.52 152.59 L 218.42 151.15 L 216.64 142.19 L 216.54 140.60 L 216.85 139.08 L 217.53 137.67 L 218.58 136.47 L 221.07 134.13 L 223.39 131.67 L 224.60 130.63 L 226.00 129.96 L 227.52 129.65 L 229.11 129.76 L 238.07 131.53 L 239.50 131.63 L 240.84 131.43 L 242.11 130.92 L 243.24 130.15 L 244.15 129.15 L 244.85 127.90 L 250.34 114.67 L 250.72 113.28 L 250.79 111.94 L 250.54 110.59 L 250.00 109.34 L 249.20 108.25 L 248.11 107.31 L 240.52 102.24 L 239.33 101.19 L 238.46 99.90 L 237.95 98.43 L 237.84 96.84 L 237.93 93.46 L 237.82 90.05 L 237.94 88.46 L 238.45 86.99 L 239.31 85.69 L 240.51 84.64 L 248.11 79.56 L 249.20 78.62 L 250.00 77.53 L 250.54 76.28 L 250.79 74.93 L 250.72 73.59 L 250.34 72.20 L 244.85 58.97 Z M 191.90 121.45 L 187.94 122.77 L 184.01 123.54 L 180.07 123.76 L 176.14 123.47 L 172.35 122.70 L 168.67 121.45 L 165.17 119.74 L 161.95 117.60 L 158.96 115.03 L 156.34 112.09 L 154.10 108.77 L 152.24 105.04 L 150.91 101.08 L 150.14 97.15 L 149.92 93.22 L 150.21 89.29 L 150.98 85.50 L 152.24 81.83 L 153.95 78.34 L 156.08 75.12 L 158.66 72.14 L 161.60 69.52 L 164.92 67.28 L 168.67 65.42 L 172.63 64.09 L 176.56 63.33 L 180.50 63.10 L 184.43 63.39 L 188.22 64.16 L 191.90 65.42 L 195.39 67.13 L 198.62 69.26 L 201.60 71.84 L 204.23 74.77 L 206.47 78.09 L 208.33 81.83 L 209.66 85.79 L 210.42 89.72 L 210.65 93.65 L 210.36 97.57 L 209.59 101.36 L 208.33 105.04 L 206.62 108.52 L 204.48 111.75 L 201.90 114.73 L 198.96 117.35 L 195.64 119.59 L 191.90 121.45 Z" fill="#f3f9ff" fill-rule="nonzero" group-id="2" id="Shape" node-id="12" stroke="none" target-height="140.85124" target-width="141.00992" target-x="109.77805" target-y="23.008121"></path></g><g node-id="108"><path d="M 412.49 169.21 L 414.49 166.04 L 416.77 162.75 L 420.39 157.95 L 424.60 152.91 L 430.06 147.07 L 433.99 143.26 L 438.41 139.41 L 443.34 135.50 L 448.47 131.89 L 454.05 128.52 L 460.09 125.38 L 466.35 122.71 L 473.03 120.52 L 480.18 118.82 L 485.59 117.98 L 491.25 117.55 L 497.20 117.53 L 503.46 117.95 L 509.54 118.81 L 515.93 120.22 L 522.67 122.23 L 529.78 124.88 L 536.50 127.91 L 543.59 131.68 L 551.08 136.27 L 559.00 141.74 L 533.97 136.36 L 541.42 143.24 L 516.65 151.87 L 498.09 139.23 L 499.77 141.18 L 503.82 145.77 L 508.78 151.06 L 511.26 153.48 L 513.18 155.16 L 511.25 155.99 L 507.85 156.95 L 499.69 158.59 L 490.99 159.93 L 484.08 160.84 L 481.27 161.17 L 478.15 146.88 L 478.05 148.88 L 477.99 153.69 L 478.32 159.51 L 478.76 162.32 L 479.40 164.54 L 454.10 166.70 L 450.49 157.37 L 441.72 165.13 L 412.49 169.21 Z" fill="#8ae6b9" fill-rule="nonzero" group-id="3" id="Path" node-id="14" stroke="none" target-height="51.68261" target-width="146.51068" target-x="412.48932" target-y="117.527596"></path><path d="M 414.23 172.35 L 415.21 168.73 L 416.41 164.91 L 418.45 159.26 L 420.98 153.20 L 424.46 146.01 L 427.09 141.21 L 430.17 136.22 L 433.72 131.03 L 437.56 126.07 L 441.89 121.20 L 446.73 116.41 L 451.91 112.01 L 457.65 107.95 L 463.98 104.21 L 468.89 101.82 L 474.18 99.73 L 479.85 97.95 L 485.95 96.50 L 492.02 95.53 L 498.54 94.99 L 505.57 94.92 L 513.15 95.35 L 520.47 96.26 L 528.36 97.77 L 536.87 99.94 L 546.06 102.83 L 520.29 110.08 L 519.95 116.65 L 501.08 130.56 L 487.13 118.42 L 487.54 120.22 L 488.88 124.35 L 489.94 126.69 L 491.29 128.90 L 492.39 130.22 L 493.60 131.22 L 494.94 131.95 L 493.13 133.66 L 490.49 135.76 L 484.71 139.82 L 479.69 143.04 L 477.55 144.35 L 470.35 131.62 L 470.13 133.02 L 469.93 136.44 L 470.04 138.52 L 470.41 140.70 L 471.12 142.80 L 472.23 144.65 L 453.24 157.66 L 447.03 149.81 L 450.30 159.63 L 414.23 172.35 Z" fill="#1eaf69" fill-rule="nonzero" group-id="3" id="Path" node-id="15" stroke="none" target-height="77.4263" target-width="131.82315" target-x="414.23453" target-y="94.92136"></path><path d="M 471.77 143.89 L 470.80 140.85 L 469.62 137.64 L 467.66 132.89 L 465.27 127.82 L 462.02 121.82 L 458.23 115.78 L 453.54 109.40 L 450.07 105.32 L 446.19 101.33 L 441.88 97.43 L 437.29 93.88 L 432.24 90.63 L 426.70 87.68 L 422.42 85.83 L 417.83 84.24 L 412.93 82.95 L 407.67 81.94 L 402.46 81.34 L 396.88 81.13 L 390.89 81.34 L 384.45 81.99 L 378.25 83.04 L 371.59 84.63 L 364.42 86.80 L 356.70 89.62 L 378.94 94.82 L 379.49 100.41 L 396.12 111.56 L 407.53 100.67 L 407.25 102.23 L 406.27 105.80 L 405.46 107.84 L 404.40 109.77 L 403.03 111.42 L 401.41 112.51 L 403.02 113.90 L 405.35 115.59 L 410.43 118.83 L 414.83 121.39 L 416.71 122.43 L 422.35 111.30 L 422.59 112.48 L 422.89 115.39 L 422.88 117.16 L 422.65 119.04 L 422.14 120.85 L 421.26 122.47 L 437.95 132.85 L 442.94 125.92 L 440.54 134.42 L 471.77 143.89 Z" fill="#8ae6b9" fill-rule="nonzero" group-id="3" id="Path" node-id="16" stroke="none" target-height="62.761314" target-width="115.06711" target-x="356.701" target-y="81.13253"></path><path d="M 414.16 172.35 L 415.04 167.81 L 416.10 162.99 L 417.90 155.83 L 420.10 148.09 L 423.09 138.88 L 426.61 129.44 L 430.96 119.41 L 434.23 112.79 L 437.86 106.28 L 441.87 99.88 L 446.25 93.74 L 451.01 88.04 L 456.15 82.75 L 460.30 79.10 L 464.68 75.84 L 469.29 72.97 L 474.16 70.48 L 479.21 68.46 L 484.54 66.96 L 490.21 65.98 L 496.25 65.53 L 500.96 65.60 L 505.94 66.08 L 511.21 67.01 L 516.81 68.42 L 522.77 70.35 L 503.02 86.83 L 486.65 82.89 L 503.11 90.97 L 492.55 104.38 L 470.10 101.02 L 478.48 106.77 L 469.14 124.91 L 457.43 118.20 L 457.60 119.60 L 458.31 122.95 L 458.97 124.92 L 459.91 126.94 L 461.14 128.77 L 462.71 130.26 L 447.86 147.84 L 439.79 141.92 L 445.55 150.52 L 414.16 172.35 Z" fill="#2ccd7f" fill-rule="nonzero" group-id="3" id="Path" node-id="17" stroke="none" target-height="106.82254" target-width="108.60495" target-x="414.1625" target-y="65.525116"></path></g><g node-id="109"><path d="M 183.37 123.24 L 464.04 123.24 L 464.04 276.16 L 183.37 276.16 Z" fill="#f3f9ff" fill-rule="nonzero" group-id="4" id="Rectangle" node-id="19" stroke="none" target-height="152.91457" target-width="280.66345" target-x="183.37361" target-y="123.24318"></path><path d="M 476.79 288.90 L 476.79 123.24 L 476.58 120.92 L 476.00 118.79 L 475.05 116.81 L 473.78 115.02 L 472.27 113.51 L 470.48 112.24 L 468.50 111.30 L 466.37 110.72 L 464.04 110.50 L 183.37 110.50 L 181.04 110.72 L 178.91 111.30 L 176.93 112.24 L 175.14 113.51 L 173.63 115.02 L 172.36 116.81 L 171.41 118.79 L 170.83 120.92 L 170.62 123.24 L 170.62 288.90 L 476.79 288.90 L 476.79 288.90 Z M 183.37 123.24 L 464.04 123.24 L 464.04 276.16 L 183.37 276.16 L 183.37 123.24 Z" fill="#224380" fill-rule="nonzero" group-id="4" id="Shape" node-id="20" stroke="none" target-height="178.40094" target-width="306.17804" target-x="170.61589" target-y="110.49999"></path><path d="M 170.62 288.90 L 170.62 314.39 L 170.83 316.71 L 171.41 318.84 L 172.36 320.82 L 173.63 322.61 L 175.14 324.12 L 176.93 325.39 L 178.91 326.33 L 181.04 326.91 L 183.37 327.13 L 285.43 327.13 L 285.19 332.41 L 284.51 337.36 L 283.43 342.01 L 281.91 346.53 L 280.08 350.56 L 277.96 354.16 L 275.44 357.47 L 272.74 360.18 L 269.85 362.35 L 267.47 363.66 L 265.04 364.59 L 262.53 365.15 L 259.92 365.36 L 259.92 365.36 L 257.59 365.57 L 255.46 366.15 L 253.48 367.10 L 251.69 368.36 L 250.17 369.88 L 248.90 371.67 L 247.96 373.64 L 247.38 375.77 L 247.16 378.10 L 247.16 378.10 L 400.25 378.10 L 400.25 378.10 L 400.03 375.77 L 399.45 373.64 L 398.51 371.67 L 397.24 369.88 L 395.72 368.36 L 393.93 367.10 L 391.95 366.15 L 389.82 365.57 L 387.49 365.36 L 387.49 365.36 L 384.88 365.15 L 382.37 364.59 L 379.94 363.66 L 377.56 362.35 L 374.67 360.18 L 371.97 357.47 L 369.45 354.16 L 367.33 350.56 L 365.50 346.53 L 363.98 342.01 L 362.90 337.36 L 362.22 332.41 L 361.98 327.13 L 464.04 327.13 L 466.36 326.91 L 468.50 326.33 L 470.48 325.39 L 472.27 324.12 L 473.78 322.61 L 475.05 320.82 L 476.00 318.84 L 476.58 316.71 L 476.79 314.39 L 476.79 288.90 L 170.62 288.90 L 170.62 288.90 Z" fill="#dae7ff" fill-rule="nonzero" group-id="4" id="Path" node-id="21" stroke="none" target-height="89.2005" target-width="306.17804" target-x="170.61589" target-y="288.90002"></path><path d="M 259.92 365.36 L 387.49 365.36 L 384.88 365.15 L 382.37 364.59 L 379.94 363.66 L 377.56 362.35 L 374.67 360.18 L 371.97 357.47 L 369.45 354.16 L 367.33 350.56 L 365.50 346.53 L 363.98 342.01 L 362.90 337.36 L 362.22 332.41 L 361.98 327.13 L 285.43 327.13 L 285.19 332.41 L 284.51 337.36 L 283.43 342.01 L 281.91 346.53 L 280.08 350.56 L 277.96 354.16 L 275.44 357.47 L 272.74 360.18 L 269.85 362.35 L 267.47 363.66 L 265.04 364.59 L 262.53 365.15 L 259.92 365.36 Z" fill="#c3d3f3" fill-rule="nonzero" group-id="4" id="Path" node-id="22" stroke="none" target-height="38.228638" target-width="127.57449" target-x="259.9181" target-y="327.12866"></path><path d="M 330.08 308.01 L 329.84 309.74 L 329.22 311.23 L 328.22 312.52 L 326.92 313.52 L 325.44 314.14 L 323.70 314.39 L 321.97 314.14 L 320.49 313.52 L 319.19 312.52 L 318.19 311.23 L 317.57 309.74 L 317.33 308.01 L 317.57 306.28 L 318.19 304.80 L 319.19 303.51 L 320.49 302.51 L 321.97 301.89 L 323.70 301.64 L 325.44 301.89 L 326.92 302.51 L 328.22 303.51 L 329.22 304.80 L 329.84 306.28 L 330.08 308.01 Z" fill="#224380" fill-rule="nonzero" group-id="4" id="Oval" node-id="23" stroke="none" target-height="12.742279" target-width="12.756836" target-x="317.32648" target-y="301.64322"></path><path d="M 326.89 116.87 L 326.64 118.12 L 325.96 119.12 L 324.96 119.80 L 323.70 120.06 L 322.45 119.80 L 321.45 119.12 L 320.77 118.12 L 320.52 116.87 L 320.77 115.62 L 321.45 114.62 L 322.45 113.94 L 323.70 113.69 L 324.96 113.94 L 325.96 114.62 L 326.64 115.62 L 326.89 116.87 Z" fill="#f3f9ff" fill-rule="nonzero" group-id="4" id="Oval" node-id="24" stroke="none" target-height="6.37204" target-width="6.3792725" target-x="320.51526" target-y="113.68512"></path><path d="M 421.20 225.62 L 421.20 223.89 L 430.00 223.89 L 430.04 225.14 L 430.02 225.62 L 421.20 225.62 Z M 412.41 225.62 L 403.62 225.62 L 403.62 223.89 L 412.41 223.89 L 412.41 225.62 Z M 394.83 225.62 L 386.04 225.62 L 386.04 223.89 L 394.83 223.89 L 394.83 225.62 Z M 378.07 221.07 L 377.54 219.48 L 377.36 217.82 L 377.36 212.02 L 379.10 212.02 L 379.10 217.82 L 379.24 219.12 L 379.65 220.34 L 378.07 221.07 Z M 437.47 220.10 L 435.80 219.59 L 436.07 217.82 L 436.07 211.10 L 437.80 211.10 L 437.80 217.82 L 437.72 218.97 L 437.47 220.10 Z M 379.10 203.23 L 377.37 203.23 L 377.37 194.45 L 379.10 194.45 L 379.10 203.23 Z M 437.80 202.32 L 436.07 202.32 L 436.07 193.53 L 437.80 193.53 L 437.80 202.32 Z M 379.10 185.67 L 377.37 185.67 L 377.37 176.89 L 379.10 176.89 L 379.10 185.67 Z M 437.80 184.75 L 436.07 184.75 L 436.07 175.97 L 437.80 175.97 L 437.80 184.75 Z M 379.10 168.11 L 377.37 168.11 L 377.37 161.42 L 377.45 160.24 L 377.71 159.10 L 379.37 159.62 L 379.10 161.41 L 379.10 168.11 L 379.10 168.11 Z M 437.80 167.19 L 436.07 167.19 L 436.07 161.42 L 435.93 160.11 L 435.51 158.87 L 437.08 158.14 L 437.62 159.73 L 437.80 161.42 L 437.80 167.19 L 437.80 167.19 Z M 429.10 155.35 L 420.31 155.35 L 420.31 153.61 L 429.10 153.61 L 429.10 155.35 Z M 411.52 155.35 L 402.73 155.35 L 402.73 153.61 L 411.52 153.61 L 411.52 155.35 Z M 393.94 155.35 L 385.17 155.35 L 385.15 153.84 L 385.15 153.62 L 393.94 153.62 L 393.94 155.35 Z" fill="#b8ddfe" fill-rule="nonzero" group-id="4" id="Shape" node-id="25" stroke="none" target-height="72.003876" target-width="60.44046" target-x="377.36438" target-y="153.61472"></path><g node-id="113"><path d="M 342.98 226.84 L 218.67 226.84 L 216.47 226.54 L 214.53 225.72 L 212.87 224.44 L 211.59 222.78 L 210.77 220.84 L 210.47 218.65 L 210.47 164.75 L 210.77 162.56 L 211.59 160.62 L 212.87 158.96 L 214.53 157.69 L 216.47 156.86 L 218.67 156.57 L 342.98 156.57 L 345.18 156.86 L 347.12 157.69 L 348.77 158.97 L 350.06 160.62 L 350.88 162.56 L 351.17 164.75 L 351.17 218.65 L 350.88 220.84 L 350.06 222.78 L 348.77 224.44 L 347.12 225.72 L 345.18 226.54 L 342.98 226.84 Z" fill="#d0e7fe" fill-rule="nonzero" group-id="4,8" id="Path" node-id="27" stroke="none" target-height="70.26874" target-width="140.70049" target-x="210.47395" target-y="156.56775"></path><path d="M 342.98 222.50 L 218.67 222.50 L 216.47 222.21 L 214.53 221.39 L 212.87 220.11 L 211.59 218.45 L 210.77 216.51 L 210.47 214.32 L 210.47 160.42 L 210.77 158.23 L 211.59 156.29 L 212.87 154.63 L 214.53 153.35 L 216.47 152.53 L 218.67 152.23 L 342.98 152.23 L 345.18 152.53 L 347.12 153.35 L 348.77 154.63 L 350.06 156.29 L 350.88 158.23 L 351.17 160.42 L 351.17 214.32 L 350.88 216.51 L 350.06 218.45 L 348.77 220.11 L 347.12 221.39 L 345.18 222.21 L 342.98 222.50 Z" fill="#ffffff" fill-rule="nonzero" group-id="4,8" id="Path" node-id="28" stroke="none" target-height="70.26874" target-width="140.70049" target-x="210.47395" target-y="152.23398"></path><g node-id="117"><path d="M 274.96 193.23 L 274.96 184.44 L 339.45 184.44 L 339.45 193.23 Z" fill="#7266d5" fill-rule="nonzero" group-id="4,8,12" id="Rectangle" node-id="29" stroke="none" target-height="8.783661" target-width="64.4874" target-x="274.96237" target-y="184.44159"></path></g><g node-id="118"><path d="M 304.27 193.23 L 304.27 184.44 L 339.45 184.44 L 339.45 193.23 Z" fill="#9e95e3" fill-rule="nonzero" group-id="4,8,13" id="Rectangle" node-id="30" stroke="none" target-height="8.783646" target-width="35.175354" target-x="304.2736" target-y="184.4416"></path></g><g node-id="119"><path d="M 274.96 210.79 L 274.96 202.01 L 339.45 202.01 L 339.45 210.79 Z" fill="#7266d5" fill-rule="nonzero" group-id="4,8,14" id="Rectangle" node-id="31" stroke="none" target-height="8.783661" target-width="64.4874" target-x="274.9621" target-y="202.00916"></path></g><g node-id="120"><path d="M 327.72 210.79 L 327.72 202.01 L 339.45 202.01 L 339.45 210.79 Z" fill="#9e95e3" fill-rule="nonzero" group-id="4,8,15" id="Rectangle" node-id="32" stroke="none" target-height="8.783615" target-width="11.724823" target-x="327.72403" target-y="202.00945"></path></g><path d="M 241.25 206.40 L 237.78 206.08 L 234.59 205.21 L 231.64 203.80 L 228.97 201.90 L 226.70 199.64 L 224.80 196.97 L 223.39 194.02 L 222.52 190.84 L 222.20 187.37 L 222.52 183.90 L 223.39 180.72 L 224.80 177.77 L 226.70 175.10 L 228.97 172.83 L 231.64 170.94 L 234.59 169.53 L 237.78 168.66 L 241.25 168.34 L 241.25 177.12 L 239.38 177.29 L 237.67 177.76 L 236.08 178.52 L 234.64 179.54 L 233.42 180.76 L 232.39 182.20 L 231.63 183.79 L 231.17 185.50 L 230.99 187.37 L 231.17 189.23 L 231.63 190.95 L 232.39 192.54 L 233.41 193.97 L 234.64 195.19 L 236.08 196.21 L 237.67 196.97 L 239.38 197.44 L 241.25 197.62 L 243.12 197.44 L 244.84 196.97 L 246.43 196.21 L 247.87 195.19 L 249.09 193.97 L 250.11 192.54 L 250.87 190.95 L 251.34 189.23 L 251.51 187.37 L 260.30 187.37 L 259.98 190.84 L 259.11 194.02 L 257.70 196.97 L 255.80 199.64 L 253.53 201.90 L 250.86 203.80 L 247.91 205.21 L 244.72 206.08 L 241.25 206.40 Z" fill="#ffe994" fill-rule="nonzero" group-id="4,8" id="Path" node-id="33" stroke="none" target-height="38.06314" target-width="38.106567" target-x="222.19788" target-y="168.33588"></path><path d="M 260.30 187.37 L 251.51 187.37 L 251.34 185.50 L 250.87 183.79 L 250.11 182.20 L 249.09 180.76 L 247.87 179.54 L 246.43 178.52 L 244.84 177.76 L 243.12 177.29 L 241.25 177.12 L 241.25 168.34 L 244.72 168.66 L 247.91 169.53 L 250.86 170.94 L 253.53 172.83 L 255.80 175.10 L 257.70 177.77 L 259.11 180.72 L 259.98 183.90 L 260.30 187.37 Z" fill="#ffcb01" fill-rule="nonzero" group-id="4,8" id="Path" node-id="34" stroke="none" target-height="19.03157" target-width="19.053284" target-x="241.25116" target-y="168.33678"></path></g></g><g node-id="110"><path d="M 108.96 320.86 L 98.56 318.54 L 100.07 310.47 L 110.71 312.36 Z" fill="#f1b282" fill-rule="nonzero" group-id="5" id="Path" node-id="36" stroke="none" target-height="10.3811035" target-width="12.153465" target-x="98.556" target-y="310.4745"></path><path d="M 104.46 311.30 L 104.36 310.70 L 103.97 310.13 L 103.19 309.57 L 101.81 308.93 L 100.29 308.44 L 98.10 307.95 L 97.25 308.01 L 96.59 308.41 L 96.07 309.03 L 95.67 309.78 L 95.20 311.18 L 94.85 313.15 L 94.20 316.07 L 93.68 317.54 L 93.04 318.74 L 92.60 319.75 L 92.27 321.42 L 92.15 323.25 L 92.22 325.24 L 92.51 327.17 L 92.97 328.74 L 93.71 329.97 L 94.57 330.47 L 95.40 330.43 L 96.05 330.11 L 96.58 329.49 L 97.20 328.27 L 97.77 326.73 L 98.37 325.19 L 99.12 323.89 L 100.03 323.02 L 101.19 322.31 L 103.48 321.16 L 104.34 320.53 L 104.69 319.88 L 104.55 319.13 L 103.96 318.15 L 102.41 316.11 L 101.83 315.04 L 101.71 314.09 L 102.02 313.28 L 102.52 312.74 L 103.75 312.02 L 104.25 311.68 L 104.46 311.30 Z" fill="#0b224e" fill-rule="nonzero" group-id="5" id="Path" node-id="37" stroke="none" target-height="22.521606" target-width="12.538513" target-x="92.153656" target-y="307.9469"></path><path d="M 170.21 361.43 L 168.36 371.91 L 160.22 370.77 L 161.63 360.06 Z" fill="#f1b282" fill-rule="nonzero" group-id="5" id="Path" node-id="38" stroke="none" target-height="11.849976" target-width="9.985001" target-x="160.22116" target-y="360.06287"></path><path d="M 154.72 252.92 L 140.64 244.02 L 141.58 242.44 L 142.27 240.65 L 142.85 237.68 L 142.96 235.57 L 142.73 232.93 L 142.09 229.68 L 142.20 229.65 L 144.67 228.74 L 145.24 228.22 L 145.21 227.65 L 144.44 225.86 L 144.03 224.59 L 143.82 223.43 L 143.96 222.48 L 144.54 222.08 L 145.06 222.32 L 145.91 223.39 L 147.68 226.68 L 149.56 230.63 L 151.25 233.92 L 152.03 235.00 L 152.46 235.22 L 154.66 234.52 L 154.91 235.43 L 155.87 236.75 L 158.00 238.65 L 158.50 239.36 L 158.76 240.39 L 158.71 241.87 L 158.25 244.14 L 157.45 246.66 L 155.64 251.02 L 154.72 252.92 Z" fill="#f1b282" fill-rule="nonzero" group-id="5" id="Path" node-id="39" stroke="none" target-height="30.838379" target-width="18.122177" target-x="140.64107" target-y="222.08356"></path><path d="M 159.61 220.88 L 157.66 223.97 L 155.62 226.63 L 154.68 227.76 L 154.68 234.00 L 154.66 234.52 L 152.46 235.22 L 152.03 235.00 L 151.25 233.92 L 149.56 230.63 L 147.68 226.68 L 145.91 223.39 L 145.06 222.31 L 144.54 222.08 L 143.96 222.48 L 143.82 223.43 L 144.03 224.59 L 144.44 225.86 L 145.21 227.65 L 145.24 228.22 L 144.67 228.73 L 142.20 229.65 L 142.09 229.68 L 141.47 227.65 L 140.84 224.87 L 140.74 222.50 L 141.09 220.43 L 141.83 218.45 L 142.77 216.75 L 143.89 215.31 L 145.80 213.44 L 147.39 212.25 L 149.11 211.23 L 149.14 211.24 L 151.05 212.19 L 154.66 214.12 L 158.29 216.38 L 159.69 217.52 L 160.26 218.30 L 160.25 219.28 L 159.61 220.88 Z" fill="#f1b282" fill-rule="nonzero" group-id="5" id="Path" node-id="40" stroke="none" target-height="23.989594" target-width="19.522171" target-x="140.735" target-y="211.23022"></path><path d="M 170.73 283.54 L 172.00 286.38 L 174.98 293.58 L 178.44 303.11 L 179.98 308.19 L 181.15 312.98 L 181.70 316.19 L 181.93 318.89 L 181.88 321.17 L 180.81 328.20 L 178.94 337.21 L 176.64 346.77 L 174.27 355.44 L 172.18 361.78 L 171.21 363.87 L 170.73 364.36 L 168.33 364.52 L 164.92 364.31 L 163.17 364.04 L 161.72 363.67 L 160.50 363.14 L 159.93 362.58 L 159.85 361.71 L 160.13 359.12 L 161.36 351.99 L 162.97 342.88 L 164.30 333.45 L 164.67 329.00 L 164.72 325.40 L 164.21 321.80 L 162.92 317.24 L 161.17 312.56 L 159.03 307.64 L 154.48 298.46 L 150.69 291.59 L 149.11 288.88 L 170.73 283.54 Z" fill="#0b224e" fill-rule="nonzero" group-id="5" id="Path" node-id="41" stroke="none" target-height="80.98526" target-width="32.81842" target-x="149.11139" target-y="283.53723"></path><path d="M 155.13 299.71 L 159.31 308.25 L 161.25 312.77 L 162.86 317.06 L 164.08 321.26 L 164.67 324.69 L 165.83 321.17 L 166.66 317.64 L 167.17 314.09 L 167.46 308.76 L 167.28 303.76 L 166.75 298.94 L 166.05 294.90 L 164.54 288.70 L 163.81 286.37 L 155.13 299.71 Z" fill="#03193f" fill-rule="nonzero" group-id="5" id="Path" node-id="42" stroke="none" target-height="38.314087" target-width="12.328171" target-x="155.12689" target-y="286.37244"></path><path d="M 140.64 283.54 L 135.01 314.09 L 128.32 312.86 L 120.84 311.64 L 114.35 310.84 L 111.82 310.75 L 110.68 310.92 L 109.72 311.59 L 108.63 312.94 L 107.68 314.56 L 106.85 316.38 L 106.22 318.23 L 105.88 319.71 L 105.88 320.96 L 106.23 321.39 L 109.84 322.45 L 117.39 324.51 L 126.81 326.68 L 131.65 327.55 L 135.98 328.09 L 140.03 328.22 L 142.81 327.85 L 144.93 326.96 L 147.14 325.45 L 149.48 323.19 L 151.55 320.64 L 153.64 317.57 L 155.75 313.91 L 158.55 308.12 L 161.14 301.58 L 163.35 294.77 L 165.16 287.77 L 140.64 283.54 Z" fill="#102b5e" fill-rule="nonzero" group-id="5" id="Path" node-id="43" stroke="none" target-height="44.68158" target-width="59.277946" target-x="105.88348" target-y="283.53723"></path><path d="M 191.46 205.38 L 191.28 203.61 L 190.90 199.81 L 190.57 196.25 L 190.70 194.91 L 191.23 193.58 L 192.06 192.40 L 193.03 191.50 L 194.11 190.95 L 195.03 190.91 L 195.95 191.24 L 196.97 191.86 L 197.89 192.68 L 198.66 193.75 L 199.15 194.99 L 199.27 196.48 L 199.03 198.21 L 198.52 200.55 L 197.81 202.91 L 196.97 205.02 L 195.94 206.81 L 195.03 207.61 L 194.06 207.75 L 193.22 207.43 L 192.48 206.82 L 191.94 206.16 L 191.46 205.38 Z" fill="#f1b282" fill-rule="nonzero" group-id="5" id="Path" node-id="44" stroke="none" target-height="16.842499" target-width="8.693649" target-x="190.5733" target-y="190.91058"></path><path d="M 154.66 234.52 L 152.46 235.22 L 152.03 235.00 L 151.25 233.92 L 149.56 230.63 L 147.68 226.68 L 145.91 223.39 L 145.06 222.31 L 144.54 222.08 L 143.96 222.48 L 143.82 223.43 L 144.03 224.59 L 144.44 225.86 L 145.21 227.65 L 145.24 228.22 L 144.67 228.73 L 142.20 229.65 L 142.09 229.68 L 141.21 229.48 L 139.86 228.57 L 137.13 225.79 L 134.82 222.94 L 133.84 221.64 L 145.88 210.28 L 146.88 210.51 L 149.11 211.23 L 149.14 211.24 L 151.05 212.19 L 151.90 212.84 L 152.27 213.64 L 152.13 214.88 L 150.98 217.84 L 150.35 219.47 L 149.96 221.03 L 149.96 222.51 L 150.56 223.75 L 151.62 224.55 L 152.70 224.73 L 153.85 224.47 L 155.06 223.87 L 157.32 222.26 L 159.14 220.98 L 159.61 220.88 L 160.30 221.24 L 160.95 222.35 L 161.84 225.51 L 162.49 228.65 L 162.46 229.32 L 162.13 230.03 L 161.39 230.84 L 160.00 231.89 L 158.21 232.92 L 154.66 234.52 Z" fill="#0b224e" fill-rule="nonzero" group-id="5" id="Path" node-id="45" stroke="none" target-height="24.938553" target-width="28.64386" target-x="133.84302" target-y="210.28127"></path><g node-id="114"><path d="M 151.58 205.29 L 151.77 205.73 L 151.72 206.47 L 151.24 207.71 L 150.16 209.57 L 148.35 212.08 L 146.21 214.63 L 143.53 217.46 L 140.69 220.14 L 138.15 222.28 L 135.64 224.09 L 133.78 225.17 L 132.54 225.65 L 131.80 225.71 L 131.36 225.51 L 131.17 225.08 L 131.23 224.34 L 131.70 223.10 L 132.78 221.23 L 134.59 218.73 L 136.74 216.18 L 139.42 213.35 L 142.25 210.67 L 144.80 208.53 L 147.30 206.71 L 149.16 205.64 L 150.41 205.16 L 151.15 205.10 L 151.58 205.29 Z" fill="#1eaf69" fill-rule="nonzero" group-id="5,9" id="Oval" node-id="46" stroke="none" target-height="20.603027" target-width="20.603027" target-x="131.17072" target-y="205.1021"></path></g><path d="M 133.84 221.64 L 133.19 220.79 L 131.95 218.79 L 131.44 217.58 L 131.21 216.43 L 131.37 215.37 L 132.06 214.51 L 133.54 213.50 L 133.84 213.33 L 134.73 212.62 L 135.36 211.81 L 135.56 210.92 L 135.72 209.05 L 136.10 208.24 L 137.07 207.50 L 138.17 207.27 L 139.74 207.42 L 143.11 208.43 L 145.99 209.68 L 147.22 210.28 L 133.84 221.64 Z" fill="#2ccd7f" fill-rule="nonzero" group-id="5" id="Path" node-id="47" stroke="none" target-height="14.367203" target-width="16.00772" target-x="131.20897" target-y="207.2711"></path><path d="M 109.99 201.26 L 110.28 200.58 L 111.25 199.57 L 112.51 198.73 L 113.85 198.18 L 114.75 198.07 L 115.45 198.29 L 116.01 198.82 L 116.48 199.95 L 117.17 202.30 L 118.57 208.17 L 120.15 214.53 L 121.02 217.45 L 121.80 219.52 L 124.29 224.34 L 126.11 227.24 L 128.46 230.38 L 131.20 233.32 L 134.44 235.99 L 136.82 237.49 L 139.44 238.68 L 142.31 239.56 L 146.42 241.08 L 149.10 242.47 L 151.31 243.97 L 152.62 245.04 L 153.72 245.86 L 154.35 246.02 L 154.71 245.67 L 155.04 244.52 L 155.35 241.37 L 155.67 238.10 L 155.98 236.78 L 156.36 236.22 L 157.17 235.96 L 159.34 235.55 L 165.05 234.38 L 168.31 233.39 L 171.59 231.96 L 173.65 230.75 L 175.47 229.28 L 177.09 227.54 L 179.16 224.42 L 181.24 220.59 L 184.92 212.68 L 187.96 206.18 L 188.99 204.49 L 189.72 203.72 L 190.24 203.49 L 191.52 203.71 L 193.00 204.35 L 194.39 205.23 L 195.51 206.20 L 196.31 207.24 L 196.48 207.94 L 195.43 210.66 L 193.05 216.11 L 190.04 222.65 L 187.16 228.64 L 185.11 232.44 L 182.10 236.18 L 177.55 241.25 L 172.74 246.86 L 170.58 249.70 L 168.96 252.21 L 167.81 254.67 L 167.50 256.48 L 167.84 258.86 L 168.72 262.20 L 171.18 269.45 L 173.65 276.46 L 174.54 279.52 L 174.86 281.42 L 174.69 282.84 L 174.10 284.19 L 173.02 285.51 L 171.66 286.62 L 169.92 287.66 L 167.71 288.61 L 164.16 289.65 L 159.92 290.33 L 153.25 290.96 L 149.93 291.11 L 146.97 291.02 L 144.22 290.59 L 142.15 289.80 L 141.05 288.98 L 140.29 287.91 L 139.86 286.54 L 139.55 283.30 L 139.36 279.13 L 138.99 270.31 L 138.52 265.93 L 137.74 262.16 L 137.05 260.42 L 135.91 258.40 L 134.24 256.02 L 128.24 248.77 L 125.00 244.94 L 122.04 241.15 L 120.23 238.54 L 118.87 236.12 L 117.90 233.88 L 115.88 227.11 L 113.77 218.82 L 111.88 210.66 L 110.51 204.27 L 109.99 201.26 Z" fill="#1b90fb" fill-rule="nonzero" group-id="5" id="Path" node-id="48" stroke="none" target-height="93.03389" target-width="86.4908" target-x="109.989944" target-y="198.07298"></path><path d="M 144.53 278.80 L 144.30 280.79 L 143.81 282.51 L 143.08 284.01 L 141.65 286.01 L 140.12 287.53 L 139.86 286.54 L 139.54 283.30 L 139.36 279.13 L 138.99 270.31 L 138.52 265.93 L 137.74 262.16 L 137.24 260.80 L 136.42 259.24 L 137.82 261.38 L 140.63 266.30 L 142.09 269.35 L 143.36 272.59 L 144.25 275.87 L 144.53 278.80 Z" fill="#1277d7" fill-rule="nonzero" group-id="5" id="Path" node-id="49" stroke="none" target-height="28.286499" target-width="8.109207" target-x="136.42392" target-y="259.24"></path><path d="M 160.85 366.34 L 160.25 366.47 L 159.70 366.88 L 159.18 367.69 L 158.60 369.10 L 158.18 370.63 L 157.78 372.85 L 157.88 373.69 L 158.31 374.33 L 158.96 374.82 L 159.72 375.19 L 161.14 375.59 L 163.14 375.86 L 166.08 376.37 L 167.57 376.82 L 168.80 377.41 L 169.83 377.80 L 171.52 378.06 L 173.35 378.09 L 175.34 377.93 L 177.26 377.57 L 178.81 377.03 L 180.00 376.24 L 180.46 375.35 L 180.39 374.53 L 180.04 373.90 L 179.39 373.40 L 178.14 372.84 L 176.58 372.33 L 175.01 371.80 L 173.68 371.11 L 172.77 370.24 L 172.01 369.12 L 170.75 366.88 L 170.09 366.05 L 169.42 365.73 L 168.68 365.90 L 167.72 366.54 L 165.75 368.18 L 164.71 368.80 L 163.77 368.96 L 162.94 368.70 L 162.37 368.22 L 161.60 367.02 L 161.24 366.54 L 160.85 366.34 Z" fill="#0b224e" fill-rule="nonzero" group-id="5" id="Path" node-id="50" stroke="none" target-height="12.361176" target-width="22.682388" target-x="157.78163" target-y="365.73062"></path><path d="M 111.53 178.80 L 122.96 180.51 L 120.72 195.49 L 109.28 193.78 L 107.93 193.29 L 106.92 192.36 L 106.33 191.13 L 106.25 189.69 L 107.43 181.82 L 107.93 180.47 L 108.85 179.46 L 110.09 178.87 L 111.53 178.80 Z" fill="#1b90fb" fill-rule="nonzero" group-id="5,10" id="Path" node-id="52" stroke="none" target-height="16.691986" target-width="16.711014" target-x="106.25368" target-y="178.79704"></path><path d="M 216.86 194.55 L 214.61 209.54 L 120.71 195.49 L 122.96 180.51 Z" fill="#ffd125" fill-rule="nonzero" group-id="5,10,16" id="Rectangle" node-id="53" stroke="none" target-height="29.02739" target-width="96.14832" target-x="120.71226" target-y="180.50919"></path><path d="M 216.11 199.55 L 215.36 204.54 L 121.46 190.50 L 122.21 185.50 Z" fill="#ffd94a" fill-rule="nonzero" group-id="5,10,17" id="Rectangle" node-id="54" stroke="none" target-height="19.03981" target-width="94.651" target-x="121.461" target-y="185.50253"></path><path d="M 215.36 204.54 L 214.61 209.54 L 120.71 195.49 L 121.46 190.50 Z" fill="#ffe270" fill-rule="nonzero" group-id="5,10,18" id="Rectangle" node-id="55" stroke="none" target-height="19.039825" target-width="94.65101" target-x="120.71189" target-y="190.49643"></path><path d="M 216.86 194.55 L 215.85 194.60 L 214.99 195.02 L 214.34 195.73 L 213.99 196.67 L 214.04 197.68 L 214.46 198.55 L 215.17 199.20 L 216.12 199.54 L 235.74 205.03 L 216.86 194.55 Z" fill="#ffe994" fill-rule="nonzero" group-id="5,10" id="Path" node-id="56" stroke="none" target-height="10.480942" target-width="21.748535" target-x="213.99142" target-y="194.55174"></path><path d="M 235.74 205.03 L 216.12 199.55 L 215.11 199.60 L 214.24 200.01 L 213.59 200.72 L 213.24 201.67 L 213.30 202.68 L 213.71 203.54 L 214.42 204.19 L 215.37 204.54 L 235.74 205.03 Z" fill="#fef0b9" fill-rule="nonzero" group-id="5,10" id="Path" node-id="57" stroke="none" target-height="5.4878235" target-width="22.496887" target-x="213.24307" target-y="199.54576"></path><path d="M 235.74 205.03 L 215.37 204.54 L 214.36 204.59 L 213.49 205.01 L 212.84 205.71 L 212.49 206.66 L 212.55 207.67 L 212.96 208.54 L 213.67 209.19 L 214.62 209.53 L 235.74 205.03 Z" fill="#fff9de" fill-rule="nonzero" group-id="5,10" id="Path" node-id="58" stroke="none" target-height="4.9931183" target-width="23.245209" target-x="212.49475" target-y="204.53976"></path><path d="M 227.82 206.72 L 235.74 205.03 L 228.66 201.10 Z" fill="#224380" fill-rule="nonzero" group-id="5,10" id="Path" node-id="59" stroke="none" target-height="5.618271" target-width="7.920105" target-x="227.81985" target-y="201.10278"></path><path d="M 123.22 195.86 L 118.22 195.11 L 120.46 180.13 L 125.46 180.88 Z" fill="#224380" fill-rule="nonzero" group-id="5,10,19" id="Rectangle" node-id="60" stroke="none" target-height="15.729675" target-width="7.2459717" target-x="118.21785" target-y="180.12766"></path><path d="M 116.12 201.60 L 115.76 200.01 L 115.06 196.58 L 114.56 193.36 L 114.59 192.17 L 114.83 191.09 L 115.40 189.02 L 115.47 188.00 L 115.23 186.90 L 114.55 185.67 L 113.71 184.74 L 112.71 184.07 L 111.59 183.72 L 110.53 183.78 L 109.44 184.26 L 108.57 185.10 L 107.81 186.56 L 107.20 188.91 L 106.99 191.42 L 107.13 192.79 L 107.55 193.83 L 108.10 194.39 L 109.40 195.20 L 109.93 195.73 L 110.32 196.70 L 110.97 199.76 L 111.46 202.18 L 111.66 203.16 L 116.12 201.60 Z" fill="#f1b282" fill-rule="nonzero" group-id="5" id="Path" node-id="61" stroke="none" target-height="19.437592" target-width="9.131592" target-x="106.98822" target-y="183.71965"></path></g><g node-id="111"><path d="M 486.22 215.56 L 443.61 215.56 L 441.71 215.82 L 440.03 216.53 L 438.59 217.64 L 437.48 219.08 L 436.77 220.76 L 436.51 222.66 L 436.51 275.85 L 436.77 277.75 L 437.48 279.43 L 438.59 280.86 L 440.03 281.97 L 441.71 282.68 L 443.61 282.94 L 486.22 282.94 L 488.12 282.68 L 489.80 281.97 L 491.24 280.86 L 492.35 279.43 L 493.06 277.75 L 493.32 275.85 L 493.32 222.66 L 493.06 220.76 L 492.35 219.08 L 491.24 217.64 L 489.80 216.53 L 488.12 215.82 L 486.22 215.56 Z" fill="#1277d7" fill-rule="nonzero" group-id="6" id="Path" node-id="63" stroke="none" target-height="67.37686" target-width="56.803223" target-x="436.51257" target-y="215.56491"></path><path d="M 486.22 212.60 L 443.61 212.60 L 441.71 212.86 L 440.03 213.57 L 438.59 214.68 L 437.48 216.12 L 436.77 217.80 L 436.51 219.70 L 436.51 272.89 L 436.77 274.79 L 437.48 276.47 L 438.59 277.90 L 440.03 279.01 L 441.71 279.72 L 443.61 279.98 L 486.22 279.98 L 488.12 279.72 L 489.80 279.01 L 491.24 277.90 L 492.35 276.47 L 493.06 274.79 L 493.32 272.89 L 493.32 219.70 L 493.06 217.80 L 492.35 216.12 L 491.24 214.68 L 489.80 213.57 L 488.12 212.86 L 486.22 212.60 Z" fill="#1b90fb" fill-rule="nonzero" group-id="6" id="Path" node-id="64" stroke="none" target-height="67.37688" target-width="56.803223" target-x="436.51257" target-y="212.60286"></path><path d="M 464.91 255.16 L 461.68 254.86 L 458.71 254.05 L 455.96 252.73 L 453.47 250.97 L 451.36 248.86 L 449.59 246.37 L 448.27 243.62 L 447.46 240.66 L 447.16 237.43 L 447.46 234.20 L 448.27 231.23 L 449.59 228.48 L 451.35 226.00 L 453.47 223.88 L 455.96 222.12 L 458.71 220.81 L 461.68 220.00 L 464.91 219.70 L 468.15 220.00 L 471.11 220.81 L 473.87 222.12 L 476.36 223.88 L 478.47 226.00 L 480.24 228.48 L 481.55 231.23 L 482.36 234.20 L 482.66 237.43 L 482.36 240.66 L 481.55 243.62 L 480.24 246.37 L 478.47 248.86 L 476.36 250.97 L 473.87 252.73 L 471.12 254.05 L 468.15 254.86 L 464.91 255.16 Z M 464.91 223.24 L 462.32 223.48 L 459.95 224.13 L 457.75 225.18 L 455.76 226.59 L 454.07 228.28 L 452.65 230.27 L 451.60 232.47 L 450.95 234.84 L 450.71 237.43 L 450.95 240.01 L 451.60 242.38 L 452.65 244.58 L 454.07 246.57 L 455.76 248.26 L 457.75 249.67 L 459.95 250.72 L 462.32 251.37 L 464.91 251.61 L 467.50 251.37 L 469.88 250.72 L 472.08 249.67 L 474.07 248.26 L 475.76 246.57 L 477.17 244.58 L 478.22 242.38 L 478.87 240.01 L 479.11 237.43 L 478.87 234.84 L 478.22 232.47 L 477.17 230.27 L 475.76 228.28 L 474.07 226.59 L 472.08 225.18 L 469.88 224.13 L 467.50 223.48 L 464.91 223.24 Z" fill="#85c3fe" fill-rule="nonzero" group-id="6" id="Shape" node-id="65" stroke="none" target-height="35.461792" target-width="35.50226" target-x="447.16217" target-y="219.6954"></path><path d="M 464.91 255.16 L 461.68 254.86 L 458.71 254.05 L 455.96 252.73 L 453.47 250.97 L 451.36 248.86 L 449.59 246.37 L 448.27 243.62 L 447.46 240.66 L 447.16 237.43 L 447.46 234.20 L 448.27 231.23 L 449.59 228.48 L 451.35 226.00 L 453.47 223.88 L 455.96 222.12 L 458.71 220.81 L 461.68 220.00 L 464.91 219.70 L 465.61 219.84 L 466.17 220.21 L 466.55 220.77 L 466.69 221.47 L 466.55 222.16 L 466.17 222.72 L 465.61 223.10 L 464.91 223.24 L 462.32 223.48 L 459.95 224.13 L 457.75 225.18 L 455.76 226.59 L 454.07 228.28 L 452.65 230.27 L 451.60 232.47 L 450.95 234.84 L 450.71 237.43 L 450.95 240.01 L 451.60 242.38 L 452.65 244.58 L 454.07 246.57 L 455.76 248.26 L 457.75 249.67 L 459.95 250.72 L 462.32 251.37 L 464.91 251.61 L 467.50 251.37 L 469.88 250.72 L 472.08 249.67 L 474.07 248.26 L 475.76 246.57 L 477.17 244.58 L 478.22 242.38 L 478.87 240.01 L 479.11 237.43 L 479.26 236.73 L 479.63 236.17 L 480.19 235.79 L 480.89 235.65 L 481.58 235.79 L 482.14 236.17 L 482.52 236.73 L 482.66 237.43 L 482.36 240.66 L 481.55 243.62 L 480.24 246.37 L 478.47 248.86 L 476.36 250.97 L 473.87 252.73 L 471.12 254.05 L 468.15 254.86 L 464.91 255.16 Z" fill="#ffffff" fill-rule="nonzero" group-id="6" id="Path" node-id="66" stroke="none" target-height="35.461792" target-width="35.501343" target-x="447.16217" target-y="219.6954"></path><path d="M 484.44 237.43 L 484.16 238.82 L 483.40 239.93 L 482.28 240.69 L 480.89 240.97 L 479.50 240.69 L 478.38 239.93 L 477.62 238.82 L 477.34 237.43 L 477.62 236.04 L 478.38 234.92 L 479.50 234.16 L 480.89 233.88 L 482.28 234.16 L 483.40 234.92 L 484.16 236.04 L 484.44 237.43 Z" fill="#224380" fill-rule="nonzero" group-id="6" id="Oval" node-id="67" stroke="none" target-height="7.0916443" target-width="7.0997314" target-x="477.3396" target-y="233.88048"></path><path d="M 472.01 262.25 L 457.81 262.25 L 457.12 262.39 L 456.56 262.77 L 456.18 263.33 L 456.04 264.02 L 456.18 264.71 L 456.56 265.27 L 457.12 265.65 L 457.81 265.79 L 472.01 265.79 L 472.71 265.65 L 473.27 265.27 L 473.65 264.71 L 473.79 264.02 L 473.65 263.33 L 473.27 262.77 L 472.71 262.39 L 472.01 262.25 Z" fill="#224380" fill-rule="nonzero" group-id="6" id="Path" node-id="68" stroke="none" target-height="3.545807" target-width="17.750214" target-x="456.03864" target-y="262.24884"></path><path d="M 472.01 269.34 L 457.81 269.34 L 457.12 269.48 L 456.56 269.86 L 456.18 270.42 L 456.04 271.11 L 456.18 271.81 L 456.56 272.37 L 457.12 272.75 L 457.81 272.89 L 472.01 272.89 L 472.71 272.75 L 473.27 272.37 L 473.65 271.81 L 473.79 271.11 L 473.65 270.42 L 473.27 269.86 L 472.71 269.48 L 472.01 269.34 Z" fill="#baddfe" fill-rule="nonzero" group-id="6" id="Path" node-id="69" stroke="none" target-height="3.545807" target-width="17.750214" target-x="456.03864" target-y="269.34137"></path><g node-id="116"><path d="M 502.79 219.52 L 501.95 220.06 L 501.37 220.94 L 500.75 223.06 L 500.27 224.71 L 499.20 226.40 L 498.77 227.29 L 498.65 227.93 L 498.82 228.25 L 499.22 228.55 L 500.18 229.25 L 500.50 229.78 L 500.60 230.64 L 500.59 232.66 L 500.82 233.63 L 501.31 234.49 L 502.09 235.14 L 503.40 235.61 L 504.66 236.11 L 505.37 236.83 L 505.77 237.77 L 505.95 238.92 L 506.02 241.40 L 506.18 243.11 L 506.43 243.96 L 506.88 244.47 L 507.53 244.59 L 509.87 244.00 L 511.75 243.18 L 514.13 241.70 L 515.32 240.59 L 516.58 238.94 L 517.64 237.09 L 518.46 235.14 L 518.93 233.18 L 518.93 231.57 L 518.31 228.65 L 517.45 226.12 L 516.38 223.93 L 514.95 222.03 L 513.18 220.63 L 511.00 219.67 L 508.75 219.14 L 507.15 218.92 L 505.70 218.88 L 504.63 219.01 L 502.79 219.52 Z" fill="#f1b282" fill-rule="nonzero" group-id="6,11" id="Path" node-id="71" stroke="none" target-height="25.710144" target-width="20.275024" target-x="498.6541" target-y="218.88425"></path><path d="M 468.23 368.07 L 469.03 366.84 L 469.71 364.89 L 470.15 362.70 L 470.46 360.15 L 470.76 355.07 L 470.90 350.85 L 479.21 352.44 L 478.05 356.47 L 476.86 360.68 L 476.09 363.69 L 475.86 365.21 L 475.76 367.01 L 475.73 370.41 L 475.65 371.86 L 475.48 372.63 L 474.96 373.00 L 473.25 373.53 L 468.86 374.36 L 464.57 374.96 L 462.64 375.20 L 460.62 373.79 L 461.88 373.04 L 464.83 371.02 L 466.53 369.66 L 468.23 368.07 Z" fill="#f1b282" fill-rule="nonzero" group-id="6,11" id="Path" node-id="72" stroke="none" target-height="24.34851" target-width="18.585907" target-x="460.62408" target-y="350.84662"></path><path d="M 475.34 370.82 L 475.73 371.13 L 475.86 372.02 L 475.71 373.10 L 475.33 374.34 L 474.77 375.49 L 474.13 376.27 L 472.81 376.26 L 470.30 376.23 L 468.95 376.21 L 469.04 374.87 L 467.72 375.28 L 464.80 376.02 L 463.17 376.27 L 461.81 376.31 L 458.52 375.96 L 457.40 375.65 L 457.17 375.42 L 457.38 375.10 L 458.12 374.54 L 459.99 373.54 L 461.42 373.09 L 462.16 373.33 L 462.91 373.81 L 463.64 374.29 L 464.28 374.49 L 466.24 373.91 L 469.78 372.62 L 473.33 371.35 L 475.34 370.82 Z" fill="#0b224e" fill-rule="nonzero" group-id="6,11" id="Path" node-id="73" stroke="none" target-height="5.496826" target-width="18.692322" target-x="457.16968" target-y="370.81818"></path><path d="M 512.64 365.87 L 512.65 364.40 L 512.17 362.40 L 511.35 360.31 L 510.24 358.00 L 507.74 353.56 L 505.57 349.94 L 513.43 346.79 L 514.63 350.81 L 515.91 354.99 L 516.88 357.94 L 517.52 359.35 L 518.41 360.91 L 520.22 363.80 L 520.93 365.06 L 521.21 365.79 L 520.97 366.39 L 519.82 367.76 L 516.57 370.82 L 513.29 373.64 L 511.79 374.88 L 509.33 374.78 L 509.98 373.47 L 511.37 370.19 L 512.06 368.12 L 512.64 365.87 Z" fill="#f1b282" fill-rule="nonzero" group-id="6,11" id="Path" node-id="74" stroke="none" target-height="28.087708" target-width="15.634857" target-x="505.57193" target-y="346.7944"></path><path d="M 520.11 364.35 L 520.61 364.40 L 521.20 365.08 L 521.66 366.07 L 522.01 367.32 L 522.15 368.59 L 522.04 369.59 L 520.92 370.29 L 518.80 371.62 L 517.65 372.34 L 517.00 371.16 L 516.11 372.21 L 514.05 374.41 L 512.81 375.50 L 511.70 376.27 L 508.73 377.74 L 507.62 378.09 L 507.30 378.02 L 507.31 377.64 L 507.63 376.76 L 508.67 374.91 L 509.62 373.76 L 510.37 373.56 L 511.26 373.57 L 512.14 373.58 L 512.79 373.40 L 514.12 371.85 L 516.40 368.86 L 518.70 365.88 L 520.11 364.35 Z" fill="#0b224e" fill-rule="nonzero" group-id="6,11" id="Path" node-id="75" stroke="none" target-height="13.745483" target-width="14.850433" target-x="507.30362" target-y="364.3463"></path><path d="M 507.04 283.88 L 486.05 283.88 L 484.97 286.34 L 482.30 292.77 L 478.94 301.74 L 477.28 306.73 L 475.77 311.83 L 474.52 316.94 L 473.68 321.63 L 472.36 333.25 L 471.49 343.94 L 471.01 351.76 L 470.86 354.79 L 478.23 355.88 L 478.97 353.21 L 479.84 350.76 L 481.69 345.68 L 482.47 342.85 L 483.11 339.32 L 483.45 335.47 L 483.45 330.40 L 486.74 324.46 L 489.66 319.35 L 490.92 317.18 L 507.04 283.88 Z" fill="#0b224e" fill-rule="nonzero" group-id="6,11" id="Path" node-id="76" stroke="none" target-height="72.00568" target-width="36.18033" target-x="470.86124" target-y="283.87903"></path><path d="M 503.26 322.96 L 503.95 319.19 L 504.84 315.86 L 506.92 309.46 L 507.90 306.25 L 508.73 302.75 L 509.29 299.07 L 509.51 294.70 L 509.32 291.73 L 508.87 289.20 L 507.68 285.34 L 507.04 283.88 L 486.05 283.88 L 485.80 287.68 L 485.66 291.70 L 485.67 297.56 L 485.94 303.88 L 486.63 311.22 L 487.80 318.70 L 489.63 326.37 L 490.61 328.88 L 492.40 332.28 L 494.55 335.77 L 497.07 339.54 L 502.18 346.62 L 506.31 351.99 L 508.00 354.12 L 515.22 352.59 L 513.36 347.09 L 511.78 341.89 L 510.18 336.78 L 508.39 331.96 L 506.98 328.86 L 505.28 325.87 L 503.26 322.96 Z" fill="#102b5e" fill-rule="nonzero" group-id="6,11" id="Path" node-id="77" stroke="none" target-height="70.244446" target-width="29.560211" target-x="485.6644" target-y="283.87994"></path><path d="M 517.99 249.39 L 517.94 247.23 L 517.51 245.54 L 516.77 244.22 L 515.15 242.61 L 513.18 241.53 L 511.02 240.84 L 509.05 240.50 L 506.25 240.33 L 505.48 240.56 L 504.07 241.46 L 502.60 242.67 L 500.87 244.32 L 499.81 245.38 L 498.27 246.61 L 494.84 249.15 L 493.15 250.51 L 491.75 251.86 L 490.67 253.32 L 490.18 254.68 L 490.09 256.40 L 490.22 258.87 L 490.47 264.83 L 490.29 268.23 L 489.69 272.05 L 487.83 278.00 L 486.54 282.26 L 486.05 283.88 L 507.04 283.88 L 506.75 281.83 L 506.58 279.79 L 506.57 277.16 L 506.87 274.51 L 507.60 272.06 L 508.52 270.27 L 509.94 267.94 L 513.23 262.63 L 514.85 259.62 L 516.30 256.36 L 517.39 252.96 L 517.99 249.39 Z" fill="#ffcb01" fill-rule="nonzero" group-id="6,11" id="Path" node-id="78" stroke="none" target-height="43.548294" target-width="31.940643" target-x="486.054" target-y="240.33257"></path><path d="M 510.31 253.35 L 510.03 255.33 L 509.58 257.38 L 508.69 260.33 L 507.42 263.41 L 505.49 266.93 L 503.93 269.19 L 502.00 271.45 L 499.66 273.72 L 497.10 275.72 L 494.03 277.57 L 490.41 279.27 L 487.04 280.60 L 488.09 277.16 L 489.40 272.96 L 505.28 262.68 L 506.22 261.08 L 508.26 257.40 L 510.31 253.35 Z" fill="#f0b701" fill-rule="nonzero" group-id="6,11" id="Path" node-id="79" stroke="none" target-height="27.245789" target-width="23.26413" target-x="487.04184" target-y="253.3501"></path><path d="M 505.28 262.68 L 504.15 264.08 L 501.23 267.41 L 497.21 271.35 L 494.97 273.16 L 492.79 274.56 L 486.88 277.44 L 481.93 279.33 L 477.29 280.70 L 474.17 281.39 L 471.20 281.84 L 469.24 282.28 L 464.82 282.91 L 462.32 282.96 L 460.09 282.66 L 458.76 282.18 L 457.83 281.45 L 457.21 280.46 L 457.18 280.04 L 457.42 279.80 L 458.05 279.71 L 461.24 279.92 L 463.40 279.95 L 466.04 279.69 L 466.66 279.41 L 466.73 279.07 L 466.08 278.07 L 465.20 276.99 L 465.08 276.51 L 465.25 276.23 L 465.79 276.08 L 466.87 276.28 L 468.68 277.27 L 469.59 277.61 L 471.00 277.65 L 473.17 277.23 L 476.43 276.07 L 480.55 274.06 L 484.67 271.54 L 488.97 268.38 L 492.71 265.05 L 495.14 262.41 L 497.05 259.87 L 498.03 258.24 L 498.74 256.67 L 505.28 262.68 Z" fill="#f1b282" fill-rule="nonzero" group-id="6,11" id="Path" node-id="80" stroke="none" target-height="26.292816" target-width="48.098755" target-x="457.1841" target-y="256.66833"></path><path d="M 502.29 220.51 L 501.36 220.31 L 500.54 219.97 L 499.65 219.29 L 499.01 218.31 L 498.73 216.74 L 499.01 215.23 L 499.77 213.83 L 501.07 212.49 L 502.65 211.40 L 504.51 210.53 L 506.67 209.88 L 508.90 209.54 L 511.12 209.54 L 513.35 209.90 L 515.44 210.65 L 517.29 211.85 L 518.93 213.54 L 520.85 216.54 L 522.35 219.67 L 524.78 226.06 L 526.02 229.15 L 527.45 231.99 L 529.25 234.57 L 531.58 236.78 L 533.04 238.31 L 533.93 240.01 L 534.30 241.95 L 534.22 243.98 L 533.76 246.04 L 532.89 248.16 L 531.73 250.15 L 530.36 251.89 L 528.78 253.42 L 526.99 254.65 L 525.20 255.40 L 523.39 255.71 L 520.62 255.45 L 517.95 254.57 L 515.49 253.18 L 513.39 251.39 L 511.72 249.26 L 510.66 246.97 L 510.31 245.35 L 510.33 243.75 L 510.71 242.11 L 512.40 237.07 L 513.09 234.53 L 513.53 232.36 L 513.67 230.37 L 513.42 229.15 L 513.03 228.62 L 512.41 228.43 L 511.42 228.60 L 510.45 228.75 L 509.72 228.53 L 509.15 227.95 L 508.46 226.71 L 507.77 225.03 L 506.99 223.34 L 505.93 221.86 L 505.04 221.12 L 503.86 220.66 L 502.29 220.51 Z" fill="#0b224e" fill-rule="nonzero" group-id="6,11" id="Path" node-id="81" stroke="none" target-height="46.174973" target-width="35.574707" target-x="498.72614" target-y="209.53722"></path></g></g><g node-id="112"><path d="M 159.46 74.04 L 176.06 92.28 L 176.31 92.70 L 176.38 93.16 L 176.27 93.62 L 175.98 94.01 L 175.98 94.01 L 175.56 94.26 L 175.09 94.33 L 174.64 94.22 L 174.24 93.93 L 157.64 75.69 L 157.39 75.27 L 157.32 74.81 L 157.43 74.36 L 157.73 73.96 L 157.73 73.96 L 158.15 73.71 L 158.61 73.64 L 159.06 73.75 L 159.46 74.04 Z" fill="#1277d7" fill-rule="nonzero" group-id="7" id="Path" node-id="83" stroke="none" target-height="20.68843" target-width="19.053955" target-x="157.32472" target-y="73.64163"></path><path d="M 200.30 135.55 L 204.15 140.91 L 198.09 146.54 L 194.06 140.32 Z" fill="#f1b282" fill-rule="nonzero" group-id="7" id="Path" node-id="84" stroke="none" target-height="10.987366" target-width="10.093063" target-x="194.05922" target-y="135.54831"></path><path d="M 162.81 137.88 L 157.12 144.71 L 151.17 140.05 L 157.45 133.92 Z" fill="#f1b282" fill-rule="nonzero" group-id="7" id="Path" node-id="85" stroke="none" target-height="10.78949" target-width="11.632065" target-x="151.17448" target-y="133.91571"></path><path d="M 185.69 109.93 L 163.08 139.07 L 156.85 133.74 L 158.03 131.39 L 161.06 125.43 L 165.19 117.47 L 169.68 109.14 L 173.78 102.06 L 175.59 99.30 L 176.73 97.86 L 177.89 97.00 L 178.96 96.68 L 180.01 96.82 L 181.02 97.32 L 182.01 98.16 L 183.01 99.41 L 184.19 101.59 L 185.11 104.25 L 185.63 107.07 L 185.69 109.93 Z" fill="#0b224e" fill-rule="nonzero" group-id="7" id="Path" node-id="86" stroke="none" target-height="42.39354" target-width="28.84108" target-x="156.85048" target-y="96.6808"></path><path d="M 226.90 100.61 L 226.33 99.54 L 225.35 98.49 L 223.85 97.46 L 221.31 96.21 L 218.20 95.09 L 214.97 94.18 L 211.84 93.46 L 206.64 92.51 L 204.49 92.21 L 200.97 92.12 L 194.90 92.30 L 191.37 92.60 L 187.66 93.09 L 184.01 93.82 L 180.69 94.80 L 177.66 96.15 L 175.38 97.77 L 174.21 99.11 L 173.47 100.61 L 173.14 102.33 L 173.26 103.92 L 173.70 105.94 L 174.57 108.47 L 176.22 112.24 L 178.44 116.55 L 183.56 125.20 L 188.70 133.06 L 192.67 138.78 L 194.26 140.98 L 200.47 137.20 L 199.89 135.19 L 198.28 130.03 L 195.87 123.04 L 192.84 115.53 L 191.13 111.93 L 189.42 108.82 L 193.29 109.56 L 199.37 110.36 L 206.24 110.89 L 215.49 111.11 L 218.47 110.94 L 220.74 110.56 L 222.44 110.01 L 224.04 109.20 L 225.19 108.33 L 225.99 107.40 L 226.84 105.82 L 227.21 104.30 L 227.27 102.81 L 227.15 101.70 L 226.90 100.61 Z" fill="#102b5e" fill-rule="nonzero" group-id="7" id="Path" node-id="87" stroke="none" target-height="48.861794" target-width="54.128067" target-x="173.14366" target-y="92.12127"></path><path d="M 229.91 99.37 L 228.61 94.33 L 227.97 90.47 L 227.71 86.86 L 227.78 83.87 L 228.40 78.18 L 228.70 75.32 L 228.84 72.00 L 228.72 68.46 L 228.16 63.92 L 227.25 60.04 L 226.15 57.04 L 224.88 54.75 L 223.29 52.65 L 221.74 51.10 L 220.23 50.01 L 217.84 48.79 L 216.07 48.24 L 214.27 47.98 L 211.03 49.54 L 208.44 51.25 L 206.41 53.09 L 204.63 55.20 L 203.29 57.21 L 202.34 59.15 L 201.33 62.10 L 200.93 64.24 L 200.85 66.18 L 200.97 68.51 L 201.47 73.30 L 201.78 77.66 L 201.55 84.75 L 201.44 87.50 L 201.50 89.47 L 201.86 91.19 L 202.59 92.49 L 203.76 93.51 L 205.77 94.48 L 207.52 94.86 L 211.25 95.84 L 213.44 96.58 L 215.70 97.52 L 217.83 98.67 L 219.61 100.01 L 221.68 101.67 L 223.72 102.89 L 225.80 103.74 L 227.50 104.05 L 228.56 103.97 L 229.33 103.63 L 229.91 103.03 L 230.21 102.25 L 230.25 101.09 L 229.91 99.37 Z" fill="#1b90fb" fill-rule="nonzero" group-id="7" id="Path" node-id="88" stroke="none" target-height="56.076805" target-width="29.403885" target-x="200.84933" target-y="47.97773"></path><path d="M 221.47 82.28 L 220.15 83.40 L 217.98 84.84 L 212.71 87.73 L 206.91 90.37 L 201.85 92.21 L 201.74 92.00 L 201.21 90.43 L 200.96 88.40 L 200.96 86.23 L 201.14 83.69 L 201.38 81.45 L 201.78 77.65 L 205.61 76.03 L 209.14 73.89 L 212.43 71.42 L 215.37 68.96 L 220.53 64.73 L 222.14 63.72 L 223.50 63.19 L 224.66 63.04 L 224.95 65.24 L 225.12 67.50 L 225.16 70.52 L 224.93 73.67 L 224.32 76.87 L 223.64 78.92 L 222.69 80.71 L 221.47 82.28 Z" fill="#1277d7" fill-rule="nonzero" group-id="7" id="Path" node-id="89" stroke="none" target-height="29.168903" target-width="24.202637" target-x="200.95616" target-y="63.038013"></path><path d="M 199.70 94.66 L 175.03 94.66 L 174.55 94.56 L 174.16 94.30 L 173.90 93.91 L 173.80 93.43 L 173.80 93.43 L 173.90 92.95 L 174.16 92.57 L 174.55 92.30 L 175.03 92.21 L 199.70 92.21 L 200.19 92.30 L 200.57 92.57 L 200.83 92.95 L 200.93 93.43 L 200.93 93.43 L 200.83 93.91 L 200.57 94.30 L 200.19 94.56 L 199.70 94.66 Z" fill="#1b90fb" fill-rule="nonzero" group-id="7" id="Path" node-id="90" stroke="none" target-height="2.452034" target-width="27.131882" target-x="173.79924" target-y="92.20692"></path><path d="M 192.82 85.65 L 191.34 85.48 L 189.87 85.43 L 188.01 85.56 L 186.18 85.97 L 184.53 86.76 L 183.12 87.90 L 182.03 89.09 L 181.20 90.34 L 180.85 91.29 L 180.93 92.03 L 181.54 92.34 L 183.67 92.56 L 184.59 92.56 L 185.98 92.34 L 186.80 92.00 L 187.16 91.62 L 187.88 90.74 L 188.54 90.45 L 190.09 90.26 L 191.75 90.03 L 192.86 89.60 L 193.75 88.99 L 194.24 88.47 L 194.62 87.87 L 194.53 87.33 L 194.05 86.31 L 193.57 85.89 L 192.82 85.65 Z" fill="#f1b282" fill-rule="nonzero" group-id="7" id="Path" node-id="91" stroke="none" target-height="7.1287384" target-width="13.768234" target-x="180.8511" target-y="85.43472"></path><path d="M 213.60 62.29 L 213.53 66.59 L 213.22 68.73 L 212.33 71.06 L 211.43 72.51 L 210.00 74.16 L 207.89 76.06 L 205.40 77.85 L 202.69 79.49 L 197.40 82.17 L 193.28 83.91 L 191.62 84.53 L 194.94 90.26 L 197.26 89.53 L 202.90 87.65 L 209.89 85.13 L 216.24 82.43 L 218.75 81.05 L 219.99 80.06 L 221.00 78.58 L 221.97 76.54 L 222.76 74.31 L 223.43 71.89 L 224.34 67.29 L 224.66 63.89 L 224.37 61.11 L 223.59 58.64 L 222.39 56.46 L 220.99 54.87 L 219.88 54.08 L 218.84 53.66 L 217.81 53.57 L 216.85 53.81 L 215.93 54.48 L 215.03 55.71 L 214.42 57.14 L 213.92 59.27 L 213.60 62.29 Z" fill="#1b90fb" fill-rule="nonzero" group-id="7" id="Path" node-id="92" stroke="none" target-height="36.698097" target-width="33.045715" target-x="191.61609" target-y="53.56501"></path><path d="M 192.23 34.41 L 192.21 35.78 L 192.39 36.73 L 193.03 38.20 L 193.48 39.31 L 193.50 40.78 L 193.46 42.54 L 193.67 43.89 L 193.96 44.24 L 194.39 44.44 L 195.46 44.69 L 196.00 44.91 L 196.52 45.31 L 197.59 47.25 L 198.20 48.22 L 199.24 48.97 L 200.20 49.13 L 201.43 49.00 L 203.82 48.50 L 204.80 48.49 L 205.30 48.82 L 206.18 50.86 L 206.66 52.83 L 207.04 56.29 L 207.23 57.58 L 207.51 58.09 L 207.93 57.98 L 209.37 57.02 L 212.76 54.12 L 214.47 52.35 L 215.73 50.76 L 216.36 49.63 L 216.51 48.87 L 216.34 48.34 L 213.80 45.07 L 212.97 43.48 L 212.37 41.41 L 211.42 38.01 L 210.61 35.82 L 209.60 33.52 L 208.39 31.36 L 207.11 29.68 L 206.12 28.80 L 205.15 28.34 L 204.18 28.23 L 201.96 28.61 L 199.31 29.34 L 196.73 30.34 L 194.55 31.53 L 193.29 32.51 L 192.56 33.46 L 192.23 34.41 Z" fill="#f1b282" fill-rule="nonzero" group-id="7" id="Path" node-id="93" stroke="none" target-height="29.855223" target-width="24.292679" target-x="192.21468" target-y="28.233759"></path><path d="M 215.60 31.26 L 215.91 35.12 L 215.80 37.94 L 215.33 40.43 L 214.70 42.01 L 213.84 43.18 L 213.05 43.65 L 212.23 43.52 L 211.06 42.66 L 208.64 39.96 L 206.24 37.28 L 205.11 36.46 L 204.33 36.39 L 203.65 36.79 L 202.93 37.40 L 201.58 38.59 L 200.92 38.90 L 200.34 38.84 L 199.97 38.40 L 199.66 37.55 L 199.36 36.65 L 198.93 35.91 L 198.27 35.52 L 197.07 35.68 L 194.34 36.49 L 192.51 36.60 L 190.96 36.21 L 189.87 35.43 L 189.05 34.34 L 188.43 33.01 L 188.34 31.34 L 188.76 29.73 L 189.73 28.11 L 191.04 26.68 L 192.74 25.32 L 194.89 24.02 L 196.80 23.05 L 198.75 22.23 L 200.74 21.76 L 202.63 21.83 L 203.79 22.23 L 204.93 23.04 L 206.08 24.37 L 207.37 23.98 L 208.66 23.81 L 210.31 23.91 L 211.39 24.22 L 212.45 24.82 L 213.52 25.80 L 214.34 26.98 L 215.05 28.74 L 215.60 31.26 Z" fill="#0b224e" fill-rule="nonzero" group-id="7" id="Path" node-id="94" stroke="none" target-height="21.889654" target-width="27.571808" target-x="188.34155" target-y="21.75789"></path><path d="M 206.46 51.89 L 206.01 50.36 L 205.30 48.82 L 204.76 48.48 L 203.68 48.52 L 201.11 49.05 L 202.57 48.74 L 204.88 48.08 L 206.06 47.61 L 206.97 47.09 L 207.18 47.75 L 207.29 49.47 L 207.06 50.56 L 206.46 51.89 Z" fill="#cd916a" fill-rule="nonzero" group-id="7" id="Path" node-id="95" stroke="none" target-height="4.7988205" target-width="6.171982" target-x="201.11392" target-y="47.09352"></path><path d="M 154.68 133.48 L 154.64 134.40 L 154.93 135.15 L 156.12 136.40 L 157.43 137.46 L 159.27 139.03 L 161.72 140.63 L 162.84 140.98 L 163.44 140.77 L 163.97 139.90 L 164.28 139.07 L 164.93 137.54 L 165.82 136.75 L 166.67 135.92 L 166.85 135.44 L 166.73 134.82 L 166.07 133.99 L 165.01 133.36 L 162.79 132.34 L 161.49 131.07 L 159.88 129.34 L 159.11 128.72 L 158.68 128.63 L 158.23 129.03 L 157.88 129.70 L 157.21 131.00 L 155.76 132.02 L 155.13 132.56 L 154.68 133.48 Z" fill="#355aa2" fill-rule="nonzero" group-id="7" id="Path" node-id="96" stroke="none" target-height="12.344147" target-width="12.210739" target-x="154.63705" target-y="128.63477"></path><path d="M 202.78 136.55 L 202.68 137.46 L 202.27 138.15 L 200.90 139.20 L 199.44 140.05 L 197.37 141.31 L 194.70 142.51 L 193.55 142.68 L 192.98 142.37 L 192.59 141.43 L 192.42 140.56 L 192.02 138.95 L 191.26 138.03 L 190.55 137.08 L 190.45 136.57 L 190.66 135.98 L 191.45 135.27 L 192.59 134.81 L 194.94 134.15 L 196.43 133.10 L 198.29 131.64 L 199.15 131.15 L 199.58 131.13 L 199.97 131.59 L 200.21 132.31 L 200.66 133.70 L 201.94 134.93 L 202.48 135.57 L 202.78 136.55 Z" fill="#355aa2" fill-rule="nonzero" group-id="7" id="Path" node-id="97" stroke="none" target-height="11.543167" target-width="12.327393" target-x="190.45248" target-y="131.13268"></path><path d="M 203.13 139.70 L 203.67 139.47 L 204.60 139.66 L 205.60 140.28 L 207.00 141.68 L 208.71 143.67 L 209.33 144.59 L 209.61 145.40 L 209.52 146.19 L 208.87 147.09 L 205.99 148.91 L 200.96 151.82 L 198.23 153.53 L 195.75 155.27 L 194.36 156.06 L 192.71 156.55 L 190.98 156.72 L 189.33 156.57 L 188.75 156.29 L 188.43 155.77 L 188.45 155.17 L 188.82 154.69 L 191.68 152.71 L 192.56 151.95 L 193.23 151.09 L 194.54 148.20 L 195.30 146.21 L 195.69 145.43 L 196.06 144.98 L 197.24 144.43 L 198.62 144.08 L 199.35 143.75 L 200.22 143.12 L 201.31 142.00 L 201.93 141.19 L 203.13 139.70 Z" fill="#0b224e" fill-rule="nonzero" group-id="7" id="Path" node-id="98" stroke="none" target-height="17.24945" target-width="21.185516" target-x="188.42734" target-y="139.46693"></path><path d="M 160.04 141.84 L 160.49 142.23 L 160.74 143.15 L 160.63 144.32 L 160.02 146.20 L 159.01 148.62 L 158.47 149.59 L 157.87 150.20 L 157.12 150.48 L 156.03 150.30 L 153.11 148.56 L 148.23 145.39 L 145.47 143.73 L 142.80 142.31 L 141.46 141.42 L 140.28 140.17 L 139.35 138.71 L 138.73 137.17 L 138.72 136.53 L 139.04 136.01 L 139.59 135.76 L 140.18 135.87 L 143.24 137.53 L 144.32 137.97 L 145.40 138.18 L 148.56 138.04 L 150.68 137.81 L 151.56 137.81 L 152.13 137.93 L 153.15 138.74 L 154.09 139.81 L 154.71 140.31 L 155.67 140.80 L 157.16 141.27 L 158.16 141.45 L 160.04 141.84 Z" fill="#0b224e" fill-rule="nonzero" group-id="7" id="Path" node-id="99" stroke="none" target-height="14.716675" target-width="22.014648" target-x="138.72238" target-y="135.75967"></path></g></svg>