<?xml version="1.0" standalone="no"?><!DOCTYPE svg PUBLIC "-//W3C//DTD SVG 1.1//EN" "http://www.w3.org/Graphics/SVG/1.1/DTD/svg11.dtd"><svg height="400" node-id="1" sillyvg="true" template-height="400" template-width="600" version="1.1" viewBox="0 0 600 400" width="600" xmlns="http://www.w3.org/2000/svg" xmlns:xlink="http://www.w3.org/1999/xlink"><defs node-id="115"></defs><path d="M 0.00 0.00 L 600.00 0.00 L 600.00 400.00 L 0.00 400.00 Z" fill="#ffffff" fill-opacity="0" fill-rule="nonzero" node-id="118" stroke="none" target-height="400" target-width="600" target-x="0" target-y="0"></path><g node-id="120"><path d="M 82.65 300.50 L 85.42 302.00 L 89.37 304.64 L 93.51 307.76 L 98.31 311.69 L 103.15 315.93 L 108.15 320.61 L 113.01 325.48 L 117.56 330.39 L 121.78 335.38 L 125.23 339.99 L 127.29 343.15 L 128.80 345.94 L 129.85 348.39 L 130.52 350.92 L 130.56 352.93 L 130.10 354.56 L 129.43 355.36 L 128.37 355.79 L 126.75 355.82 L 123.93 355.31 L 119.42 354.12 L 114.30 352.73 L 107.24 351.03 L 99.43 349.52 L 89.34 348.13 L 82.34 347.49 L 74.22 347.09 L 64.86 346.98 L 60.76 346.74 L 56.94 346.00 L 53.35 344.76 L 49.99 343.03 L 47.04 340.86 L 44.47 338.26 L 42.85 336.05 L 41.52 333.63 L 40.49 330.96 L 39.76 328.01 L 39.41 325.06 L 39.44 321.87 L 39.87 318.39 L 40.77 314.58 L 42.18 310.96 L 43.96 307.90 L 46.11 305.34 L 48.64 303.13 L 51.41 301.32 L 54.44 299.88 L 57.64 298.81 L 60.92 298.07 L 64.29 297.64 L 69.36 297.55 L 74.19 298.04 L 78.79 299.07 L 82.65 300.50 Z" fill="#44d690" fill-rule="nonzero" group-id="1" id="Path" node-id="7" stroke="none" target-height="58.26758" target-width="91.151505" target-x="39.407307" target-y="297.54926"></path><path d="M 131.32 355.71 L 131.13 355.60 L 129.39 353.24 L 127.36 350.86 L 123.99 347.38 L 120.00 343.80 L 114.56 339.62 L 110.93 337.19 L 106.49 334.58 L 101.13 331.80 L 95.66 329.36 L 89.32 327.00 L 81.99 324.75 L 74.58 322.97 L 66.21 321.54 L 56.77 320.51 L 56.56 320.26 L 56.80 320.06 L 66.28 321.10 L 74.69 322.53 L 82.13 324.32 L 89.49 326.58 L 95.86 328.95 L 101.36 331.41 L 106.73 334.20 L 111.19 336.82 L 114.84 339.27 L 120.32 343.47 L 124.33 347.07 L 127.72 350.58 L 129.76 352.98 L 131.51 355.36 L 131.44 355.68 L 131.32 355.71 Z" fill="#f3f9ff" fill-rule="nonzero" group-id="1" id="Path" node-id="8" stroke="none" target-height="35.652405" target-width="74.95183" target-x="56.559174" target-y="320.0575"></path><path d="M 65.47 303.32 L 68.65 306.88 L 73.34 311.49 L 78.58 316.20 L 84.79 321.39 L 91.34 326.50 L 98.27 331.57 L 105.35 336.36 L 112.22 340.59 L 119.08 344.32 L 125.10 347.04 L 129.16 348.45 L 132.54 349.21 L 135.35 349.46 L 137.43 349.26 L 139.08 348.67 L 140.39 347.74 L 141.41 346.42 L 141.93 345.04 L 142.19 343.26 L 142.14 340.98 L 141.67 338.07 L 140.73 334.41 L 139.28 330.08 L 137.23 324.99 L 133.73 317.36 L 129.33 308.73 L 124.52 299.98 L 119.20 290.85 L 113.68 281.77 L 108.09 272.90 L 97.23 256.45 L 87.85 243.05 L 81.21 234.25 L 77.73 230.47 L 74.36 227.61 L 71.08 225.56 L 68.39 224.35 L 65.85 223.60 L 63.44 223.25 L 61.11 223.28 L 58.81 223.69 L 56.67 224.47 L 54.66 225.63 L 52.76 227.21 L 51.17 229.03 L 49.75 231.25 L 48.51 233.92 L 47.49 237.13 L 46.41 242.26 L 45.75 247.20 L 45.48 251.98 L 45.58 256.62 L 46.24 262.81 L 47.40 268.71 L 49.05 274.37 L 51.14 279.88 L 53.53 285.10 L 56.22 290.04 L 59.21 294.82 L 62.29 299.24 L 65.47 303.32 Z" fill="#8ae6b9" fill-rule="nonzero" group-id="1" id="Path" node-id="9" stroke="none" target-height="126.20485" target-width="96.71663" target-x="45.477276" target-y="223.25279"></path><path d="M 143.05 348.01 L 142.92 347.96 L 138.59 344.61 L 127.62 335.42 L 120.58 329.11 L 112.18 321.13 L 103.65 312.47 L 94.49 302.46 L 88.52 295.47 L 82.60 288.03 L 76.73 280.13 L 71.17 272.02 L 65.96 263.61 L 61.09 254.88 L 61.18 254.58 L 61.48 254.67 L 66.35 263.38 L 71.55 271.78 L 77.10 279.88 L 82.96 287.76 L 88.87 295.19 L 94.83 302.17 L 103.98 312.16 L 112.50 320.81 L 120.88 328.77 L 127.91 335.08 L 138.86 344.25 L 143.18 347.60 L 143.23 347.92 L 143.05 348.01 Z" fill="#f3f9ff" fill-rule="nonzero" group-id="1" id="Path" node-id="10" stroke="none" target-height="93.4281" target-width="82.14389" target-x="61.086" target-y="254.57971"></path><path d="M 101.72 282.42 L 103.03 286.44 L 105.07 291.77 L 107.45 297.39 L 110.34 303.70 L 113.46 310.09 L 116.83 316.57 L 120.34 322.92 L 123.82 328.75 L 127.39 334.21 L 130.61 338.58 L 132.90 341.27 L 134.85 343.17 L 136.50 344.44 L 137.89 345.15 L 139.00 345.37 L 139.95 345.21 L 140.79 344.68 L 141.51 343.61 L 142.18 341.69 L 142.71 338.54 L 143.04 333.53 L 143.03 326.71 L 142.70 319.41 L 142.08 310.93 L 141.25 302.19 L 140.20 292.93 L 137.73 274.45 L 135.01 257.23 L 132.38 242.99 L 131.12 237.19 L 130.16 233.47 L 128.07 227.06 L 125.80 221.74 L 123.96 218.46 L 122.09 215.93 L 120.17 214.05 L 118.52 212.94 L 116.83 212.28 L 115.05 212.03 L 113.15 212.21 L 111.38 212.77 L 109.40 213.84 L 107.16 215.55 L 104.61 218.04 L 102.56 220.77 L 100.82 224.04 L 99.40 227.92 L 98.38 231.95 L 97.63 236.35 L 97.16 241.13 L 96.95 248.37 L 97.24 255.84 L 97.95 263.25 L 98.98 270.21 L 100.30 276.88 L 101.72 282.42 Z" fill="#1eaf69" fill-rule="nonzero" group-id="1" id="Path" node-id="11" stroke="none" target-height="133.33578" target-width="46.088226" target-x="96.951935" target-y="212.03482"></path><path d="M 141.54 346.64 L 141.33 346.50 L 139.53 342.03 L 135.06 330.21 L 128.94 312.59 L 125.66 302.29 L 122.24 290.73 L 119.02 278.79 L 115.99 266.18 L 113.36 253.39 L 111.23 240.51 L 111.42 240.26 L 111.68 240.45 L 113.80 253.31 L 116.43 266.09 L 119.46 278.69 L 122.68 290.61 L 126.09 302.16 L 129.37 312.45 L 135.48 330.05 L 139.95 341.86 L 141.75 346.33 L 141.63 346.62 L 141.54 346.64 Z" fill="#f3f9ff" fill-rule="nonzero" group-id="1" id="Path" node-id="12" stroke="none" target-height="106.38057" target-width="30.515404" target-x="111.2331" target-y="240.25945"></path></g><g node-id="121"><path d="M 507.17 290.28 L 506.07 293.60 L 504.09 298.38 L 501.72 303.46 L 498.78 309.21 L 495.60 314.98 L 492.23 320.65 L 488.70 326.08 L 485.40 330.63 L 483.05 333.47 L 481.02 335.56 L 479.27 337.03 L 477.78 337.93 L 476.61 338.27 L 475.65 338.20 L 474.81 337.78 L 474.36 337.17 L 474.08 336.13 L 474.06 334.43 L 474.36 331.59 L 475.07 327.09 L 476.92 314.90 L 477.83 307.08 L 478.66 296.98 L 479.18 286.04 L 479.35 272.47 L 479.49 268.34 L 479.94 264.50 L 480.67 260.95 L 481.75 257.49 L 483.05 254.54 L 484.57 252.05 L 486.44 249.87 L 488.47 248.33 L 490.70 247.34 L 492.46 246.99 L 494.35 247.01 L 496.43 247.45 L 498.74 248.35 L 500.82 249.69 L 502.66 251.46 L 504.27 253.70 L 505.56 256.16 L 506.65 258.93 L 507.53 262.04 L 508.42 266.84 L 508.88 271.90 L 508.93 276.98 L 508.64 281.81 L 508.01 286.44 L 507.17 290.28 Z" fill="#1b90fb" fill-rule="nonzero" group-id="2" id="Path" node-id="14" stroke="none" target-height="91.28105" target-width="34.87726" target-x="474.05524" target-y="246.9875"></path><path d="M 474.25 339.23 L 474.10 339.17 L 474.09 338.85 L 476.11 336.25 L 478.05 333.28 L 480.85 328.22 L 483.59 322.31 L 486.69 314.04 L 488.51 308.18 L 490.28 301.21 L 491.98 293.00 L 493.30 284.75 L 494.35 275.25 L 495.10 264.37 L 495.34 264.16 L 495.55 264.39 L 494.93 273.91 L 494.07 282.32 L 493.00 289.74 L 490.94 300.45 L 488.76 308.97 L 486.28 316.73 L 484.06 322.47 L 481.53 327.98 L 479.38 331.97 L 477.27 335.38 L 475.85 337.40 L 474.42 339.16 L 474.25 339.23 Z" fill="#f3f9ff" fill-rule="nonzero" group-id="2" id="Path" node-id="15" stroke="none" target-height="75.07117" target-width="21.45871" target-x="474.0924" target-y="264.1587"></path><path d="M 505.48 273.08 L 503.36 276.24 L 500.59 280.96 L 497.78 286.19 L 494.66 292.42 L 491.61 298.95 L 488.57 305.92 L 485.71 312.98 L 483.17 319.89 L 480.95 326.71 L 479.31 332.78 L 478.47 336.81 L 478.01 340.20 L 477.86 343.04 L 478.10 345.84 L 478.73 347.79 L 479.68 349.11 L 480.66 349.68 L 481.90 349.91 L 483.52 349.73 L 485.64 349.00 L 488.26 347.67 L 491.39 345.71 L 495.14 342.97 L 500.61 338.44 L 506.76 332.87 L 512.90 326.92 L 519.14 320.56 L 525.23 314.09 L 530.86 307.88 L 540.56 296.69 L 546.83 288.84 L 549.03 285.46 L 550.75 282.08 L 552.03 278.69 L 552.91 275.19 L 553.36 271.87 L 553.39 268.72 L 553.00 265.59 L 552.21 262.83 L 551.04 260.36 L 549.45 258.17 L 547.48 256.42 L 545.10 255.07 L 542.00 253.99 L 539.03 253.33 L 536.19 253.06 L 533.43 253.17 L 529.77 253.82 L 526.24 254.97 L 522.81 256.64 L 519.56 258.69 L 516.44 261.08 L 513.43 263.82 L 509.26 268.30 L 505.48 273.08 Z" fill="#49adea" fill-rule="nonzero" group-id="2" id="Path" node-id="16" stroke="none" target-height="96.844284" target-width="75.52649" target-x="477.86157" target-y="253.06361"></path><path d="M 478.86 350.97 L 478.77 350.96 L 478.66 350.66 L 480.61 346.44 L 486.04 335.54 L 489.79 328.52 L 494.49 320.22 L 498.05 314.28 L 502.22 307.67 L 506.68 301.00 L 511.62 294.10 L 516.86 287.31 L 522.44 280.71 L 528.32 274.43 L 534.39 268.72 L 534.70 268.74 L 534.68 269.06 L 528.63 274.75 L 522.76 281.01 L 517.21 287.60 L 511.98 294.37 L 507.05 301.27 L 502.59 307.92 L 498.43 314.51 L 494.89 320.44 L 490.19 328.73 L 486.44 335.74 L 481.02 346.62 L 479.07 350.84 L 478.86 350.97 Z" fill="#f3f9ff" fill-rule="nonzero" group-id="2" id="Path" node-id="17" stroke="none" target-height="82.2525" target-width="56.04477" target-x="478.6581" target-y="268.72244"></path><path d="M 517.99 309.37 L 515.17 310.93 L 511.28 313.49 L 507.23 316.46 L 502.70 320.07 L 498.19 323.92 L 493.79 327.98 L 489.63 332.16 L 486.12 336.10 L 483.12 340.06 L 481.24 343.31 L 480.46 345.50 L 480.33 347.17 L 480.72 348.48 L 481.53 349.34 L 482.95 350.04 L 485.22 350.55 L 488.94 350.78 L 493.98 350.57 L 499.33 350.00 L 505.44 349.07 L 511.66 347.91 L 518.05 346.54 L 530.26 343.49 L 540.52 340.42 L 544.69 338.95 L 547.29 337.85 L 551.09 335.78 L 554.31 333.48 L 556.21 331.71 L 557.73 329.84 L 558.92 327.84 L 559.72 325.70 L 560.10 323.37 L 560.02 320.82 L 559.47 318.31 L 558.35 315.48 L 556.52 312.27 L 554.82 310.14 L 552.86 308.42 L 550.61 307.05 L 548.17 306.02 L 545.54 305.27 L 542.70 304.81 L 538.37 304.60 L 533.90 304.89 L 529.48 305.60 L 525.30 306.63 L 521.32 307.95 L 517.99 309.37 Z" fill="#1b90fb" fill-rule="nonzero" group-id="2" id="Path" node-id="18" stroke="none" target-height="46.181824" target-width="79.76184" target-x="480.33472" target-y="304.59836"></path><path d="M 479.68 349.46 L 479.50 349.37 L 479.55 349.05 L 483.32 346.54 L 493.17 340.46 L 499.67 336.75 L 507.48 332.62 L 515.72 328.65 L 524.64 324.83 L 530.75 322.54 L 536.88 320.56 L 543.04 318.90 L 543.31 319.07 L 543.14 319.34 L 537.00 321.00 L 530.89 322.97 L 524.79 325.26 L 515.89 329.06 L 507.67 333.02 L 499.88 337.15 L 493.40 340.84 L 483.57 346.91 L 479.81 349.42 L 479.68 349.46 Z" fill="#f3f9ff" fill-rule="nonzero" group-id="2" id="Path" node-id="19" stroke="none" target-height="30.56424" target-width="63.811768" target-x="479.49872" target-y="318.89966"></path></g><g node-id="122"><path d="M 354.32 58.25 L 353.34 56.71 L 351.96 55.64 L 350.30 55.08 L 348.48 55.12 L 340.75 56.65 L 339.38 56.73 L 338.07 56.47 L 336.86 55.88 L 335.82 54.98 L 333.81 52.83 L 331.69 50.83 L 330.79 49.79 L 330.21 48.58 L 329.94 47.26 L 330.03 45.89 L 331.56 38.18 L 331.60 36.35 L 331.04 34.69 L 329.97 33.31 L 328.43 32.33 L 317.03 27.60 L 315.25 27.20 L 313.51 27.42 L 311.95 28.21 L 310.68 29.52 L 306.31 36.06 L 305.41 37.09 L 304.29 37.84 L 303.03 38.27 L 301.66 38.38 L 298.74 38.29 L 295.80 38.39 L 294.43 38.29 L 293.16 37.85 L 292.05 37.10 L 291.14 36.07 L 286.76 29.52 L 285.50 28.21 L 283.93 27.43 L 282.19 27.21 L 280.41 27.60 L 269.01 32.33 L 267.48 33.31 L 266.40 34.69 L 265.85 36.35 L 265.88 38.18 L 267.41 45.91 L 267.50 47.28 L 267.24 48.60 L 266.65 49.81 L 265.75 50.85 L 263.60 52.87 L 261.60 54.99 L 260.56 55.89 L 259.36 56.47 L 258.04 56.73 L 256.67 56.64 L 248.96 55.12 L 247.14 55.08 L 245.48 55.64 L 244.10 56.71 L 243.12 58.25 L 238.40 69.66 L 238.00 71.44 L 238.22 73.18 L 239.00 74.75 L 240.32 76.01 L 246.85 80.39 L 247.88 81.30 L 248.62 82.41 L 249.06 83.68 L 249.16 85.05 L 249.08 87.97 L 249.17 90.91 L 249.07 92.29 L 248.64 93.56 L 247.89 94.67 L 246.86 95.58 L 240.32 99.97 L 239.00 101.23 L 238.22 102.80 L 238.00 104.54 L 238.40 106.32 L 243.12 117.74 L 244.10 119.27 L 245.48 120.35 L 247.14 120.91 L 248.96 120.87 L 256.69 119.34 L 258.06 119.25 L 259.38 119.51 L 260.58 120.10 L 261.62 121.00 L 263.63 123.15 L 265.76 125.16 L 266.65 126.20 L 267.24 127.40 L 267.50 128.72 L 267.41 130.09 L 265.88 137.81 L 265.85 139.63 L 266.40 141.29 L 267.47 142.68 L 269.01 143.66 L 280.41 148.39 L 282.19 148.78 L 283.93 148.56 L 285.49 147.78 L 286.76 146.46 L 291.13 139.92 L 292.03 138.89 L 293.15 138.15 L 294.41 137.71 L 295.78 137.61 L 298.70 137.69 L 301.64 137.60 L 303.01 137.70 L 304.28 138.13 L 305.39 138.88 L 306.30 139.91 L 310.68 146.46 L 311.94 147.78 L 313.51 148.56 L 315.25 148.78 L 317.03 148.39 L 328.43 143.66 L 329.97 142.68 L 331.04 141.29 L 331.59 139.63 L 331.56 137.81 L 330.03 130.08 L 329.94 128.70 L 330.20 127.38 L 330.79 126.18 L 331.69 125.14 L 333.84 123.12 L 335.84 121.00 L 336.88 120.10 L 338.09 119.51 L 339.40 119.25 L 340.77 119.34 L 348.48 120.87 L 350.30 120.91 L 351.96 120.35 L 353.34 119.28 L 354.32 117.74 L 359.04 106.32 L 359.44 104.54 L 359.22 102.80 L 358.44 101.23 L 357.12 99.97 L 350.59 95.59 L 349.56 94.69 L 348.82 93.57 L 348.38 92.30 L 348.28 90.94 L 348.36 88.02 L 348.27 85.07 L 348.36 83.70 L 348.80 82.43 L 349.55 81.31 L 350.58 80.40 L 357.12 76.02 L 358.43 74.75 L 359.21 73.18 L 359.44 71.45 L 359.04 69.66 L 354.32 58.25 Z M 308.72 112.17 L 305.31 113.32 L 301.93 113.98 L 298.54 114.17 L 295.15 113.92 L 291.89 113.25 L 288.72 112.17 L 285.71 110.69 L 282.93 108.85 L 280.36 106.63 L 278.10 104.10 L 276.17 101.23 L 274.57 98.01 L 273.43 94.59 L 272.77 91.20 L 272.57 87.81 L 272.82 84.42 L 273.49 81.15 L 274.57 77.98 L 276.04 74.97 L 277.88 72.18 L 280.10 69.61 L 282.63 67.35 L 285.49 65.42 L 288.72 63.81 L 292.13 62.67 L 295.52 62.01 L 298.90 61.81 L 302.29 62.06 L 305.56 62.73 L 308.72 63.81 L 311.73 65.29 L 314.51 67.13 L 317.08 69.35 L 319.34 71.89 L 321.27 74.75 L 322.87 77.98 L 324.01 81.39 L 324.67 84.78 L 324.87 88.17 L 324.62 91.57 L 323.95 94.83 L 322.87 98.01 L 321.40 101.02 L 319.56 103.80 L 317.34 106.37 L 314.81 108.63 L 311.95 110.56 L 308.72 112.17 Z" fill="#f3f9ff" fill-rule="nonzero" group-id="3" id="Shape" node-id="21" stroke="none" target-height="121.576775" target-width="121.43263" target-x="238.00368" target-y="27.203835"></path></g><g node-id="123"><path d="M 224.48 129.32 L 222.72 127.86 L 221.26 126.20 L 220.07 124.32 L 219.20 122.27 L 218.67 120.12 L 218.48 117.83 L 218.67 115.55 L 219.20 113.40 L 220.07 111.35 L 221.25 109.47 L 222.72 107.80 L 224.48 106.34 L 227.80 103.84 L 230.42 101.40 L 232.41 99.02 L 233.88 96.68 L 234.89 94.12 L 235.28 91.48 L 235.06 88.71 L 234.17 85.71 L 232.68 82.96 L 230.88 80.84 L 228.74 79.26 L 226.22 78.16 L 223.53 77.54 L 220.44 77.27 L 216.87 77.40 L 212.75 77.98 L 210.47 78.20 L 208.26 78.06 L 206.09 77.56 L 204.03 76.73 L 202.14 75.58 L 200.39 74.10 L 198.91 72.36 L 197.77 70.46 L 196.94 68.40 L 196.44 66.22 L 196.30 64.01 L 196.52 61.73 L 197.10 57.61 L 197.22 54.03 L 196.95 50.94 L 196.34 48.24 L 195.24 45.72 L 193.66 43.58 L 191.54 41.77 L 188.79 40.29 L 185.80 39.39 L 183.03 39.17 L 180.40 39.56 L 177.84 40.57 L 175.50 42.04 L 173.12 44.04 L 170.69 46.66 L 168.18 49.99 L 166.73 51.75 L 165.07 53.22 L 163.18 54.40 L 161.14 55.27 L 158.99 55.80 L 156.71 55.99 L 154.43 55.80 L 152.28 55.27 L 150.23 54.40 L 148.35 53.21 L 146.69 51.75 L 145.23 49.98 L 142.73 46.65 L 140.30 44.04 L 137.92 42.04 L 135.58 40.57 L 133.02 39.56 L 130.39 39.17 L 127.62 39.39 L 124.63 40.29 L 121.88 41.77 L 119.76 43.58 L 118.18 45.72 L 117.08 48.24 L 116.47 50.93 L 116.20 54.03 L 116.32 57.61 L 116.90 61.73 L 117.12 64.01 L 116.98 66.22 L 116.49 68.39 L 115.65 70.46 L 114.51 72.35 L 113.03 74.10 L 111.29 75.58 L 109.39 76.73 L 107.33 77.56 L 105.16 78.06 L 102.95 78.20 L 100.68 77.98 L 96.56 77.40 L 92.99 77.27 L 89.89 77.54 L 87.20 78.16 L 84.68 79.25 L 82.54 80.84 L 80.74 82.96 L 79.25 85.71 L 78.36 88.71 L 78.14 91.48 L 78.53 94.12 L 79.54 96.68 L 81.01 99.02 L 83.00 101.40 L 85.62 103.84 L 88.94 106.34 L 90.71 107.80 L 92.17 109.47 L 93.35 111.35 L 94.22 113.40 L 94.75 115.55 L 94.94 117.83 L 94.75 120.12 L 94.22 122.27 L 93.35 124.32 L 92.17 126.20 L 90.70 127.86 L 88.94 129.32 L 85.62 131.83 L 83.00 134.26 L 81.01 136.65 L 79.54 138.99 L 78.53 141.55 L 78.14 144.18 L 78.36 146.96 L 79.26 149.95 L 80.74 152.70 L 82.54 154.82 L 84.68 156.41 L 87.20 157.50 L 89.89 158.12 L 92.99 158.39 L 96.56 158.27 L 100.68 157.68 L 102.95 157.47 L 105.16 157.61 L 107.33 158.10 L 109.40 158.93 L 111.29 160.08 L 113.04 161.56 L 114.51 163.31 L 115.66 165.20 L 116.49 167.27 L 116.98 169.44 L 117.12 171.65 L 116.90 173.93 L 116.32 178.06 L 116.20 181.63 L 116.47 184.73 L 117.08 187.42 L 118.18 189.95 L 119.77 192.09 L 121.88 193.89 L 124.63 195.38 L 127.62 196.27 L 130.39 196.49 L 133.02 196.10 L 135.58 195.09 L 137.92 193.62 L 140.30 191.62 L 142.74 189.01 L 145.24 185.68 L 146.69 183.91 L 148.35 182.45 L 150.24 181.26 L 152.29 180.39 L 154.43 179.86 L 156.71 179.67 L 158.99 179.86 L 161.14 180.39 L 163.19 181.27 L 165.07 182.45 L 166.73 183.92 L 168.19 185.68 L 170.69 189.01 L 173.12 191.62 L 175.50 193.62 L 177.84 195.09 L 180.40 196.10 L 183.03 196.49 L 185.80 196.27 L 188.79 195.38 L 191.54 193.89 L 193.66 192.09 L 195.24 189.95 L 196.34 187.42 L 196.95 184.73 L 197.22 181.63 L 197.10 178.06 L 196.52 173.93 L 196.30 171.65 L 196.44 169.44 L 196.94 167.27 L 197.77 165.21 L 198.91 163.31 L 200.39 161.56 L 202.13 160.08 L 204.03 158.94 L 206.09 158.10 L 208.26 157.61 L 210.47 157.47 L 212.74 157.68 L 216.86 158.27 L 220.43 158.39 L 223.53 158.12 L 226.22 157.50 L 228.74 156.41 L 230.88 154.82 L 232.68 152.70 L 234.17 149.95 L 235.06 146.96 L 235.28 144.18 L 234.89 141.55 L 233.88 138.99 L 232.41 136.65 L 230.42 134.26 L 227.80 131.83 L 224.48 129.32 Z" fill="#f3f9ff" fill-rule="nonzero" group-id="4" id="Path" node-id="23" stroke="none" target-height="157.32202" target-width="157.14014" target-x="78.14031" target-y="39.17058"></path><path d="M 198.63 117.83 L 198.40 122.19 L 197.77 126.35 L 196.75 130.33 L 195.34 134.17 L 193.55 137.86 L 191.46 141.31 L 189.07 144.52 L 186.35 147.51 L 183.37 150.23 L 180.16 152.62 L 176.72 154.71 L 173.03 156.50 L 169.20 157.91 L 165.22 158.93 L 161.06 159.57 L 156.71 159.80 L 152.36 159.57 L 148.20 158.93 L 144.22 157.91 L 140.39 156.50 L 136.70 154.71 L 133.26 152.62 L 130.06 150.23 L 127.07 147.51 L 124.35 144.52 L 121.96 141.31 L 119.87 137.86 L 118.09 134.17 L 116.68 130.33 L 115.65 126.35 L 115.02 122.19 L 114.79 117.83 L 115.02 113.47 L 115.65 109.31 L 116.68 105.33 L 118.09 101.50 L 119.87 97.80 L 121.96 94.35 L 124.35 91.14 L 127.07 88.16 L 130.06 85.44 L 133.26 83.04 L 136.70 80.95 L 140.39 79.16 L 144.22 77.75 L 148.20 76.73 L 152.36 76.10 L 156.71 75.86 L 161.06 76.10 L 165.22 76.73 L 169.20 77.75 L 173.03 79.16 L 176.72 80.95 L 180.16 83.04 L 183.37 85.44 L 186.35 88.16 L 189.07 91.14 L 191.46 94.35 L 193.55 97.80 L 195.34 101.50 L 196.75 105.33 L 197.77 109.31 L 198.40 113.47 L 198.63 117.83 Z" fill="#dceefd" fill-rule="nonzero" group-id="4" id="Oval" node-id="24" stroke="none" target-height="83.93564" target-width="83.83859" target-x="114.7908" target-y="75.863495"></path><path d="M 198.63 117.83 L 198.40 122.18 L 197.76 126.34 L 196.74 130.32 L 195.33 134.16 L 193.54 137.85 L 191.45 141.30 L 189.06 144.51 L 186.34 147.50 L 183.35 150.22 L 180.15 152.62 L 176.71 154.71 L 173.02 156.50 L 169.19 157.91 L 165.21 158.93 L 161.06 159.57 L 156.71 159.80 L 152.03 159.53 L 147.58 158.80 L 143.33 157.62 L 139.25 155.99 L 135.35 153.93 L 131.75 151.53 L 128.45 148.78 L 125.41 145.67 L 129.27 148.77 L 133.48 151.36 L 138.06 153.48 L 142.85 155.02 L 147.89 155.96 L 153.22 156.30 L 157.56 156.07 L 161.71 155.44 L 165.69 154.41 L 169.52 153.00 L 173.21 151.21 L 176.65 149.12 L 179.86 146.72 L 182.85 144.00 L 185.56 141.01 L 187.96 137.80 L 190.05 134.35 L 191.84 130.66 L 193.25 126.83 L 194.27 122.84 L 194.90 118.69 L 195.14 114.33 L 194.80 109.00 L 193.85 103.96 L 192.31 99.16 L 190.20 94.57 L 187.61 90.36 L 184.52 86.50 L 187.62 89.53 L 190.37 92.84 L 192.76 96.44 L 194.82 100.35 L 196.45 104.44 L 197.63 108.69 L 198.36 113.15 L 198.63 117.83 Z" fill="#f3f9ff" fill-rule="nonzero" group-id="4" id="Path" node-id="25" stroke="none" target-height="73.30335" target-width="73.2186" target-x="125.4099" target-y="86.49578"></path><path d="M 188.01 89.99 L 184.14 86.90 L 179.94 84.30 L 175.36 82.19 L 170.57 80.65 L 165.53 79.70 L 160.20 79.36 L 155.86 79.59 L 151.70 80.23 L 147.73 81.25 L 143.90 82.66 L 140.21 84.45 L 136.77 86.54 L 133.56 88.94 L 130.57 91.66 L 127.85 94.65 L 125.46 97.86 L 123.37 101.31 L 121.58 105.00 L 120.17 108.84 L 119.15 112.82 L 118.52 116.98 L 118.28 121.33 L 118.62 126.66 L 119.57 131.70 L 121.10 136.51 L 123.22 141.09 L 125.81 145.30 L 128.90 149.17 L 125.80 146.13 L 123.05 142.82 L 120.66 139.22 L 118.60 135.31 L 116.97 131.23 L 115.79 126.97 L 115.06 122.52 L 114.79 117.83 L 115.02 113.48 L 115.66 109.32 L 116.68 105.34 L 118.09 101.51 L 119.88 97.81 L 121.96 94.37 L 124.36 91.16 L 127.08 88.17 L 130.07 85.45 L 133.27 83.05 L 136.71 80.95 L 140.40 79.17 L 144.23 77.75 L 148.21 76.73 L 152.36 76.10 L 156.71 75.86 L 161.39 76.14 L 165.84 76.87 L 170.09 78.05 L 174.17 79.68 L 178.07 81.74 L 181.67 84.13 L 184.97 86.88 L 188.01 89.99 Z" fill="#d0e7fe" fill-rule="nonzero" group-id="4" id="Path" node-id="26" stroke="none" target-height="73.303345" target-width="73.2186" target-x="114.7908" target-y="75.864395"></path></g><g node-id="124"><path d="M 492.46 336.35 L 130.28 336.35 L 130.28 109.67 L 130.61 107.26 L 131.51 105.12 L 132.92 103.30 L 134.74 101.89 L 136.87 100.99 L 139.28 100.66 L 483.46 100.66 L 485.87 100.99 L 488.00 101.89 L 489.82 103.30 L 491.23 105.12 L 492.13 107.26 L 492.46 109.67 L 492.46 336.35 Z" fill="#224380" fill-rule="nonzero" group-id="5" id="Path" node-id="28" stroke="none" target-height="235.68816" target-width="362.17798" target-x="130.2798" target-y="100.659256"></path><path d="M 146.42 117.83 L 472.38 117.83 L 472.38 317.26 L 146.42 317.26 Z" fill="#f3f9ff" fill-rule="nonzero" group-id="5" id="Rectangle" node-id="29" stroke="none" target-height="199.42847" target-width="325.9602" target-x="146.4195" target-y="117.83131"></path><path d="M 363.94 200.89 L 443.14 200.89 L 444.55 201.18 L 445.68 201.95 L 446.45 203.08 L 446.74 204.49 L 446.74 232.51 L 446.45 233.93 L 445.68 235.06 L 444.55 235.83 L 443.14 236.12 L 363.94 236.12 L 362.53 235.83 L 361.39 235.06 L 360.62 233.93 L 360.34 232.51 L 360.34 204.49 L 360.62 203.08 L 361.39 201.95 L 362.52 201.18 L 363.94 200.89 Z" fill="#dae7ff" fill-rule="nonzero" group-id="5" id="Path" node-id="30" stroke="none" target-height="35.226227" target-width="86.400024" target-x="360.33688" target-y="200.89023"></path><path d="M 206.63 168.61 L 206.63 168.61 L 205.35 168.87 L 204.32 169.56 L 203.62 170.59 L 203.36 171.88 L 203.36 172.14 L 203.12 173.50 L 202.44 174.65 L 201.42 175.48 L 200.12 175.88 L 198.58 175.70 L 197.33 174.95 L 196.48 173.78 L 196.16 172.29 L 196.16 172.29 L 195.96 171.29 L 195.41 170.48 L 194.61 169.94 L 193.61 169.73 L 193.21 169.73 L 192.20 169.94 L 191.40 170.48 L 190.85 171.29 L 190.65 172.29 L 190.65 178.45 L 190.40 179.81 L 189.73 180.96 L 188.71 181.79 L 187.40 182.19 L 185.86 182.00 L 184.62 181.26 L 183.77 180.09 L 183.45 178.60 L 183.45 171.54 L 183.31 170.83 L 182.92 170.26 L 182.36 169.88 L 181.65 169.73 L 180.41 169.48 L 179.41 168.80 L 178.73 167.80 L 178.48 166.56 L 178.48 154.29 L 178.27 152.79 L 177.73 151.51 L 176.87 150.40 L 175.75 149.53 L 174.47 149.00 L 172.98 148.78 L 172.97 148.78 L 171.48 149.00 L 170.20 149.53 L 169.08 150.40 L 168.22 151.51 L 167.69 152.79 L 167.47 154.29 L 167.47 158.28 L 167.46 164.96 L 167.47 165.11 L 167.30 166.38 L 166.84 167.46 L 166.11 168.40 L 165.00 169.75 L 164.18 171.18 L 163.64 172.72 L 163.33 175.14 L 163.64 177.55 L 164.18 179.09 L 165.00 180.53 L 166.11 181.87 L 166.84 182.81 L 167.30 183.90 L 167.47 185.16 L 167.30 186.42 L 166.84 187.51 L 166.11 188.45 L 165.17 189.18 L 164.09 189.64 L 162.82 189.82 L 161.56 189.64 L 160.48 189.19 L 159.54 188.45 L 158.80 187.51 L 158.35 186.43 L 158.17 185.16 L 158.35 183.90 L 158.80 182.81 L 159.54 181.87 L 160.65 180.53 L 161.47 179.09 L 162.01 177.55 L 162.32 175.14 L 162.01 172.72 L 161.47 171.18 L 160.65 169.75 L 159.54 168.40 L 158.80 167.46 L 158.35 166.38 L 158.17 165.11 L 158.17 164.96 L 158.17 156.89 L 157.88 154.72 L 157.07 152.80 L 155.80 151.16 L 154.16 149.89 L 152.24 149.08 L 150.07 148.78 L 146.42 148.78 L 146.42 317.26 L 177.84 317.26 L 178.48 317.26 L 209.90 317.26 L 209.90 171.88 L 209.64 170.59 L 208.94 169.56 L 207.91 168.87 L 206.63 168.61 Z" fill="#7266d5" fill-rule="nonzero" group-id="5" id="Path" node-id="31" stroke="none" target-height="168.47679" target-width="63.47969" target-x="146.41861" target-y="148.78389"></path><path d="M 363.94 146.56 L 443.14 146.56 L 444.55 146.85 L 445.68 147.62 L 446.45 148.75 L 446.74 150.17 L 446.74 178.18 L 446.45 179.60 L 445.68 180.73 L 444.55 181.50 L 443.14 181.79 L 363.94 181.79 L 362.53 181.50 L 361.39 180.73 L 360.62 179.60 L 360.34 178.18 L 360.34 150.17 L 360.62 148.75 L 361.39 147.62 L 362.52 146.85 L 363.94 146.56 Z" fill="#dae7ff" fill-rule="nonzero" group-id="5" id="Path" node-id="32" stroke="none" target-height="35.226227" target-width="86.400024" target-x="360.33688" target-y="146.56192"></path><g node-id="128"><path d="M 374.74 159.18 L 367.54 159.18 L 367.54 155.57 L 374.74 155.57 Z" fill="#ffffff" fill-rule="nonzero" group-id="5,9" id="Rectangle" node-id="33" stroke="none" target-height="3.6041718" target-width="7.200012" target-x="367.5362" target-y="155.57214"></path></g><g node-id="129"><path d="M 374.74 173.59 L 367.54 173.59 L 367.54 159.18 L 374.74 159.18 Z" fill="#aec1e8" fill-rule="nonzero" group-id="5,10" id="Rectangle" node-id="34" stroke="none" target-height="14.4166565" target-width="7.200012" target-x="367.5362" target-y="159.17633"></path></g><g node-id="130"><path d="M 385.54 157.74 L 378.34 157.74 L 378.34 155.57 L 385.54 155.57 Z" fill="#ffffff" fill-rule="nonzero" group-id="5,11" id="Rectangle" node-id="35" stroke="none" target-height="2.172409" target-width="7.1999817" target-x="378.33624" target-y="155.57208"></path></g><g node-id="131"><path d="M 385.54 173.59 L 378.34 173.59 L 378.34 157.74 L 385.54 157.74 Z" fill="#aec1e8" fill-rule="nonzero" group-id="5,12" id="Rectangle" node-id="36" stroke="none" target-height="15.848434" target-width="7.1999817" target-x="378.33624" target-y="157.74448"></path></g><g node-id="132"><path d="M 396.34 164.17 L 389.14 164.17 L 389.14 155.57 L 396.34 155.57 Z" fill="#ffffff" fill-rule="nonzero" group-id="5,13" id="Rectangle" node-id="37" stroke="none" target-height="8.602264" target-width="7.200012" target-x="389.1362" target-y="155.57251"></path></g><g node-id="133"><path d="M 396.34 173.59 L 389.14 173.59 L 389.14 163.08 L 396.34 163.08 Z" fill="#aec1e8" fill-rule="nonzero" group-id="5,14" id="Rectangle" node-id="38" stroke="none" target-height="10.516968" target-width="7.200012" target-x="389.1362" target-y="163.07657"></path></g><path d="M 418.39 169.99 L 439.09 169.99 L 439.40 169.86 L 439.54 169.54 L 439.54 166.84 L 439.40 166.52 L 439.09 166.38 L 418.39 166.38 L 418.07 166.52 L 417.94 166.84 L 417.94 169.54 L 418.07 169.86 L 418.39 169.99 Z" fill="#ffffff" fill-rule="nonzero" group-id="5" id="Path" node-id="39" stroke="none" target-height="3.6041718" target-width="21.600006" target-x="417.9369" target-y="166.38484"></path><path d="M 429.19 162.78 L 439.09 162.78 L 439.40 162.65 L 439.54 162.33 L 439.54 159.63 L 439.40 159.31 L 439.09 159.18 L 429.19 159.18 L 428.87 159.31 L 428.74 159.63 L 428.74 162.33 L 428.87 162.65 L 429.19 162.78 Z" fill="#ffffff" fill-rule="nonzero" group-id="5" id="Path" node-id="40" stroke="none" target-height="3.6041565" target-width="10.799988" target-x="428.7369" target-y="159.17651"></path><path d="M 374.74 227.92 L 367.54 227.92 L 367.54 209.90 L 374.74 209.90 Z" fill="#ffffff" fill-rule="nonzero" group-id="5,15" id="Rectangle" node-id="41" stroke="none" target-height="18.020828" target-width="7.200012" target-x="367.5362" target-y="209.90039"></path><path d="M 374.74 227.92 L 367.54 227.92 L 367.54 218.50 L 374.74 218.50 Z" fill="#aec1e8" fill-rule="nonzero" group-id="5,16" id="Rectangle" node-id="42" stroke="none" target-height="9.418579" target-width="7.200012" target-x="367.5362" target-y="218.50308"></path><path d="M 385.54 227.92 L 378.34 227.92 L 378.34 209.90 L 385.54 209.90 Z" fill="#ffffff" fill-rule="nonzero" group-id="5,17" id="Rectangle" node-id="43" stroke="none" target-height="18.020828" target-width="7.1999817" target-x="378.33624" target-y="209.90039"></path><path d="M 385.54 227.92 L 378.34 227.92 L 378.34 209.90 L 385.54 209.90 Z" fill="#aec1e8" fill-rule="nonzero" group-id="5,18" id="Rectangle" node-id="44" stroke="none" target-height="18.020828" target-width="7.1999817" target-x="378.33624" target-y="209.90039"></path><path d="M 396.34 227.92 L 389.14 227.92 L 389.14 209.90 L 396.34 209.90 Z" fill="#ffffff" fill-rule="nonzero" group-id="5,19" id="Rectangle" node-id="45" stroke="none" target-height="18.020828" target-width="7.200012" target-x="389.1362" target-y="209.90039"></path><path d="M 396.34 227.92 L 389.14 227.92 L 389.14 225.24 L 396.34 225.24 Z" fill="#aec1e8" fill-rule="nonzero" group-id="5,20" id="Rectangle" node-id="46" stroke="none" target-height="2.6824036" target-width="7.200012" target-x="389.1362" target-y="225.23935"></path><path d="M 418.39 224.32 L 439.09 224.32 L 439.40 224.19 L 439.54 223.87 L 439.54 221.16 L 439.40 220.85 L 439.09 220.71 L 418.39 220.71 L 418.07 220.85 L 417.94 221.16 L 417.94 223.87 L 418.07 224.19 L 418.39 224.32 Z" fill="#ffffff" fill-rule="nonzero" group-id="5" id="Path" node-id="47" stroke="none" target-height="3.604187" target-width="21.600006" target-x="417.9369" target-y="220.71313"></path><path d="M 429.19 217.11 L 439.09 217.11 L 439.40 216.98 L 439.54 216.66 L 439.54 213.96 L 439.40 213.64 L 439.09 213.50 L 429.19 213.50 L 428.87 213.64 L 428.74 213.96 L 428.74 216.66 L 428.87 216.98 L 429.19 217.11 Z" fill="#ffffff" fill-rule="nonzero" group-id="5" id="Path" node-id="48" stroke="none" target-height="3.6041565" target-width="10.799988" target-x="428.7369" target-y="213.50482"></path><path d="M 322.99 252.58 L 319.99 252.58 L 319.99 251.67 L 322.99 251.67 L 324.26 251.41 L 324.63 252.23 L 323.83 252.49 L 322.99 252.58 Z M 315.49 252.58 L 310.99 252.58 L 310.99 251.67 L 315.49 251.67 L 315.49 252.58 Z M 306.49 252.58 L 301.99 252.58 L 301.99 251.67 L 306.49 251.67 L 306.49 252.58 Z M 297.49 252.58 L 292.99 252.58 L 292.99 251.67 L 297.49 251.67 L 297.49 252.58 Z M 288.49 252.58 L 283.99 252.58 L 283.99 251.67 L 288.49 251.67 L 288.49 252.58 Z M 279.49 252.58 L 274.99 252.58 L 274.99 251.67 L 279.49 251.67 L 279.49 252.58 Z M 270.49 252.58 L 265.99 252.58 L 265.99 251.67 L 270.49 251.67 L 270.49 252.58 Z M 261.49 252.58 L 256.99 252.58 L 256.99 251.67 L 261.49 251.67 L 261.49 252.58 Z M 252.49 252.58 L 247.99 252.58 L 247.99 251.67 L 252.49 251.67 L 252.49 252.58 Z M 243.45 252.56 L 242.20 252.26 L 241.15 251.60 L 240.34 250.66 L 239.85 249.48 L 240.73 249.27 L 241.11 250.19 L 241.74 250.92 L 242.56 251.43 L 243.52 251.66 L 243.45 252.56 Z M 327.04 248.18 L 326.14 248.18 L 326.14 243.67 L 327.04 243.67 L 327.04 248.18 Z M 240.64 244.87 L 239.74 244.87 L 239.74 240.37 L 240.64 240.37 L 240.64 244.87 Z M 327.04 239.17 L 326.14 239.17 L 326.14 234.66 L 327.04 234.66 L 327.04 239.17 Z M 240.64 235.86 L 239.74 235.86 L 239.74 231.36 L 240.64 231.36 L 240.64 235.86 Z M 327.04 230.16 L 326.14 230.16 L 326.14 225.65 L 327.04 225.65 L 327.04 230.16 Z M 240.64 226.85 L 239.74 226.85 L 239.74 222.35 L 240.64 222.35 L 240.64 226.85 Z M 327.04 221.15 L 326.14 221.15 L 326.14 220.50 L 326.02 219.66 L 325.70 218.89 L 325.18 218.24 L 324.50 217.73 L 324.93 216.94 L 325.81 217.60 L 326.47 218.43 L 326.89 219.42 L 327.04 220.50 L 327.04 221.15 Z M 241.46 218.38 L 240.79 217.77 L 241.67 217.05 L 242.66 216.61 L 243.79 216.45 L 248.29 216.45 L 248.29 217.35 L 243.79 217.35 L 242.51 217.62 L 241.46 218.38 Z M 320.29 217.35 L 315.79 217.35 L 315.79 216.45 L 320.29 216.45 L 320.29 217.35 Z M 311.29 217.35 L 306.79 217.35 L 306.79 216.45 L 311.29 216.45 L 311.29 217.35 Z M 302.29 217.35 L 297.79 217.35 L 297.79 216.45 L 302.29 216.45 L 302.29 217.35 Z M 293.29 217.35 L 288.79 217.35 L 288.79 216.45 L 293.29 216.45 L 293.29 217.35 Z M 284.29 217.35 L 279.79 217.35 L 279.79 216.45 L 284.29 216.45 L 284.29 217.35 Z M 275.29 217.35 L 270.79 217.35 L 270.79 216.45 L 275.29 216.45 L 275.29 217.35 Z M 266.29 217.35 L 261.79 217.35 L 261.79 216.45 L 266.29 216.45 L 266.29 217.35 Z M 257.29 217.35 L 252.79 217.35 L 252.79 216.45 L 257.29 216.45 L 257.29 217.35 Z" fill="#c3d3f3" fill-rule="nonzero" group-id="5,21" id="Shape" node-id="50" stroke="none" target-height="36.12816" target-width="87.30002" target-x="239.73691" target-y="216.44762"></path><path d="M 243.79 162.57 L 322.99 162.57 L 324.40 162.86 L 325.53 163.63 L 326.30 164.76 L 326.59 166.17 L 326.59 194.19 L 326.30 195.61 L 325.53 196.74 L 324.40 197.51 L 322.99 197.80 L 243.79 197.80 L 242.38 197.51 L 241.24 196.74 L 240.47 195.61 L 240.19 194.19 L 240.19 166.17 L 240.47 164.76 L 241.24 163.63 L 242.37 162.86 L 243.79 162.57 Z" fill="#dae7ff" fill-rule="nonzero" group-id="5,21" id="Path" node-id="51" stroke="none" target-height="35.226227" target-width="86.40001" target-x="240.1869" target-y="162.56982"></path><path d="M 254.59 186.97 L 247.39 186.97 L 247.39 171.58 L 254.59 171.58 Z" fill="#ffffff" fill-rule="nonzero" group-id="5,21,29" id="Rectangle" node-id="52" stroke="none" target-height="15.391602" target-width="7.200012" target-x="247.38628" target-y="171.58096"></path><path d="M 254.59 189.60 L 247.39 189.60 L 247.39 186.97 L 254.59 186.97 Z" fill="#c3d3f3" fill-rule="nonzero" group-id="5,21,30" id="Rectangle" node-id="53" stroke="none" target-height="2.6292267" target-width="7.200012" target-x="247.38628" target-y="186.97256"></path><path d="M 265.39 184.34 L 258.19 184.34 L 258.19 171.58 L 265.39 171.58 Z" fill="#ffffff" fill-rule="nonzero" group-id="5,21,31" id="Rectangle" node-id="54" stroke="none" target-height="12.76236" target-width="7.200012" target-x="258.1862" target-y="171.58087"></path><path d="M 265.39 189.60 L 258.19 189.60 L 258.19 184.34 L 265.39 184.34 Z" fill="#c3d3f3" fill-rule="nonzero" group-id="5,21,32" id="Rectangle" node-id="55" stroke="none" target-height="5.258484" target-width="7.200012" target-x="258.1862" target-y="184.34323"></path><path d="M 276.19 180.18 L 268.99 180.18 L 268.99 171.58 L 276.19 171.58 Z" fill="#ffffff" fill-rule="nonzero" group-id="5,21,33" id="Rectangle" node-id="56" stroke="none" target-height="8.602234" target-width="7.1999817" target-x="268.9862" target-y="171.58142"></path><path d="M 276.19 189.60 L 268.99 189.60 L 268.99 179.08 L 276.19 179.08 Z" fill="#c3d3f3" fill-rule="nonzero" group-id="5,21,34" id="Rectangle" node-id="57" stroke="none" target-height="10.516968" target-width="7.1999817" target-x="268.9862" target-y="179.08456"></path><path d="M 298.24 186.00 L 318.94 186.00 L 319.25 185.86 L 319.39 185.55 L 319.39 182.84 L 319.25 182.53 L 318.94 182.39 L 298.24 182.39 L 297.92 182.53 L 297.79 182.84 L 297.79 185.55 L 297.92 185.86 L 298.24 186.00 Z" fill="#ffffff" fill-rule="nonzero" group-id="5,21" id="Path" node-id="58" stroke="none" target-height="3.6041718" target-width="21.599976" target-x="297.78693" target-y="182.39275"></path><path d="M 309.04 178.79 L 318.94 178.79 L 319.25 178.66 L 319.39 178.34 L 319.39 175.63 L 319.25 175.32 L 318.94 175.18 L 309.04 175.18 L 308.72 175.32 L 308.59 175.63 L 308.59 178.34 L 308.72 178.66 L 309.04 178.79 Z" fill="#ffffff" fill-rule="nonzero" group-id="5,21" id="Path" node-id="59" stroke="none" target-height="3.6041565" target-width="10.799988" target-x="308.5869" target-y="175.18442"></path><path d="M 510.68 372.61 L 112.06 372.61 L 108.78 372.30 L 105.77 371.48 L 102.98 370.15 L 100.45 368.36 L 98.31 366.21 L 96.52 363.68 L 95.19 360.89 L 94.37 357.88 L 94.06 354.59 L 94.06 336.35 L 528.68 336.35 L 528.68 354.59 L 528.37 357.88 L 527.55 360.89 L 526.22 363.68 L 524.43 366.21 L 522.29 368.36 L 519.76 370.15 L 516.97 371.48 L 513.96 372.30 L 510.68 372.61 Z" fill="#dae7ff" fill-rule="nonzero" group-id="5" id="Path" node-id="60" stroke="none" target-height="36.259735" target-width="434.6136" target-x="94.062004" target-y="336.3474"></path><path d="M 257.04 336.35 L 257.35 339.66 L 258.18 342.69 L 259.51 345.50 L 261.31 348.04 L 263.47 350.20 L 266.01 352.00 L 268.82 353.34 L 271.85 354.17 L 275.15 354.48 L 347.59 354.48 L 350.89 354.17 L 353.92 353.34 L 356.73 352.00 L 359.27 350.20 L 361.42 348.04 L 363.22 345.50 L 364.56 342.69 L 365.39 339.66 L 365.70 336.35 L 257.04 336.35 Z" fill="#aec1e8" fill-rule="nonzero" group-id="5" id="Path" node-id="61" stroke="none" target-height="18.129883" target-width="108.65338" target-x="257.0421" target-y="336.3474"></path></g><g node-id="125"><path d="M 512.70 79.34 L 512.39 75.34 L 511.54 71.61 L 510.15 68.09 L 508.28 64.81 L 506.01 61.89 L 503.31 59.30 L 500.28 57.11 L 496.97 55.40 L 493.34 54.13 L 489.58 53.42 L 485.62 53.29 L 481.42 53.77 L 478.06 54.68 L 474.94 55.99 L 472.01 57.71 L 469.33 59.80 L 466.97 62.19 L 464.91 64.90 L 463.21 67.84 L 461.93 70.99 L 461.06 74.36 L 460.64 77.94 L 460.67 81.34 L 461.13 84.61 L 462.00 87.80 L 463.22 90.77 L 464.80 93.55 L 466.93 97.21 L 468.66 101.02 L 470.01 104.99 L 470.98 109.08 L 471.56 113.23 L 471.76 117.46 L 471.76 118.47 L 501.53 118.47 L 501.53 118.55 L 501.70 114.17 L 502.24 109.85 L 503.14 105.59 L 504.45 101.44 L 506.19 97.49 L 508.37 93.72 L 510.20 90.49 L 511.56 86.98 L 512.40 83.28 L 512.70 79.34 Z" fill="#ffcb01" fill-rule="nonzero" group-id="6" id="Path" node-id="63" stroke="none" target-height="65.26134" target-width="52.0596" target-x="460.6365" target-y="53.290806"></path><path d="M 481.42 53.77 L 480.83 53.93 L 484.69 55.06 L 488.21 56.70 L 491.45 58.84 L 494.33 61.43 L 496.77 64.38 L 498.79 67.73 L 500.28 71.34 L 501.19 75.19 L 501.53 79.34 L 501.24 83.28 L 500.40 86.98 L 499.03 90.49 L 497.21 93.72 L 495.03 97.48 L 493.30 101.41 L 491.99 105.54 L 491.09 109.79 L 490.55 114.09 L 490.37 118.46 L 501.53 118.46 L 501.53 118.55 L 501.70 114.17 L 502.24 109.85 L 503.14 105.59 L 504.45 101.44 L 506.19 97.49 L 508.37 93.72 L 510.20 90.49 L 511.56 86.98 L 512.40 83.28 L 512.70 79.34 L 512.39 75.34 L 511.54 71.61 L 510.15 68.09 L 508.28 64.81 L 506.01 61.89 L 503.31 59.30 L 500.28 57.11 L 496.97 55.40 L 493.34 54.13 L 489.58 53.42 L 485.62 53.29 L 481.42 53.77 Z" fill="#f0b701" fill-rule="nonzero" group-id="6" id="Path" node-id="64" stroke="none" target-height="65.26024" target-width="31.861786" target-x="480.83432" target-y="53.290096"></path><path d="M 494.09 142.46 L 479.20 142.46 L 475.48 135.01 L 497.81 135.01 Z" fill="#0b224e" fill-rule="nonzero" group-id="6" id="Path" node-id="65" stroke="none" target-height="7.4516144" target-width="22.32901" target-x="475.4811" target-y="135.00606"></path><path d="M 498.05 135.23 L 475.24 135.23 L 473.31 134.97 L 471.60 134.25 L 470.15 133.12 L 469.02 131.66 L 468.30 129.95 L 468.04 128.02 L 468.04 116.60 L 505.25 116.60 L 505.25 128.02 L 504.99 129.95 L 504.27 131.66 L 503.14 133.12 L 501.69 134.25 L 499.98 134.97 L 498.05 135.23 Z" fill="#102b5e" fill-rule="nonzero" group-id="6" id="Path" node-id="66" stroke="none" target-height="18.629044" target-width="37.214996" target-x="468.03812" target-y="116.60228"></path><path d="M 497.81 135.01 L 477.80 139.67 L 475.48 135.01 Z" fill="#03193f" fill-rule="nonzero" group-id="6" id="Path" node-id="67" stroke="none" target-height="4.658386" target-width="22.32898" target-x="475.48203" target-y="135.00786"></path></g><g node-id="126"><path d="M 191.31 210.65 L 190.95 208.67 L 190.96 207.66 L 191.36 206.74 L 192.08 206.03 L 193.02 205.66 L 204.46 203.56 L 205.08 203.31 L 205.54 202.86 L 205.79 202.27 L 205.81 201.60 L 204.94 196.90 L 204.70 196.29 L 204.24 195.82 L 203.64 195.56 L 202.99 195.55 L 198.71 196.34 L 198.55 195.45 L 202.83 194.66 L 203.83 194.68 L 204.75 195.08 L 205.46 195.80 L 205.83 196.74 L 206.69 201.44 L 206.67 202.47 L 206.28 203.37 L 205.58 204.06 L 204.62 204.45 L 193.18 206.55 L 192.57 206.79 L 192.10 207.25 L 191.84 207.85 L 191.83 208.51 L 192.20 210.49 L 191.31 210.65 Z" fill="#dae7ff" fill-rule="nonzero" group-id="7" id="Path" node-id="69" stroke="none" target-height="15.988083" target-width="15.741882" target-x="190.9479" target-y="194.66493"></path><path d="M 200.04 200.08 L 180.28 203.72 L 179.40 203.70 L 178.63 203.36 L 178.04 202.76 L 177.72 201.94 L 176.93 197.69 L 176.95 196.81 L 177.29 196.04 L 177.89 195.45 L 178.70 195.12 L 198.46 191.48 L 199.35 191.50 L 200.11 191.84 L 200.70 192.44 L 201.03 193.26 L 201.81 197.51 L 201.80 198.39 L 201.46 199.16 L 200.86 199.75 L 200.04 200.08 Z" fill="#f3f9ff" fill-rule="nonzero" group-id="7" id="Path" node-id="70" stroke="none" target-height="12.230743" target-width="24.877808" target-x="176.93399" target-y="191.48425"></path><path d="M 190.83 219.38 L 189.20 210.52 L 189.22 209.64 L 189.56 208.87 L 190.15 208.28 L 190.97 207.95 L 191.56 207.85 L 192.44 207.86 L 193.21 208.20 L 193.79 208.80 L 194.12 209.62 L 195.75 218.47 L 195.73 219.36 L 195.40 220.13 L 194.80 220.72 L 193.98 221.04 L 193.40 221.15 L 192.51 221.14 L 191.75 220.80 L 191.16 220.20 L 190.83 219.38 Z" fill="#224380" fill-rule="nonzero" group-id="7" id="Path" node-id="71" stroke="none" target-height="13.305679" target-width="6.5457153" target-x="189.20279" target-y="207.84628"></path><path d="M 132.01 323.68 L 132.87 327.94 L 127.30 328.72 L 125.62 324.71 Z" fill="#f1b282" fill-rule="nonzero" group-id="7" id="Path" node-id="72" stroke="none" target-height="5.0386047" target-width="7.2494965" target-x="125.6178" target-y="323.6815"></path><path d="M 132.99 327.43 L 131.56 327.79 L 128.57 328.50 L 125.98 328.98 L 125.09 329.29 L 123.93 330.08 L 121.60 332.06 L 120.44 332.96 L 119.53 333.43 L 118.62 333.93 L 118.14 334.58 L 117.97 335.34 L 118.12 336.06 L 118.55 336.66 L 119.26 337.04 L 120.41 337.21 L 122.69 337.30 L 125.20 337.21 L 127.99 336.91 L 130.70 336.35 L 132.86 335.55 L 134.07 334.78 L 134.75 333.90 L 135.01 332.90 L 134.85 330.67 L 134.50 329.34 L 133.97 328.28 L 133.52 327.77 L 132.99 327.43 Z" fill="#03193f" fill-rule="nonzero" group-id="7" id="Path" node-id="73" stroke="none" target-height="9.870544" target-width="17.042099" target-x="117.970795" target-y="327.4262"></path><path d="M 141.27 322.29 L 138.91 325.98 L 144.03 328.64 L 147.11 325.46 Z" fill="#f1b282" fill-rule="nonzero" group-id="7" id="Path" node-id="74" stroke="none" target-height="6.3586426" target-width="8.196304" target-x="138.9117" target-y="322.28577"></path><path d="M 117.71 285.57 L 117.45 286.48 L 117.34 289.23 L 117.81 296.80 L 118.88 306.30 L 120.33 315.78 L 121.17 320.08 L 121.93 323.27 L 122.84 325.93 L 123.46 326.81 L 124.64 327.24 L 126.19 327.25 L 127.81 326.95 L 129.46 326.45 L 132.20 325.30 L 133.35 324.72 L 133.68 322.14 L 134.45 315.60 L 135.35 306.89 L 136.09 297.79 L 136.34 290.09 L 136.15 287.07 L 135.80 285.57 L 135.07 284.60 L 133.96 283.85 L 132.34 283.31 L 129.68 282.98 L 126.62 283.04 L 123.58 283.43 L 120.98 284.03 L 118.72 284.86 L 117.71 285.57 Z" fill="#0b224e" fill-rule="nonzero" group-id="7" id="Path" node-id="75" stroke="none" target-height="44.279175" target-width="18.993431" target-x="117.34362" target-y="282.97522"></path><path d="M 177.59 287.65 L 176.90 285.42 L 175.71 283.21 L 173.96 280.98 L 170.79 278.00 L 166.86 275.16 L 162.61 272.66 L 158.22 270.51 L 153.81 268.69 L 149.97 267.38 L 146.36 266.45 L 144.03 266.12 L 141.69 266.23 L 138.08 266.82 L 134.20 267.69 L 129.80 268.85 L 121.15 271.49 L 114.11 274.00 L 111.54 275.10 L 110.64 275.63 L 110.21 276.31 L 109.85 277.67 L 109.76 279.23 L 110.01 281.13 L 110.65 283.01 L 111.83 284.91 L 112.87 286.01 L 114.25 287.01 L 116.03 287.90 L 117.93 288.50 L 120.33 288.89 L 123.33 289.00 L 130.57 288.66 L 135.83 288.17 L 140.44 287.53 L 143.18 287.01 L 145.57 286.43 L 147.07 287.04 L 150.78 288.55 L 155.54 290.49 L 160.19 292.40 L 156.10 297.08 L 150.93 303.44 L 148.29 306.95 L 145.83 310.51 L 143.62 314.09 L 141.95 317.31 L 141.07 319.50 L 140.59 321.34 L 140.44 322.88 L 141.02 323.92 L 142.33 325.01 L 143.94 325.88 L 145.64 326.51 L 147.28 326.81 L 148.26 326.68 L 151.13 324.34 L 157.03 318.81 L 160.54 315.28 L 164.30 311.25 L 167.94 307.03 L 171.26 302.77 L 174.18 298.43 L 176.25 294.53 L 177.24 291.86 L 177.65 289.60 L 177.59 287.65 Z" fill="#102b5e" fill-rule="nonzero" group-id="7" id="Path" node-id="76" stroke="none" target-height="60.687866" target-width="67.88872" target-x="109.76163" target-y="266.12024"></path><path d="M 138.85 210.40 L 138.47 211.77 L 137.51 214.92 L 136.28 218.45 L 135.60 220.00 L 135.07 220.92 L 134.96 221.37 L 135.21 221.87 L 136.03 222.49 L 137.57 223.23 L 139.68 223.95 L 141.87 224.49 L 143.83 224.81 L 145.58 224.84 L 146.31 224.59 L 146.68 223.93 L 147.05 222.58 L 147.50 219.36 L 147.72 216.36 L 147.77 215.05 L 148.75 215.25 L 151.03 215.61 L 153.60 215.72 L 154.74 215.55 L 155.47 215.19 L 156.48 214.04 L 157.12 212.76 L 157.67 210.76 L 157.86 210.42 L 158.33 210.00 L 159.42 209.14 L 159.84 208.64 L 159.99 208.13 L 159.79 206.28 L 159.18 203.15 L 158.16 199.90 L 157.47 198.52 L 156.76 197.67 L 154.73 196.81 L 153.03 196.33 L 150.89 195.90 L 148.65 195.66 L 146.42 195.67 L 144.30 196.06 L 142.54 196.88 L 141.60 197.69 L 140.90 198.79 L 140.44 200.24 L 139.14 208.26 L 138.85 210.40 Z" fill="#f1b282" fill-rule="nonzero" group-id="7" id="Path" node-id="77" stroke="none" target-height="29.187927" target-width="25.034546" target-x="134.95876" target-y="195.65553"></path><path d="M 140.20 212.60 L 142.21 212.50 L 144.48 212.17 L 146.67 211.56 L 148.46 210.66 L 149.41 209.84 L 149.99 208.87 L 150.22 207.71 L 150.02 206.25 L 149.53 204.66 L 148.38 201.71 L 148.06 200.42 L 148.15 199.59 L 148.44 199.23 L 149.06 199.01 L 150.22 199.02 L 152.63 199.26 L 154.64 199.26 L 156.43 198.90 L 157.73 198.09 L 158.32 197.30 L 158.73 196.14 L 158.89 194.49 L 158.66 193.12 L 158.02 191.75 L 156.91 190.35 L 155.54 189.17 L 153.89 188.13 L 151.92 187.24 L 149.85 186.63 L 147.69 186.32 L 145.40 186.33 L 143.16 186.70 L 140.97 187.51 L 138.80 188.80 L 136.93 190.46 L 135.19 192.76 L 133.60 195.83 L 132.62 198.68 L 132.11 201.11 L 131.99 203.18 L 132.19 205.24 L 132.65 206.97 L 133.33 208.42 L 134.78 210.27 L 136.46 211.55 L 138.36 212.35 L 140.20 212.60 Z" fill="#0b224e" fill-rule="nonzero" group-id="7" id="Path" node-id="78" stroke="none" target-height="26.278015" target-width="26.905045" target-x="131.98755" target-y="186.32126"></path><path d="M 181.41 222.75 L 182.17 222.00 L 183.90 220.28 L 185.73 218.44 L 186.82 217.30 L 189.31 213.87 L 190.60 212.21 L 191.86 211.04 L 192.78 210.54 L 193.73 210.44 L 194.78 210.72 L 195.74 211.39 L 196.89 212.66 L 197.75 214.21 L 198.15 216.01 L 197.97 217.37 L 197.63 218.13 L 196.99 218.88 L 196.10 219.45 L 194.66 219.86 L 193.59 220.26 L 192.01 221.26 L 188.76 223.93 L 186.02 226.51 L 184.86 227.68 L 181.41 222.75 Z" fill="#f1b282" fill-rule="nonzero" group-id="7" id="Path" node-id="79" stroke="none" target-height="17.240402" target-width="16.74179" target-x="181.4097" target-y="210.4351"></path><path d="M 108.79 277.50 L 109.21 278.39 L 109.92 279.02 L 110.97 279.41 L 112.83 279.59 L 115.30 279.38 L 117.89 278.89 L 120.71 278.20 L 126.15 276.69 L 130.54 275.66 L 135.82 275.13 L 138.79 274.81 L 141.66 274.35 L 144.34 273.61 L 146.32 272.60 L 147.32 271.68 L 147.87 270.56 L 148.02 269.18 L 147.74 264.29 L 147.71 261.21 L 147.87 257.84 L 148.28 254.48 L 149.00 251.38 L 149.72 249.43 L 150.62 247.81 L 151.70 246.49 L 153.02 245.47 L 154.61 244.87 L 156.56 244.69 L 158.68 244.95 L 160.20 245.52 L 162.86 247.06 L 164.26 247.64 L 166.10 247.89 L 167.62 247.67 L 169.39 247.04 L 171.45 245.90 L 174.39 243.75 L 177.50 240.94 L 180.44 237.82 L 183.10 234.55 L 185.43 231.20 L 187.09 228.27 L 187.94 226.26 L 188.31 224.76 L 188.34 223.64 L 187.97 222.41 L 187.40 221.48 L 186.63 220.81 L 185.21 220.21 L 183.60 220.13 L 182.00 220.57 L 180.52 221.56 L 178.31 222.90 L 173.98 225.32 L 168.99 228.20 L 164.82 230.92 L 163.38 232.15 L 162.95 232.84 L 166.58 233.27 L 165.66 231.67 L 163.64 229.20 L 161.10 226.74 L 157.65 224.06 L 155.12 222.45 L 152.30 220.98 L 149.15 219.66 L 145.90 218.67 L 142.42 218.05 L 138.69 217.80 L 135.13 218.03 L 131.57 218.66 L 127.97 219.71 L 124.48 221.10 L 121.11 222.77 L 117.85 224.73 L 113.31 228.09 L 109.36 231.75 L 107.00 234.42 L 105.07 237.06 L 103.52 239.67 L 102.29 242.44 L 101.58 245.00 L 101.34 247.40 L 101.61 250.45 L 102.21 252.51 L 103.04 253.85 L 104.23 254.87 L 105.57 255.46 L 107.10 255.66 L 109.50 255.40 L 111.95 254.68 L 114.26 253.67 L 116.01 252.74 L 117.71 251.68 L 111.84 250.46 L 111.29 252.29 L 110.06 257.02 L 108.81 263.54 L 108.37 267.12 L 108.17 270.74 L 108.29 274.30 L 108.79 277.50 Z" fill="#ffcb01" fill-rule="nonzero" group-id="7" id="Path" node-id="80" stroke="none" target-height="61.790344" target-width="86.99669" target-x="101.3394" target-y="217.79828"></path><path d="M 135.49 188.13 L 135.34 186.78 L 134.95 185.47 L 134.06 183.79 L 133.25 182.76 L 132.07 181.77 L 130.46 180.80 L 128.72 180.13 L 126.40 179.66 L 123.33 179.45 L 119.18 179.70 L 115.95 180.32 L 113.47 181.24 L 111.21 182.60 L 109.48 184.18 L 108.21 185.99 L 107.27 188.04 L 106.63 190.27 L 106.27 192.72 L 106.16 196.49 L 106.41 200.47 L 107.34 208.27 L 107.72 211.99 L 107.82 215.17 L 107.40 219.42 L 106.68 222.17 L 105.61 224.47 L 104.53 225.98 L 102.40 228.29 L 101.68 229.41 L 101.34 230.83 L 101.56 231.51 L 102.26 232.05 L 103.74 232.43 L 106.25 232.47 L 109.73 231.91 L 113.31 230.81 L 117.08 229.02 L 119.45 227.49 L 121.60 225.65 L 123.54 223.49 L 125.10 221.06 L 126.22 218.27 L 126.88 215.05 L 128.23 203.43 L 129.43 196.84 L 130.19 194.37 L 130.96 192.96 L 131.72 192.25 L 132.49 192.01 L 133.35 192.17 L 134.55 192.40 L 135.18 192.14 L 135.58 191.54 L 135.75 190.69 L 135.66 188.96 L 135.49 188.13 Z" fill="#0b224e" fill-rule="nonzero" group-id="7" id="Path" node-id="81" stroke="none" target-height="53.01889" target-width="34.41307" target-x="101.3394" target-y="179.44635"></path><path d="M 138.80 185.95 L 139.21 186.37 L 139.39 187.06 L 139.27 188.18 L 138.70 189.89 L 137.69 191.85 L 136.40 193.66 L 135.02 195.05 L 133.97 195.73 L 133.06 195.98 L 132.21 195.89 L 131.59 195.40 L 131.30 194.67 L 131.36 193.56 L 131.94 191.83 L 133.05 189.86 L 134.46 188.05 L 135.96 186.68 L 137.07 186.02 L 137.99 185.81 L 138.80 185.95 Z" fill="#ffcb01" fill-rule="nonzero" group-id="7" id="Path" node-id="82" stroke="none" target-height="10.169098" target-width="8.087463" target-x="131.30272" target-y="185.8129"></path><path d="M 126.84 291.02 L 131.98 291.02 L 131.98 336.48 L 126.84 336.48 Z" fill="#86a0d1" fill-rule="nonzero" group-id="7" id="Rectangle" node-id="83" stroke="none" target-height="45.466583" target-width="5.141693" target-x="126.8418" target-y="291.01602"></path><path d="M 110.49 255.26 L 110.97 253.59 L 112.34 249.44 L 114.50 244.15 L 115.84 241.46 L 117.32 239.03 L 119.00 236.90 L 120.71 235.42 L 119.46 238.81 L 116.34 247.71 L 112.29 260.15 L 110.23 267.06 L 108.28 274.20 L 108.27 272.31 L 108.44 267.58 L 109.08 261.43 L 109.67 258.23 L 110.49 255.26 Z" fill="#f0b701" fill-rule="nonzero" group-id="7" id="Path" node-id="84" stroke="none" target-height="38.779922" target-width="12.439194" target-x="108.2682" target-y="235.41545"></path><path d="M 147.15 292.04 L 112.47 292.04 L 112.01 291.95 L 111.64 291.70 L 111.39 291.33 L 111.30 290.87 L 111.30 286.79 L 111.39 286.33 L 111.64 285.96 L 112.01 285.71 L 112.47 285.62 L 147.15 285.62 L 147.61 285.71 L 147.98 285.96 L 148.23 286.33 L 148.32 286.79 L 148.32 290.87 L 148.23 291.33 L 147.98 291.70 L 147.61 291.95 L 147.15 292.04 Z" fill="#aec1e8" fill-rule="nonzero" group-id="7" id="Path" node-id="85" stroke="none" target-height="6.423523" target-width="37.0251" target-x="111.2952" target-y="285.61877"></path><path d="M 159.99 292.62 L 163.47 293.77 L 162.06 295.10 L 158.54 298.27 L 154.04 302.03 L 151.69 303.78 L 149.65 305.12 L 150.90 303.32 L 153.86 299.28 L 157.29 295.03 L 158.95 293.34 L 159.99 292.62 Z" fill="#0b224e" fill-rule="nonzero" group-id="7" id="Path" node-id="86" stroke="none" target-height="12.50647" target-width="13.829407" target-x="149.6451" target-y="292.61807"></path><path d="M 138.89 324.97 L 139.82 325.55 L 142.01 326.88 L 144.58 328.38 L 146.64 329.45 L 147.58 330.15 L 148.62 331.47 L 150.53 334.54 L 151.53 335.97 L 152.42 336.86 L 153.30 337.77 L 153.59 338.65 L 153.45 339.53 L 152.94 340.26 L 152.16 340.74 L 151.14 340.87 L 148.00 340.12 L 143.23 338.38 L 140.68 337.22 L 138.31 335.94 L 136.20 334.48 L 134.75 333.07 L 134.09 332.02 L 133.87 331.05 L 134.02 330.08 L 135.20 327.74 L 136.22 326.43 L 137.33 325.51 L 138.10 325.13 L 138.89 324.97 Z" fill="#03193f" fill-rule="nonzero" group-id="7" id="Path" node-id="87" stroke="none" target-height="15.899811" target-width="19.722153" target-x="133.86734" target-y="324.96906"></path></g><g node-id="127"><path d="M 425.66 207.35 L 425.71 208.99 L 425.82 213.06 L 425.87 218.26 L 425.80 223.33 L 425.58 225.86 L 425.23 227.88 L 424.24 231.55 L 423.32 235.32 L 423.04 237.45 L 422.94 240.16 L 425.79 240.54 L 432.97 241.35 L 442.43 242.08 L 447.42 242.27 L 452.10 242.24 L 456.54 241.93 L 459.92 241.33 L 460.24 240.87 L 460.65 239.04 L 461.18 233.91 L 461.52 227.85 L 461.70 222.80 L 461.76 220.69 L 461.02 207.35 L 467.89 207.35 L 468.85 207.35 L 469.39 207.24 L 469.85 206.92 L 470.15 206.45 L 470.24 205.89 L 469.89 201.47 L 469.47 198.58 L 468.78 195.16 L 467.82 191.70 L 466.48 188.10 L 464.59 184.53 L 462.52 181.75 L 460.29 179.66 L 457.72 177.95 L 455.07 176.67 L 452.31 175.81 L 448.03 175.05 L 443.83 174.78 L 439.46 174.99 L 435.70 175.73 L 432.46 176.94 L 429.43 178.64 L 426.80 180.62 L 424.53 182.91 L 422.53 185.45 L 420.83 188.08 L 419.43 190.80 L 417.71 194.97 L 416.54 198.74 L 415.70 202.34 L 415.26 204.88 L 414.97 207.35 L 425.66 207.35 L 425.66 207.35 Z" fill="#2ccd7f" fill-rule="nonzero" group-id="8" id="Path" node-id="89" stroke="none" target-height="67.49054" target-width="55.2771" target-x="414.966" target-y="174.77715"></path><path d="M 426.91 213.83 L 426.93 212.26 L 427.03 208.43 L 427.24 203.68 L 427.58 199.34 L 427.83 197.58 L 428.08 196.72 L 431.06 218.52 L 426.91 213.83 Z" fill="#1eaf69" fill-rule="nonzero" group-id="8" id="Path" node-id="90" stroke="none" target-height="21.796188" target-width="4.1543884" target-x="426.90723" target-y="196.72021"></path><path d="M 458.33 207.35 L 457.95 205.87 L 457.21 202.79 L 456.68 200.10 L 456.16 201.95 L 455.21 206.65 L 454.85 209.59 L 454.69 212.86 L 454.93 215.06 L 455.44 216.27 L 456.23 217.08 L 457.07 217.41 L 457.97 217.46 L 458.71 217.33 L 459.45 217.07 L 458.33 207.35 Z" fill="#1eaf69" fill-rule="nonzero" group-id="8" id="Path" node-id="91" stroke="none" target-height="17.360977" target-width="4.7546997" target-x="454.6947" target-y="200.0982"></path><path d="M 431.06 207.71 L 430.29 209.89 L 428.21 215.26 L 425.19 222.09 L 423.42 225.55 L 421.59 228.63 L 419.59 231.36 L 417.76 233.15 L 416.43 233.94 L 415.23 234.16 L 414.07 233.90 L 413.35 233.24 L 412.80 232.10 L 412.46 230.25 L 412.40 227.28 L 412.69 223.56 L 413.91 216.03 L 415.26 209.89 L 415.90 207.35 L 431.06 207.71 Z" fill="#f1b282" fill-rule="nonzero" group-id="8" id="Path" node-id="92" stroke="none" target-height="26.816315" target-width="18.66632" target-x="412.3953" target-y="207.34619"></path><path d="M 466.66 310.69 L 471.05 319.87 L 463.25 323.62 L 457.61 315.00 Z" fill="#f1b282" fill-rule="nonzero" group-id="8" id="Path" node-id="93" stroke="none" target-height="12.926331" target-width="13.435211" target-x="457.6116" target-y="310.69208"></path><path d="M 412.45 318.69 L 412.20 326.44 L 421.46 328.20 L 422.34 318.69 Z" fill="#f1b282" fill-rule="nonzero" group-id="8" id="Path" node-id="94" stroke="none" target-height="9.504211" target-width="10.143005" target-x="412.1994" target-y="318.6933"></path><path d="M 446.80 255.91 L 428.67 286.34 L 423.68 318.22 L 423.46 318.86 L 423.05 319.36 L 422.49 319.69 L 421.82 319.81 L 410.45 319.81 L 409.65 319.64 L 408.99 319.14 L 408.60 318.42 L 408.55 317.60 L 409.57 310.69 L 411.02 300.89 L 412.64 290.03 L 414.14 279.96 L 415.26 272.54 L 416.90 262.18 L 418.00 257.08 L 419.62 251.53 L 421.81 245.85 L 425.10 239.04 L 446.14 241.99 L 446.80 255.91 Z" fill="#0b224e" fill-rule="nonzero" group-id="8" id="Path" node-id="95" stroke="none" target-height="80.76758" target-width="38.254517" target-x="408.5454" target-y="239.04483"></path><path d="M 433.18 239.49 L 433.49 242.48 L 434.29 249.96 L 435.42 259.75 L 436.70 269.65 L 437.97 277.46 L 438.79 280.38 L 440.34 284.43 L 442.24 288.68 L 444.55 293.43 L 449.48 302.86 L 454.02 311.12 L 457.05 316.59 L 457.37 316.99 L 457.79 317.23 L 458.27 317.32 L 458.77 317.24 L 469.26 313.32 L 469.80 312.98 L 470.16 312.48 L 470.31 311.89 L 470.21 311.26 L 459.17 282.16 L 459.08 279.90 L 458.87 274.23 L 458.67 266.79 L 458.61 259.23 L 458.81 253.22 L 458.78 250.08 L 458.28 247.18 L 457.42 244.43 L 456.44 242.13 L 454.47 238.66 L 453.56 237.37 L 433.18 239.49 Z" fill="#102b5e" fill-rule="nonzero" group-id="8" id="Path" node-id="96" stroke="none" target-height="79.95706" target-width="37.122314" target-x="433.1838" target-y="237.3671"></path><path d="M 397.45 248.02 L 474.46 248.02 L 475.68 247.84 L 476.73 247.40 L 477.64 246.70 L 478.35 245.78 L 478.78 244.73 L 478.96 243.51 L 478.96 211.85 L 478.78 210.63 L 478.35 209.58 L 477.64 208.67 L 476.73 207.96 L 475.68 207.52 L 474.46 207.35 L 397.45 207.35 L 396.23 207.52 L 395.18 207.96 L 394.27 208.67 L 393.56 209.58 L 393.12 210.63 L 392.95 211.85 L 392.95 243.51 L 393.12 244.73 L 393.56 245.78 L 394.27 246.70 L 395.18 247.40 L 396.23 247.84 L 397.45 248.02 Z" fill="#1b90fb" fill-rule="nonzero" group-id="8" id="Path" node-id="97" stroke="none" target-height="40.668518" target-width="86.0058" target-x="392.95203" target-y="207.34709"></path><path d="M 428.06 205.87 L 428.06 206.67 L 427.69 208.33 L 427.18 209.10 L 426.35 209.67 L 425.45 209.85 L 423.52 209.94 L 418.93 209.74 L 416.52 209.44 L 414.57 209.05 L 413.81 208.65 L 413.33 208.05 L 413.08 207.18 L 413.16 205.72 L 413.76 204.03 L 414.81 202.48 L 416.30 201.16 L 417.48 200.54 L 418.83 200.19 L 420.39 200.12 L 423.32 200.58 L 425.19 201.25 L 426.65 202.23 L 427.48 203.30 L 427.93 204.54 L 428.06 205.87 Z" fill="#f1b282" fill-rule="nonzero" group-id="8" id="Path" node-id="98" stroke="none" target-height="9.821045" target-width="14.981873" target-x="413.08215" target-y="200.12164"></path><path d="M 421.96 323.27 L 422.74 323.54 L 423.40 324.33 L 423.87 325.42 L 424.23 326.78 L 424.62 329.46 L 424.72 331.24 L 424.49 332.22 L 423.92 332.91 L 423.11 333.41 L 422.17 333.74 L 420.46 334.03 L 418.11 334.09 L 414.61 334.33 L 412.82 334.67 L 411.31 335.20 L 410.06 335.53 L 408.07 335.62 L 405.92 335.43 L 403.63 335.00 L 401.44 334.33 L 399.70 333.52 L 398.72 332.80 L 398.19 332.09 L 397.98 331.35 L 398.17 330.40 L 398.65 329.70 L 399.47 329.20 L 401.00 328.70 L 402.88 328.31 L 404.77 327.88 L 406.41 327.24 L 407.58 326.34 L 408.61 325.12 L 410.35 322.67 L 411.22 321.78 L 412.04 321.49 L 412.89 321.78 L 413.92 322.65 L 416.02 324.81 L 417.16 325.66 L 418.23 325.97 L 419.23 325.76 L 419.94 325.27 L 421.00 323.97 L 421.48 323.45 L 421.96 323.27 Z" fill="#0b224e" fill-rule="nonzero" group-id="8" id="Path" node-id="99" stroke="none" target-height="14.132904" target-width="26.740814" target-x="397.97852" target-y="321.48654"></path><path d="M 468.92 315.30 L 469.73 315.18 L 470.68 315.59 L 471.60 316.34 L 472.55 317.38 L 474.12 319.58 L 475.02 321.13 L 475.27 322.09 L 475.07 322.97 L 474.58 323.79 L 473.89 324.51 L 472.51 325.55 L 470.45 326.69 L 467.45 328.50 L 466.00 329.63 L 464.91 330.79 L 463.95 331.66 L 462.22 332.65 L 460.23 333.47 L 457.99 334.13 L 455.73 334.54 L 453.82 334.61 L 452.62 334.43 L 451.82 334.04 L 451.30 333.48 L 451.03 332.55 L 451.14 331.70 L 451.64 330.88 L 452.77 329.74 L 454.26 328.53 L 455.75 327.28 L 456.91 325.96 L 457.54 324.62 L 457.90 323.07 L 458.32 320.09 L 458.69 318.90 L 459.29 318.26 L 460.17 318.14 L 461.49 318.43 L 464.34 319.39 L 465.74 319.63 L 466.83 319.41 L 467.63 318.77 L 468.04 318.00 L 468.38 316.36 L 468.57 315.68 L 468.92 315.30 Z" fill="#0b224e" fill-rule="nonzero" group-id="8" id="Path" node-id="100" stroke="none" target-height="19.428864" target-width="24.23526" target-x="451.03036" target-y="315.18475"></path><g node-id="141"><path d="M 431.82 151.85 L 431.26 153.23 L 431.06 154.27 L 431.13 156.01 L 431.16 157.32 L 430.59 158.83 L 429.85 160.60 L 429.53 162.06 L 429.69 162.53 L 430.04 162.90 L 431.02 163.58 L 431.49 164.01 L 431.86 164.63 L 432.12 166.19 L 432.30 167.86 L 432.59 168.66 L 433.17 169.43 L 434.09 169.97 L 435.45 170.32 L 438.14 170.75 L 439.11 171.13 L 439.38 171.67 L 438.70 174.17 L 437.54 177.27 L 436.92 178.78 L 437.22 179.77 L 437.79 180.62 L 439.07 181.61 L 440.12 182.08 L 441.68 182.43 L 443.92 182.60 L 446.29 182.38 L 447.86 181.90 L 449.12 181.14 L 449.89 180.36 L 450.40 179.49 L 450.63 178.81 L 450.74 178.11 L 450.46 176.83 L 449.89 173.77 L 449.43 170.09 L 449.37 168.30 L 449.48 166.94 L 449.86 163.10 L 449.92 160.56 L 449.80 157.81 L 449.43 155.14 L 448.80 152.92 L 448.14 151.63 L 447.34 150.79 L 446.39 150.29 L 444.64 149.91 L 442.49 149.61 L 440.27 149.46 L 438.05 149.49 L 435.90 149.72 L 434.14 150.16 L 432.66 150.90 L 431.82 151.85 Z" fill="#f1b282" fill-rule="nonzero" group-id="8,22" id="Path" node-id="102" stroke="none" target-height="33.134003" target-width="21.211212" target-x="429.52982" target-y="149.46417"></path><path d="M 439.38 171.68 L 439.10 172.96 L 439.88 172.16 L 440.38 171.30 L 440.83 169.70 L 440.89 168.98 L 439.19 169.72 L 437.64 170.07 L 436.15 170.18 L 435.09 170.12 L 434.05 169.96 L 434.06 169.97 L 436.32 170.46 L 438.47 170.84 L 439.18 171.20 L 439.38 171.68 Z" fill="#cd916a" fill-rule="nonzero" group-id="8,22" id="Path" node-id="103" stroke="none" target-height="3.977188" target-width="6.8372803" target-x="434.05322" target-y="168.97984"></path></g><path d="M 437.59 140.68 L 436.23 141.02 L 433.25 142.11 L 431.64 142.97 L 430.26 144.03 L 429.53 144.89 L 429.09 145.83 L 428.91 146.88 L 429.03 148.65 L 429.47 150.24 L 429.99 151.17 L 430.79 151.99 L 431.93 152.71 L 433.20 153.19 L 434.99 153.53 L 437.45 153.67 L 438.23 153.86 L 438.81 154.29 L 439.23 155.01 L 439.58 156.35 L 439.72 157.96 L 439.72 160.91 L 439.80 162.00 L 439.99 162.25 L 440.74 161.95 L 441.66 161.06 L 443.46 158.84 L 444.43 157.96 L 445.29 157.65 L 445.89 157.99 L 446.38 159.17 L 446.64 160.71 L 446.81 162.77 L 447.02 167.08 L 447.20 169.14 L 447.47 170.68 L 447.97 171.85 L 448.60 172.19 L 449.83 172.03 L 451.25 171.51 L 452.90 170.53 L 454.36 169.30 L 455.75 167.68 L 457.06 165.58 L 458.02 163.32 L 458.65 160.61 L 458.92 157.38 L 458.66 154.14 L 458.04 151.54 L 457.11 149.45 L 455.82 147.54 L 454.40 146.02 L 452.84 144.83 L 450.27 143.46 L 447.86 142.64 L 445.52 142.16 L 443.92 142.01 L 441.19 141.69 L 439.33 141.27 L 437.59 140.68 Z" fill="#0b224e" fill-rule="nonzero" group-id="8" id="Path" node-id="104" stroke="none" target-height="31.51213" target-width="30.0141" target-x="428.9088" target-y="140.68172"></path><path d="M 407.10 222.51 L 399.90 222.51 L 399.90 218.74 L 407.10 218.74 Z" fill="#ffffff" fill-rule="nonzero" group-id="8,23" id="Rectangle" node-id="105" stroke="none" target-height="3.7789612" target-width="7.200012" target-x="399.8993" target-y="218.73584"></path><path d="M 407.10 236.76 L 399.90 236.76 L 399.90 222.34 L 407.10 222.34 Z" fill="#102b5e" fill-rule="nonzero" group-id="8,24" id="Rectangle" node-id="106" stroke="none" target-height="14.416672" target-width="7.200012" target-x="399.8993" target-y="222.33978"></path><path d="M 417.90 225.94 L 410.70 225.94 L 410.70 218.74 L 417.90 218.74 Z" fill="#ffffff" fill-rule="nonzero" group-id="8,25" id="Rectangle" node-id="107" stroke="none" target-height="7.2083435" target-width="7.200012" target-x="410.69928" target-y="218.73563"></path><path d="M 417.90 236.76 L 410.70 236.76 L 410.70 225.94 L 417.90 225.94 Z" fill="#102b5e" fill-rule="nonzero" group-id="8,26" id="Rectangle" node-id="108" stroke="none" target-height="10.8125" target-width="7.200012" target-x="410.69928" target-y="225.94397"></path><path d="M 428.70 233.15 L 421.50 233.15 L 421.50 218.74 L 428.70 218.74 Z" fill="#ffffff" fill-rule="nonzero" group-id="8,27" id="Rectangle" node-id="109" stroke="none" target-height="14.416672" target-width="7.1999817" target-x="421.4993" target-y="218.73564"></path><path d="M 428.70 236.76 L 421.50 236.76 L 421.50 233.15 L 428.70 233.15 Z" fill="#102b5e" fill-rule="nonzero" group-id="8,28" id="Rectangle" node-id="110" stroke="none" target-height="3.6041718" target-width="7.1999817" target-x="421.4993" target-y="233.15228"></path><path d="M 450.75 233.15 L 471.45 233.15 L 471.77 233.02 L 471.90 232.70 L 471.90 230.00 L 471.77 229.68 L 471.45 229.55 L 450.75 229.55 L 450.43 229.68 L 450.30 230.00 L 450.30 232.70 L 450.43 233.02 L 450.75 233.15 Z" fill="#ffffff" fill-rule="nonzero" group-id="8" id="Path" node-id="111" stroke="none" target-height="3.6041565" target-width="21.600006" target-x="450.2991" target-y="229.54877"></path><path d="M 461.55 225.94 L 471.45 225.94 L 471.77 225.81 L 471.90 225.49 L 471.90 222.79 L 471.77 222.47 L 471.45 222.34 L 461.55 222.34 L 461.23 222.47 L 461.10 222.79 L 461.10 225.49 L 461.23 225.81 L 461.55 225.94 Z" fill="#ffffff" fill-rule="nonzero" group-id="8" id="Path" node-id="112" stroke="none" target-height="3.6041718" target-width="10.799988" target-x="461.09912" target-y="222.34042"></path><path d="M 452.15 245.01 L 452.48 243.52 L 453.27 242.09 L 454.33 240.80 L 455.45 239.75 L 457.33 238.44 L 457.95 235.18 L 458.79 230.25 L 459.49 225.16 L 459.71 221.44 L 459.48 217.44 L 459.04 212.16 L 458.33 207.35 L 468.73 207.35 L 468.90 211.05 L 468.97 215.72 L 468.94 220.08 L 468.75 222.82 L 467.99 226.18 L 466.68 231.46 L 465.33 236.70 L 464.48 239.92 L 465.20 242.43 L 465.78 245.37 L 465.88 246.82 L 465.78 248.00 L 465.29 249.06 L 464.27 250.02 L 462.94 250.78 L 461.35 251.42 L 458.16 252.28 L 455.80 252.66 L 454.84 252.44 L 453.89 251.56 L 453.16 250.28 L 452.57 248.60 L 452.22 246.81 L 452.15 245.01 Z" fill="#f1b282" fill-rule="nonzero" group-id="8" id="Path" node-id="113" stroke="none" target-height="45.313385" target-width="16.825043" target-x="452.14862" target-y="207.34709"></path></g></svg>