<?xml version="1.0" standalone="no"?><!DOCTYPE svg PUBLIC "-//W3C//DTD SVG 1.1//EN" "http://www.w3.org/Graphics/SVG/1.1/DTD/svg11.dtd"><svg height="166" node-id="1" sillyvg="true" template-height="166" template-width="160" version="1.1" viewBox="0 0 160 166" width="160" xmlns="http://www.w3.org/2000/svg" xmlns:xlink="http://www.w3.org/1999/xlink"><defs node-id="26"><linearGradient gradientUnits="objectBoundingBox" id="linearGradient-1" node-id="5" spreadMethod="pad" x1="1" x2="0.32677394" y1="0.0887675" y2="0.6566311"><stop offset="0" stop-color="#ffe9c3"></stop><stop offset="1" stop-color="#ffa447"></stop></linearGradient><linearGradient gradientUnits="objectBoundingBox" id="linearGradient-2" node-id="8" spreadMethod="pad" x1="1" x2="0.20246369" y1="0.15642314" y2="0.9254211"><stop offset="0" stop-color="#979797" stop-opacity="0"></stop><stop offset="1" stop-color="#ffffff" stop-opacity="0.3809456"></stop></linearGradient><linearGradient gradientUnits="objectBoundingBox" id="linearGradient-3" node-id="11" spreadMethod="pad" x1="0.5" x2="0.5" y1="0" y2="0.99605995"><stop offset="0" stop-color="#fff4b3" stop-opacity="0.8020549"></stop><stop offset="1" stop-color="#fff5ab" stop-opacity="0.6"></stop></linearGradient><linearGradient gradientUnits="objectBoundingBox" id="linearGradient-4" node-id="14" spreadMethod="pad" x1="0.5" x2="0.29528594" y1="0.3777172" y2="0.75384676"><stop offset="0" stop-color="#ffffff" stop-opacity="0"></stop><stop offset="1" stop-color="#ffffff" stop-opacity="0.72196054"></stop></linearGradient></defs><g node-id="51"><g node-id="52"><path d="M 40.00 0.00 L 120.00 0.00 L 124.15 0.22 L 128.12 0.82 L 131.92 1.80 L 135.57 3.14 L 139.09 4.85 L 142.38 6.84 L 145.43 9.12 L 148.28 11.72 L 150.88 14.57 L 153.16 17.62 L 155.15 20.91 L 156.86 24.43 L 158.20 28.08 L 159.18 31.88 L 159.78 35.85 L 160.00 40.00 L 160.00 126.00 L 159.78 130.15 L 159.18 134.12 L 158.20 137.92 L 156.86 141.57 L 155.15 145.09 L 153.16 148.38 L 150.88 151.43 L 148.28 154.28 L 145.43 156.88 L 142.38 159.16 L 139.09 161.15 L 135.57 162.86 L 131.92 164.20 L 128.12 165.18 L 124.15 165.78 L 120.00 166.00 L 40.00 166.00 L 35.85 165.78 L 31.88 165.18 L 28.08 164.20 L 24.43 162.86 L 20.91 161.15 L 17.62 159.16 L 14.57 156.88 L 11.72 154.28 L 9.12 151.43 L 6.84 148.38 L 4.85 145.09 L 3.14 141.57 L 1.80 137.92 L 0.82 134.12 L 0.22 130.15 L 0.00 126.00 L 0.00 40.00 L 0.22 35.85 L 0.82 31.88 L 1.80 28.08 L 3.14 24.43 L 4.85 20.91 L 6.84 17.62 L 9.12 14.57 L 11.72 11.72 L 14.57 9.12 L 17.62 6.84 L 20.91 4.85 L 24.43 3.14 L 28.08 1.80 L 31.88 0.82 L 35.85 0.22 L 40.00 0.00 Z" fill="#304b68" fill-rule="evenodd" group-id="1,2" id="背景" node-id="20" stroke="none" target-height="166" target-width="160" target-x="0" target-y="0"></path><g node-id="53"><path d="M 77.00 22.00 L 77.00 22.00 L 81.98 22.21 L 86.79 22.80 L 91.45 23.75 L 95.96 25.06 L 100.38 26.73 L 104.59 28.71 L 108.61 30.99 L 112.44 33.58 L 117.21 37.47 L 121.53 41.79 L 125.42 46.56 L 128.01 50.39 L 130.29 54.41 L 132.27 58.62 L 133.94 63.04 L 135.25 67.55 L 136.20 72.21 L 136.79 77.02 L 137.00 82.00 L 137.00 82.00 L 136.79 86.98 L 136.20 91.79 L 135.25 96.45 L 133.94 100.96 L 132.27 105.38 L 130.29 109.59 L 128.01 113.61 L 125.42 117.44 L 121.53 122.21 L 117.21 126.53 L 112.44 130.42 L 108.61 133.01 L 104.59 135.29 L 100.38 137.27 L 95.96 138.94 L 91.45 140.25 L 86.79 141.20 L 81.98 141.79 L 77.00 142.00 L 77.00 142.00 L 72.02 141.79 L 67.21 141.20 L 62.55 140.25 L 58.04 138.94 L 53.62 137.27 L 49.41 135.29 L 45.39 133.01 L 41.56 130.42 L 36.79 126.53 L 32.47 122.21 L 28.58 117.44 L 25.99 113.61 L 23.71 109.59 L 21.73 105.38 L 20.06 100.96 L 18.75 96.45 L 17.80 91.79 L 17.21 86.98 L 17.00 82.00 L 17.00 82.00 L 17.21 77.02 L 17.80 72.21 L 18.75 67.55 L 20.06 63.04 L 21.73 58.62 L 23.71 54.41 L 25.99 50.39 L 28.58 46.56 L 32.47 41.79 L 36.79 37.47 L 41.56 33.58 L 45.39 30.99 L 49.41 28.71 L 53.62 26.73 L 58.04 25.06 L 62.55 23.75 L 67.21 22.80 L 72.02 22.21 L 77.00 22.00 Z" fill="none" group-id="1,2,3" id="选中背景" node-id="22" stroke="none" target-height="120" target-width="120" target-x="17" target-y="22"></path><path d="M 105.00 56.50 L 106.52 56.65 L 107.92 57.09 L 109.20 57.78 L 110.30 58.70 L 111.22 59.80 L 111.91 61.08 L 112.35 62.48 L 112.50 64.00 L 112.50 64.00 L 112.50 111.00 L 112.35 112.52 L 111.91 113.92 L 111.22 115.20 L 110.30 116.30 L 109.20 117.22 L 107.92 117.91 L 106.52 118.35 L 105.00 118.50 L 105.00 118.50 L 45.00 118.50 L 43.48 118.35 L 42.08 117.91 L 40.80 117.22 L 39.70 116.30 L 38.78 115.20 L 38.09 113.92 L 37.65 112.52 L 37.50 111.00 L 37.50 111.00 L 37.50 73.00 L 37.66 70.73 L 38.09 68.60 L 38.80 66.58 L 40.32 63.77 L 42.33 61.33 L 44.77 59.32 L 47.58 57.80 L 49.60 57.09 L 51.73 56.66 L 54.00 56.50 L 54.00 56.50 Z" fill="url(#linearGradient-1)" fill-rule="evenodd" group-id="1,2,3" id="矩形" node-id="23" stroke="url(#linearGradient-2)" stroke-linecap="butt" stroke-width="1" target-height="62" target-width="75" target-x="37.5" target-y="56.5"></path><path d="M 69.79 89.88 L 69.40 89.84 L 68.36 89.47 L 67.58 88.78 L 67.11 87.85 L 67.02 86.77 L 67.89 81.08 L 69.14 76.06 L 70.76 71.64 L 72.70 67.74 L 74.96 64.32 L 77.54 61.33 L 80.44 58.73 L 83.78 56.46 L 87.45 54.62 L 91.48 53.19 L 95.92 52.21 L 100.83 51.68 L 102.50 51.59 L 102.50 42.52 L 102.77 40.89 L 103.42 39.86 L 104.38 39.20 L 105.47 39.00 L 106.56 39.23 L 107.56 39.90 L 128.12 60.70 L 129.38 62.38 L 129.94 63.93 L 129.92 65.43 L 129.32 66.99 L 127.98 68.68 L 107.96 88.96 L 106.79 89.75 L 105.60 90.00 L 104.43 89.79 L 103.44 89.16 L 102.77 88.18 L 102.50 86.81 L 102.50 77.09 L 100.43 77.09 L 97.46 77.16 L 93.83 77.48 L 90.08 78.08 L 86.10 79.09 L 82.21 80.55 L 78.44 82.58 L 76.12 84.25 L 73.99 86.25 L 72.04 88.61 L 71.44 89.31 L 70.71 89.73 L 69.79 89.88 Z" fill="url(#linearGradient-3)" fill-rule="nonzero" group-id="1,2,3" id="路径" node-id="24" stroke="url(#linearGradient-4)" stroke-linecap="butt" stroke-width="1" target-height="50.999344" target-width="62.921173" target-x="67.019165" target-y="39.000244"></path></g></g></g></svg>