<?xml version="1.0" standalone="no"?><!DOCTYPE svg PUBLIC "-//W3C//DTD SVG 1.1//EN" "http://www.w3.org/Graphics/SVG/1.1/DTD/svg11.dtd"><svg height="166" node-id="1" sillyvg="true" template-height="166" template-width="160" version="1.1" viewBox="0 0 160 166" width="160" xmlns="http://www.w3.org/2000/svg" xmlns:xlink="http://www.w3.org/1999/xlink"><defs node-id="38"><linearGradient gradientUnits="objectBoundingBox" id="linearGradient-1" node-id="5" spreadMethod="pad" x1="0.9913449" x2="0.32677394" y1="0.3794617" y2="0.54674065"><stop offset="0" stop-color="#7fffd3"></stop><stop offset="1" stop-color="#04c994"></stop></linearGradient><linearGradient gradientUnits="objectBoundingBox" id="linearGradient-2" node-id="8" spreadMethod="pad" x1="1" x2="0" y1="0.3974724" y2="0.6025276"><stop offset="0" stop-color="#979797" stop-opacity="0"></stop><stop offset="1" stop-color="#ffffff" stop-opacity="0.3809456"></stop></linearGradient><linearGradient gradientUnits="objectBoundingBox" id="linearGradient-3" node-id="11" spreadMethod="pad" x1="0.5" x2="0.5" y1="0.005164894" y2="1"><stop offset="0" stop-color="#a3ffe8" stop-opacity="0.6"></stop><stop offset="1" stop-color="#a1ffbb" stop-opacity="0.4752385"></stop></linearGradient><linearGradient gradientUnits="objectBoundingBox" id="linearGradient-4" node-id="14" spreadMethod="pad" x1="0.45605338" x2="0.40527698" y1="0.5510587" y2="0.8378748"><stop offset="0" stop-color="#ffffff" stop-opacity="0"></stop><stop offset="1" stop-color="#ffffff"></stop></linearGradient><linearGradient gradientUnits="objectBoundingBox" id="linearGradient-5" node-id="17" spreadMethod="pad" x1="0.5" x2="0.5" y1="0" y2="1"><stop offset="0" stop-color="#c6ffea" stop-opacity="0.6"></stop><stop offset="1" stop-color="#a2ffed" stop-opacity="0.4752385"></stop></linearGradient><linearGradient gradientUnits="objectBoundingBox" id="linearGradient-6" node-id="20" spreadMethod="pad" x1="0.5" x2="0.5" y1="0" y2="1"><stop offset="0.0006491171" stop-color="#ddfff0" stop-opacity="0.26405174"></stop><stop offset="1" stop-color="#8cf9bd" stop-opacity="0.6507799"></stop></linearGradient><linearGradient gradientUnits="objectBoundingBox" id="linearGradient-7" node-id="23" spreadMethod="pad" x1="0.42971233" x2="0.33298537" y1="0.46593073" y2="0.5592892"><stop offset="0" stop-color="#ffffff" stop-opacity="0"></stop><stop offset="1" stop-color="#ffffff" stop-opacity="0.72196054"></stop></linearGradient></defs><g node-id="81"><g node-id="82"><path d="M 40.00 0.00 L 120.00 0.00 L 124.15 0.22 L 128.12 0.82 L 131.92 1.80 L 135.57 3.14 L 139.09 4.85 L 142.38 6.84 L 145.43 9.12 L 148.28 11.72 L 150.88 14.57 L 153.16 17.62 L 155.15 20.91 L 156.86 24.43 L 158.20 28.08 L 159.18 31.88 L 159.78 35.85 L 160.00 40.00 L 160.00 126.00 L 159.78 130.15 L 159.18 134.12 L 158.20 137.92 L 156.86 141.57 L 155.15 145.09 L 153.16 148.38 L 150.88 151.43 L 148.28 154.28 L 145.43 156.88 L 142.38 159.16 L 139.09 161.15 L 135.57 162.86 L 131.92 164.20 L 128.12 165.18 L 124.15 165.78 L 120.00 166.00 L 40.00 166.00 L 35.85 165.78 L 31.88 165.18 L 28.08 164.20 L 24.43 162.86 L 20.91 161.15 L 17.62 159.16 L 14.57 156.88 L 11.72 154.28 L 9.12 151.43 L 6.84 148.38 L 4.85 145.09 L 3.14 141.57 L 1.80 137.92 L 0.82 134.12 L 0.22 130.15 L 0.00 126.00 L 0.00 40.00 L 0.22 35.85 L 0.82 31.88 L 1.80 28.08 L 3.14 24.43 L 4.85 20.91 L 6.84 17.62 L 9.12 14.57 L 11.72 11.72 L 14.57 9.12 L 17.62 6.84 L 20.91 4.85 L 24.43 3.14 L 28.08 1.80 L 31.88 0.82 L 35.85 0.22 L 40.00 0.00 Z" fill="#304b68" fill-rule="evenodd" group-id="1,2" id="背景" node-id="29" stroke="none" target-height="166" target-width="160" target-x="0" target-y="0"></path><g node-id="83"><path d="M 79.00 23.00 L 79.00 23.00 L 83.98 23.21 L 88.79 23.80 L 93.45 24.75 L 97.96 26.06 L 102.38 27.73 L 106.59 29.71 L 110.61 31.99 L 114.44 34.58 L 119.21 38.47 L 123.53 42.79 L 127.42 47.56 L 130.01 51.39 L 132.29 55.41 L 134.27 59.62 L 135.94 64.04 L 137.25 68.55 L 138.20 73.21 L 138.79 78.02 L 139.00 83.00 L 139.00 83.00 L 138.79 87.98 L 138.20 92.79 L 137.25 97.45 L 135.94 101.96 L 134.27 106.38 L 132.29 110.59 L 130.01 114.61 L 127.42 118.44 L 123.53 123.21 L 119.21 127.53 L 114.44 131.42 L 110.61 134.01 L 106.59 136.29 L 102.38 138.27 L 97.96 139.94 L 93.45 141.25 L 88.79 142.20 L 83.98 142.79 L 79.00 143.00 L 79.00 143.00 L 74.02 142.79 L 69.21 142.20 L 64.55 141.25 L 60.04 139.94 L 55.62 138.27 L 51.41 136.29 L 47.39 134.01 L 43.56 131.42 L 38.79 127.53 L 34.47 123.21 L 30.58 118.44 L 27.99 114.61 L 25.71 110.59 L 23.73 106.38 L 22.06 101.96 L 20.75 97.45 L 19.80 92.79 L 19.21 87.98 L 19.00 83.00 L 19.00 83.00 L 19.21 78.02 L 19.80 73.21 L 20.75 68.55 L 22.06 64.04 L 23.73 59.62 L 25.71 55.41 L 27.99 51.39 L 30.58 47.56 L 34.47 42.79 L 38.79 38.47 L 43.56 34.58 L 47.39 31.99 L 51.41 29.71 L 55.62 27.73 L 60.04 26.06 L 64.55 24.75 L 69.21 23.80 L 74.02 23.21 L 79.00 23.00 Z" fill="none" group-id="1,2,3" id="选中背景" node-id="31" stroke="none" target-height="120" target-width="120" target-x="19" target-y="23"></path><g node-id="84"><path d="M 96.61 100.50 L 97.76 100.69 L 98.74 101.23 L 99.51 102.05 L 99.99 103.11 L 99.99 103.11 L 104.20 119.11 L 104.28 120.51 L 103.84 121.76 L 102.96 122.77 L 101.70 123.38 L 100.81 123.50 L 100.81 123.50 L 58.19 123.50 L 56.81 123.22 L 55.71 122.47 L 54.97 121.37 L 54.69 120.00 L 54.80 119.11 L 54.80 119.11 L 59.01 103.11 L 59.49 102.05 L 60.26 101.23 L 61.24 100.69 L 62.39 100.50 L 62.39 100.50 Z" fill="url(#linearGradient-1)" fill-rule="evenodd" group-id="1,2,3,4" id="矩形" node-id="33" stroke="url(#linearGradient-2)" stroke-linecap="butt" stroke-width="1" target-height="23" target-width="49.588837" target-x="54.687508" target-y="100.5"></path><path d="M 114.00 51.50 L 115.52 51.65 L 116.92 52.09 L 118.20 52.78 L 119.30 53.70 L 120.22 54.80 L 120.91 56.08 L 121.35 57.48 L 121.50 59.00 L 121.50 59.00 L 121.50 101.00 L 121.35 102.52 L 120.91 103.92 L 120.22 105.20 L 119.30 106.30 L 118.20 107.22 L 116.92 107.91 L 115.52 108.35 L 114.00 108.50 L 114.00 108.50 L 44.00 108.50 L 42.48 108.35 L 41.08 107.91 L 39.80 107.22 L 38.70 106.30 L 37.78 105.20 L 37.09 103.92 L 36.65 102.52 L 36.50 101.00 L 36.50 101.00 L 36.50 57.00 L 36.71 55.51 L 37.25 54.23 L 38.11 53.11 L 39.23 52.25 L 40.51 51.71 L 42.00 51.50 L 42.00 51.50 Z" fill="url(#linearGradient-3)" fill-rule="evenodd" group-id="1,2,3,4" id="矩形" node-id="34" stroke="url(#linearGradient-4)" stroke-linecap="butt" stroke-width="1" target-height="57" target-width="85" target-x="36.5" target-y="51.5"></path><path d="M 42.00 51.00 L 116.00 51.00 L 117.63 51.23 L 119.03 51.81 L 120.24 52.76 L 121.19 53.97 L 121.77 55.37 L 122.00 57.00 L 122.00 65.00 L 122.00 65.00 L 36.00 65.00 L 36.00 57.00 L 36.23 55.37 L 36.81 53.97 L 37.76 52.76 L 38.97 51.81 L 40.37 51.23 L 42.00 51.00 Z" fill="url(#linearGradient-5)" fill-opacity="0.67" fill-rule="evenodd" group-id="1,2,3,4" id="矩形" node-id="35" stroke="none" target-height="14" target-width="86" target-x="36" target-y="51"></path><path d="M 70.28 73.50 L 71.22 73.70 L 72.00 74.25 L 72.00 74.25 L 79.25 84.78 L 83.43 78.92 L 84.23 78.01 L 85.36 77.63 L 85.36 77.63 L 100.15 77.62 L 101.07 77.81 L 101.81 78.31 L 102.31 79.06 L 102.50 79.98 L 102.45 81.07 L 102.20 81.86 L 101.87 82.19 L 101.30 82.34 L 101.30 82.34 L 100.15 82.35 L 86.97 82.35 L 81.84 90.22 L 81.06 91.10 L 80.04 91.48 L 78.98 91.37 L 78.03 90.74 L 78.03 90.74 L 69.16 78.22 L 56.85 78.22 L 55.96 78.05 L 55.24 77.58 L 54.73 76.89 L 54.50 76.01 L 54.68 75.03 L 55.13 74.27 L 55.83 73.74 L 56.70 73.50 L 56.70 73.50 Z" fill="url(#linearGradient-6)" fill-rule="nonzero" group-id="1,2,3,4" id="路径-3" node-id="36" stroke="url(#linearGradient-7)" stroke-linecap="butt" stroke-width="1" target-height="17.980942" target-width="47.99518" target-x="54.50482" target-y="73.5"></path></g></g></g></g></svg>