<?xml version="1.0" standalone="no"?><!DOCTYPE svg PUBLIC "-//W3C//DTD SVG 1.1//EN" "http://www.w3.org/Graphics/SVG/1.1/DTD/svg11.dtd"><svg height="166" node-id="1" sillyvg="true" template-height="166" template-width="160" version="1.1" viewBox="0 0 160 166" width="160" xmlns="http://www.w3.org/2000/svg" xmlns:xlink="http://www.w3.org/1999/xlink"><defs node-id="35"><linearGradient gradientUnits="objectBoundingBox" id="linearGradient-1" node-id="5" spreadMethod="pad" x1="1" x2="0.32677394" y1="0.34213173" y2="0.5601292"><stop offset="0" stop-color="#81e6ff"></stop><stop offset="1" stop-color="#409eff"></stop></linearGradient><linearGradient gradientUnits="objectBoundingBox" id="linearGradient-2" node-id="8" spreadMethod="pad" x1="0.5133199" x2="0.520264" y1="0.3882665" y2="0.59511894"><stop offset="0" stop-color="#979797" stop-opacity="0"></stop><stop offset="0.41461062" stop-color="#9d9d9d" stop-opacity="0.022539182"></stop><stop offset="1" stop-color="#ffffff" stop-opacity="0.3809456"></stop></linearGradient><linearGradient gradientUnits="objectBoundingBox" id="linearGradient-3" node-id="12" spreadMethod="pad" x1="0.5" x2="0.5" y1="0" y2="1"><stop offset="0" stop-color="#59ccff" stop-opacity="0.2777885"></stop><stop offset="1" stop-color="#7db6ff" stop-opacity="0.6"></stop></linearGradient><linearGradient gradientUnits="objectBoundingBox" id="linearGradient-4" node-id="15" spreadMethod="pad" x1="0.5" x2="0.5" y1="0.57651556" y2="1.0442426"><stop offset="0" stop-color="#ffffff" stop-opacity="0"></stop><stop offset="1" stop-color="#7ad1ff"></stop></linearGradient><linearGradient gradientUnits="objectBoundingBox" id="linearGradient-5" node-id="18" spreadMethod="pad" x1="0.5" x2="0.5" y1="0" y2="1"><stop offset="0" stop-color="#ffffff" stop-opacity="0.2777885"></stop><stop offset="1" stop-color="#ffffff" stop-opacity="0.6"></stop></linearGradient><linearGradient gradientUnits="objectBoundingBox" id="linearGradient-6" node-id="21" spreadMethod="pad" x1="0.5" x2="0.5" y1="0.5821928" y2="1.119747"><stop offset="0" stop-color="#ffffff" stop-opacity="0"></stop><stop offset="1" stop-color="#ffffff" stop-opacity="0.85"></stop></linearGradient></defs><g node-id="74"><g node-id="75"><path d="M 40.00 0.00 L 120.00 0.00 L 124.15 0.22 L 128.12 0.82 L 131.92 1.80 L 135.57 3.14 L 139.09 4.85 L 142.38 6.84 L 145.43 9.12 L 148.28 11.72 L 150.88 14.57 L 153.16 17.62 L 155.15 20.91 L 156.86 24.43 L 158.20 28.08 L 159.18 31.88 L 159.78 35.85 L 160.00 40.00 L 160.00 126.00 L 159.78 130.15 L 159.18 134.12 L 158.20 137.92 L 156.86 141.57 L 155.15 145.09 L 153.16 148.38 L 150.88 151.43 L 148.28 154.28 L 145.43 156.88 L 142.38 159.16 L 139.09 161.15 L 135.57 162.86 L 131.92 164.20 L 128.12 165.18 L 124.15 165.78 L 120.00 166.00 L 40.00 166.00 L 35.85 165.78 L 31.88 165.18 L 28.08 164.20 L 24.43 162.86 L 20.91 161.15 L 17.62 159.16 L 14.57 156.88 L 11.72 154.28 L 9.12 151.43 L 6.84 148.38 L 4.85 145.09 L 3.14 141.57 L 1.80 137.92 L 0.82 134.12 L 0.22 130.15 L 0.00 126.00 L 0.00 40.00 L 0.22 35.85 L 0.82 31.88 L 1.80 28.08 L 3.14 24.43 L 4.85 20.91 L 6.84 17.62 L 9.12 14.57 L 11.72 11.72 L 14.57 9.12 L 17.62 6.84 L 20.91 4.85 L 24.43 3.14 L 28.08 1.80 L 31.88 0.82 L 35.85 0.22 L 40.00 0.00 Z" fill="#304b68" fill-rule="evenodd" group-id="1,2" id="背景" node-id="27" stroke="none" target-height="166" target-width="160" target-x="0" target-y="0"></path><g node-id="76"><path d="M 28.00 32.00 L 130.00 32.00 L 130.00 134.00 L 28.00 134.00 Z" fill="none" group-id="1,2,3" id="矩形" node-id="29" stroke="none" target-height="102" target-width="102" target-x="28" target-y="32"></path><g node-id="77"><path d="M 69.49 77.49 L 72.27 76.32 L 75.10 75.63 L 78.03 75.40 L 80.96 75.63 L 83.79 76.32 L 86.58 77.49 L 86.58 77.49 L 121.14 95.49 L 122.14 96.21 L 122.87 97.08 L 123.35 98.13 L 123.56 99.26 L 123.46 100.40 L 123.05 101.56 L 122.17 102.73 L 120.96 103.56 L 120.96 103.56 L 85.86 119.95 L 83.30 120.92 L 80.70 121.49 L 78.03 121.68 L 75.36 121.49 L 72.76 120.92 L 70.21 119.95 L 70.21 119.95 L 35.10 103.56 L 34.06 102.88 L 33.30 102.05 L 32.77 101.02 L 32.52 99.89 L 32.56 98.76 L 32.92 97.58 L 33.75 96.37 L 34.92 95.49 L 34.92 95.49 Z" fill="url(#linearGradient-1)" fill-rule="evenodd" group-id="1,2,3,4" id="矩形" node-id="31" stroke="url(#linearGradient-2)" stroke-linecap="butt" stroke-width="1" target-height="46.2836" target-width="91.04222" target-x="32.516712" target-y="75.399"></path><path d="M 69.49 65.17 L 72.27 64.00 L 75.10 63.31 L 78.03 63.08 L 80.96 63.31 L 83.79 64.00 L 86.58 65.17 L 86.58 65.17 L 114.07 79.49 L 115.07 80.21 L 115.80 81.08 L 116.28 82.13 L 116.49 83.26 L 116.39 84.40 L 115.98 85.56 L 115.10 86.73 L 113.89 87.56 L 113.89 87.56 L 85.86 100.65 L 83.30 101.61 L 80.70 102.19 L 78.03 102.38 L 75.36 102.19 L 72.76 101.61 L 70.21 100.65 L 70.21 100.65 L 42.17 87.56 L 41.13 86.88 L 40.37 86.05 L 39.84 85.02 L 39.59 83.89 L 39.63 82.76 L 39.99 81.58 L 40.82 80.37 L 41.99 79.49 L 41.99 79.49 Z" fill="url(#linearGradient-3)" fill-rule="evenodd" group-id="1,2,3,4" id="矩形备份-5" node-id="32" stroke="url(#linearGradient-4)" stroke-linecap="butt" stroke-width="1" target-height="39.300697" target-width="76.9001" target-x="39.58778" target-y="63.081276"></path><path d="M 69.49 54.59 L 72.27 53.42 L 75.10 52.73 L 78.03 52.50 L 80.96 52.73 L 83.79 53.42 L 86.58 54.59 L 86.58 54.59 L 105.58 64.49 L 106.59 65.21 L 107.31 66.08 L 107.80 67.13 L 108.00 68.26 L 107.91 69.40 L 107.50 70.56 L 106.62 71.73 L 105.41 72.56 L 105.41 72.56 L 85.86 81.68 L 83.30 82.65 L 80.70 83.23 L 78.03 83.42 L 75.36 83.23 L 72.76 82.65 L 70.21 81.68 L 70.21 81.68 L 50.65 72.56 L 49.62 71.88 L 48.86 71.05 L 48.33 70.02 L 48.07 68.89 L 48.12 67.76 L 48.48 66.58 L 49.31 65.37 L 50.48 64.49 L 50.48 64.49 Z" fill="url(#linearGradient-5)" fill-opacity="0.85" fill-rule="evenodd" group-id="1,2,3,4" id="矩形备份-6" node-id="33" stroke="url(#linearGradient-6)" stroke-linecap="butt" stroke-width="1" target-height="30.921219" target-width="59.929543" target-x="48.07306" target-y="52.5"></path></g></g></g></g></svg>